<mxfile host="app.diagrams.net" modified="2024-01-31T19:08:36.544Z" agent="Mozilla/5.0 (Macintosh; Intel Mac OS X 10_15_7) AppleWebKit/605.1.15 (KHTML, like Gecko) Version/17.3 Safari/605.1.15" etag="eV5R5bARSMZoDOUmqmfp" version="23.0.2" type="github">
  <diagram name="Page-1" id="16e2658f-23c8-b752-8be9-c03fbebb8bbe">
    <mxGraphModel dx="966" dy="1541" grid="1" gridSize="10" guides="1" tooltips="1" connect="1" arrows="1" fold="1" page="1" pageScale="1" pageWidth="1100" pageHeight="850" background="#E6E6E6" math="0" shadow="0">
      <root>
        <mxCell id="0" />
        <mxCell id="1" parent="0" />
        <mxCell id="ttTQe-31etXcoxlEIEXn-1" value="" style="shape=image;verticalLabelPosition=bottom;labelBackgroundColor=default;verticalAlign=top;aspect=fixed;imageAspect=0;image=data:image/jpeg,/9j/4AAQSkZJRgABAQAAkACQAAD/4QCMRXhpZgAATU0AKgAAAAgABQESAAMAAAABAAEAAAEaAAUAAAABAAAASgEbAAUAAAABAAAAUgEoAAMAAAABAAIAAIdpAAQAAAABAAAAWgAAAAAAAACQAAAAAQAAAJAAAAABAAOgAQADAAAAAQABAACgAgAEAAAAAQAAAoSgAwAEAAAAAQAAAa4AAAAA/+0AOFBob3Rvc2hvcCAzLjAAOEJJTQQEAAAAAAAAOEJJTQQlAAAAAAAQ1B2M2Y8AsgTpgAmY7PhCfv/AABEIAa4ChAMBIgACEQEDEQH/xAAfAAABBQEBAQEBAQAAAAAAAAAAAQIDBAUGBwgJCgv/xAC1EAACAQMDAgQDBQUEBAAAAX0BAgMABBEFEiExQQYTUWEHInEUMoGRoQgjQrHBFVLR8CQzYnKCCQoWFxgZGiUmJygpKjQ1Njc4OTpDREVGR0hJSlNUVVZXWFlaY2RlZmdoaWpzdHV2d3h5eoOEhYaHiImKkpOUlZaXmJmaoqOkpaanqKmqsrO0tba3uLm6wsPExcbHyMnK0tPU1dbX2Nna4eLj5OXm5+jp6vHy8/T19vf4+fr/xAAfAQADAQEBAQEBAQEBAAAAAAAAAQIDBAUGBwgJCgv/xAC1EQACAQIEBAMEBwUEBAABAncAAQIDEQQFITEGEkFRB2FxEyIygQgUQpGhscEJIzNS8BVictEKFiQ04SXxFxgZGiYnKCkqNTY3ODk6Q0RFRkdISUpTVFVWV1hZWmNkZWZnaGlqc3R1dnd4eXqCg4SFhoeIiYqSk5SVlpeYmZqio6Slpqeoqaqys7S1tre4ubrCw8TFxsfIycrS09TV1tfY2dri4+Tl5ufo6ery8/T19vf4+fr/2wBDAAICAgICAgMCAgMFAwMDBQYFBQUFBggGBgYGBggKCAgICAgICgoKCgoKCgoMDAwMDAwODg4ODg8PDw8PDw8PDw//2wBDAQICAgQEBAcEBAcQCwkLEBAQEBAQEBAQEBAQEBAQEBAQEBAQEBAQEBAQEBAQEBAQEBAQEBAQEBAQEBAQEBAQEBD/3QAEACn/2gAMAwEAAhEDEQA/APjy6dSDj+9VNjzWvfWe3aVkQJ1yzACsvNr/AM/lvx/00/8ArV+bI/uevNc+5Eo681KAcU5VhY/Jc2//AH8/+tUoEOP+PiH/AL7FManFdSWMgDJq+nOapRRKeRcQgf8AXQVoxxxjrdQA/wDXQVbOeTHD7tOVgvWk2AjCTRN7iRcfzoMZxtDoWP8A00X/ABp30NFVGztwMVlsrMxNXprW6bBymP8AfX/GoFsrtT/CQf8AbX/GuaRvSmrFMkA4NOjPzbqvrpt4FaRkXYv+0D/WnQaVfTRmWNAw7fMBWUtjXmj3GREcA8VaKZFSppWoggtb8/gR/Orb6ffeXzCR+X+NZIOePcxZMLDJ+FQoML1rUNrcCNkMTFm7cUkemXu3DwkepxVjpTj3M09QSeKmBYlIlGWc4C4JJPoPetKy8P6hqcjpGvlxR8vIxwqj3Pc+1Z3iLxnoPgWI6fYbZdTf5GbrIzepz90V6eX4CpVekdDwuIeKsHl1Nzrz+S3ZtRaJNDbre6jKlnEx5U/NKR3+Uf1rG1LxR8P/AA+TD5ZmkHVp32j/AL5XNfNni34ga/qQa3vLwwpnOyJv5v3/ADryO81y0SVnuZWlzjqNx/OvrMLkFP7aufimdeNGMnK2Ciox89z7MHxd8JRSKhW2WI5yY43bB7clRS3fxY8KrJEPLtpopFJbKshOOOwr4vh8ZaZA4AtvMGCPu06TxvproipatEVHOMEHP1r2Vw9hbfAfI1PFDOpPm9t+CPurSvGXgjWPnJ+zyD7vkybgB7q+BXVxaZHfQ/a9Iukvypz5f3Xx24bBP4V+edl4k0S4kCB5IJOzMMAfQivRtD8Y6to5SWyujcqMcFyOnpivMxvDdKSvS0Z9TlHjPjYWji4qS7rR/kfWLAq5ikAWRBgqchl9iKmgYKOtcx4S+JWleKoRp2voBdKMK/AdD6k966ye1e1kETtuVgCjj5lYH6V8ZjMvqUHaSP3TIOJ8LmdPnw87tbrqh0kwaNlB5xWX5fysDVhhhirfyI/nTWVuOo+leO1Y+i5iTy12KF6VEyYqQB0GSGx60wnJ6EfWueTuzWnPoAQY5pwiBpgcKw3HAqXzYzgK36YqGbIURAZz6VGsIU/WpWkA9qb5ikjBzUtX0KUuhbTipf4TVdHB61LvGDWDp2L5hF61KxG3FQZ4zTS4IzW0IGPtPIjf71J0GafwfmNV3OeBVcprzqxI7Axt9DVNR8gNS9VYfhSLkIFPajlJ5kCIW5FXI1OajjYdqtKB1rN7WE2O3tUchY05wBUIDGs4w1FzjSMVGetPJOKjzmuloIz1Mqfc7NVbY393NXpgpc/NUB6+tL2Rv7TyINg9KRlyMCptoP8AFSFOOGpezD2qIj0AqM8QEj1xU6ptyTzUJJAI25Bo9mHtUKO1LTFzgcYqQ8Gmo2IdViUUUGqF7VjlqxFUKDIzViNcc0B7Vmmn3aY/X6UwMcCkLDHvVo5XIjk+4KxZgTITWy5yuKyZuHPvQlqHMMBAOaY/INLRWqgac+g1BiN/oKxNfIGu6VnvF/Wt9VyrKON3erUlvbyTRXbQJLLF03Anj8K7qas9TyMVqc4FOd2OOf50wplua7WC7srUkz6JbXAJJwxOastrOgsjMvhe0T6uw/CvQhTi/tG/9pP+T8f+AefmNuoHFMKHjnHevSbP+zrlkefw7ZWccjBVeWVgzE9lFdnrmifCbwrax3XjSSCO4ZfMW3spC5Axxls96v8As2b2OSrn9JJ8y/E+cNS1FLaA+ZJjkYrQ8DWN1qGm3EcMRUxSlsylUyD6MSAfpmtPWfj74A0mcDwv4YghWP7rzjzmY9mycAH61wfjb4+6zr+iraRRwWyJ8wAVVH5Lg1tSyOrN2Z8Vm3iRl2Gg3zXl2TR7VbaJq6KdkAY9fkdWOPoCanu7d7a0Z7mJ40XpvUjn69K+L7T4reIbaVJTLCw9MsP5GvXNB+PttDCsGrCaIHgt/rYfxUjOK658Lzjsz5jCeM2Bnb2lNx/r0PU5GHJTowFVWIQbmOBWpa6p4c17TBqulFGDH55bY71U+rxn5hisDUrd7S6QTkskw3RyrzE4+vr7V4uKymrS1kj9LynibBY6Clhpp/mQXw8xQV6Vc8OnydWhwMnqcVAIImABbbxnmrmjRLHqEbhhkE4PTrxj8awoJqSdj1MRJezlbsfpNb+C4vEljZ6pHZW16GgiXzBJ12qOD7ipP+FWD/oD2/8A38NWNB8UWOgaLY6aR/ZzJBGxjGcMSo+cezVrf8LCsv8An+/nXl1aeI5noz+N8bD99P1f5n//0PifU4QI4Ek+Yed0qy0WnngWcTYz95KrajNvlhj/AOm26rTnLHNfnF9LH9yVd2Vja2TPuW2jH0XFSLaWfX7NGQfanhcnipvLpGMPMVNP0lwP9GTPfip10fSHUhrRD+FQFSBVpZNgBNNJluwDRtHAx9lX9f8AGpl0bSRjbar+ZpEuRn7tW1vFGBjFOzCO6IW0bTANxt147Zb/ABqqbfTUcx/YwPQ7jx+Ga0XugVO3g1mv8x3mTk0nHuayglqULy3txd2ESAqHkwRk+lWP7PheRjucBc8ByBVe6GdR08E52yFs/QVpxMS8h7EmsakRIrJpsRGBJKP+2jVJ/ZuOk8mB/tmtCOM43VYxlawjF9jR9TGNjgj9/KD6hzWnp+iXerXAs7a7lTy1MkshkOEiHXPue1PCKVyWwR29ag8U+Jj4D8N+XC5a6vsGTacHngKfYda9DAYR1KiTPJzvOqeX4SeJqdDK8e/EmDwjpi+G/DM5uLlhhzJ1TcPvEdzXxvrXimSBpZJpDNdSnLueuT1603xR4jmQT3lwTLeXZOWY5I9K8/sNPvvEF18zFyeWbriv1HDYWFOKUUfxznOdVswrPEVpXvt5IrSXl9fsQGMhY/dzW3YeENYvAGMYRT/eNekaN4WstNRZAPMlP8WK65ABjeM7fSuvToeO2eWR/DW4kGWuRmrDfDCfp9pAz616cLhkP7uLj3qI3c+SHixiquFzxLUvAmtWOWgX7UBnIXrxXNwT3+lS5G+HHVT7V9LR3anABwcZODWTrGiaXrkO2VFjlOfmHOaSZSkeeaL4jF+oR5PInHRl+8Pfivq/4b/Eia/ibw7r0/lyxALHLgYYYwGHoR+tfE+u6Be+G7wsMmMkFWFdZ4c1yW9QKGInhK4I64FcWMwMasOVnp5PnFfAYiOJoSt310ex+gV7/b2nzi3nu1zgFXKAq4P8S1WW81FWy8yu3rsGKyPAviRPHPhY2Uw/0/TVDR7jyw7r7VfSQSAnG1gcEemK/L8yy90avLJH9ncP53Sx+Ejiae73Lv8AaGs9POjH/AFpjX2tL1nhP1RTTaOexryKlHqfRRYn27WmbKy2+T/0zFTC813/AJ7Qf9+hTVyPrQxNYexuaqZMbvXCmDNB/wB+hSpeawMFjA3/AGzFV9x9aVWbPWpdFofOWzqGrqM4t+P+mdIurat/cgP/AAGoCzetGWHc81KpO5POywdV1b/nhbkf7uKhbUtWPP2a3pmSRgk4+tJgYNbexY+ZCnVNTIwbS3amHU9QxlrG34/z61DJkDioMk9amdFp6FSdy8uqXjxtKbOABe2euKcus3zAMdNt8Ec4Pr+NVkCeSeKXdlciolFlR2LI1e9HC6fD+v8AjUq6rf4/5B8P5tWbub1q2GbFZtN7C5i2NXvhz/Ztv+Z/xpG1W+kHGnW/5n/Gq3NCk7+KI0X1DmLP268lljjNra2u9tvmTPsjU+rEkYH1qS9mntb1rO0aw1Mov+stZhIue/Svkv42+LL4+JD4faVo7SCJcDdkHdyDx1rzfwX4qu9B8QWk9lJjc4V0BwrBjjmvrqWQKdHnvqfm2P48hTxqwy2Vk/U+5pdRmi5k0hG9xJUH9sn/AKAy/wDfdTSSPJEJOgIBx9Rms4DIyetfKybR+lRbaui0dW8wbTpKj/tpUB1BQcHSwf8AtpSZpcmsnzFq7dmNOowp8z6YVHtJUg1O2eF2FgQFGcF+fzqGQ5U1GAPKkX1A/StaMG3qOUbOwg1G1IDDS3wf9uk/tC3z/wAg5wPTfU25qMmtZUGQ5dyt/aNpkj+zH4/2zTl1OzBwdNk/BqmoxmsvqrJcl3AanZ9P7OlP0fFWYtTs84/syU/8Cqmv38HtWpbAgcVr7DzMJ1fMaNSswMHTZfwNP/tG0K5+wTL+NWi7L+NMaXIx3p/V2czkzLl1KzH/AC4TN+NUZdUsvumwm/Ot3Gaqtbs7fKcHsDS+ry7jVTuY63+mt0sJf++sU7+09OTH+gy59N2as3UGnWx2Xd9FE3cP1/nVMSaEvP8AasOB6Ef411U8PUtpqYVcfTg7SkWku7VssLaRV/uk1J/aFun/AC7yY9AarytGYlnhlE0b8q4GAR04pyHcgJPWtlCWzMHO6uiQ6xYov/HnLgkZINagu9H0iwk1jV7RopAheOKVgqoo/jf69hV/w/payMdXuEV7W2YGKNzjzpsHCt6KByT7V8n/ABY+If8Awk97cW9pKP7NtZGEjk/8fUgPzED+6OgHSvbyrKZ1Jcz2PgOPeMFltHkg71HovI0PH3xfutbuZ4tOn8q3cAeecBcD/nmB0FeA6v4uvr2Ty4JGuGRQN7ZJP1rIL3WvP5UX7qBDnZjIFdbp+gQwwgDAY8k9a+5jh12P5mxmbYirUlKpUbb31OKaDWr/AOeTIDfhUsfh/VJhgSZ+p/8Ar16vDpkYQLkMa0YdJVU+W2yD3BrojGKPLczxGXw/qkbEAbj7Gqay6jpzYIZfYg4r346VuP8AqDn0rHvvD8MgKyfJ/snrV3S1F7Q4vwn4yvdE1OC+sLh7K5R9yFBlSR2ZejA+hr7Y8D+NtP8AiRazWcQig1wjdcadwsN2uOXgP/LOUDnaOp6V8M6z4Ve2UzWmcKM4PFZeha5d6Tfw3MM5triFwyTjgxkdDx2og4SfLUV0enlma4jCT9th5WZ9/wB5ZLZSqY5POhOVV8YOQeVcdmXp71NpsTzXaRJ97cMY+tbnh7xXo/xQ8BReJ0RbfVNOdLbWLZOrxgAR3aY7Z+/7Vzzi50vUP3TkS27BgfXByDXxOa5cqVVunsf1HwzxRHMsH7VfHon5M/azQ4PCmpeHNGfXo447qCziiIkADbVHB6e9aP8AY/w69IP/AB3/AAr8ox8R/GGpKt1cXs0zEAAg8AAcD8KX/hN/FP8Az3n/ADr1PaUex8BX4cpOcn5n/9H4fvX3SW0gxzL/AErS2t3rMuUAktFPOHNaRPzYJr87UUf3JPV6CjNO3kcUhfjpTM55pNGTZZU88VOuMZNU0Yg1Y8wdKZKZPuHpS9agyaeGwMYoKUyUEDrzUilTwAB+FRblwOf1pyOorMpTKV0gbVLIDqNx/CtAI25yBwaqOC+p2j+itWhGcEj1pMhVCSNcqF6VOqkDFMT7oan7/asuprCWpLb7UnUzECNAWY/TpXzN8RvFU+sazIS/7uFiR/wGvoHxDcfZfDd/eZwUAHucntXxH4kvDBbT3WdzSPheefm619pw1hY6zZ+C+MWYNSpYVPR3b/I4i9lfXNXWKIFlY4PsAa9n0HS4tOtEjiXYwXB964bwVY4X7btHzkgZ7D8a9SgXMiIp5PFfYuVz8NaJ0j3AZwMc1rWOh396PMt4xBCBl7i5OyJcehPWtCytNNtLOTXdcKvaW33YM4eaXsB6Ad68l8c+LNY1+YRTy7YkO1YV4iReygDg47kjNZNlpaHdXV14WsHZLnXWldDhvJiO0fQ45qnbaj4Y1FxDY64YpXOB58RVPxbtXikcGyIGR8M3qeKayxRAE4KjnNVDR3ItqfQV7od7YwJcXMXmwngTwfPH9SRWME8vKr0UYwOhx3/GuM8L+M9e8Lur2xaaxuWCywP8ySJ6YPAPoa9w1DRdJ1HTYfFmgh/7FuyEYMf3ltPjlHHcelXzg0ec39nbanatbXSBuPlJ7V4jNb3HhvWtinCFgM9sZr3OeKW2uJLVzkxt1/ve9cP450wXNgbuP/WIRVJiUj0z4X+ITpXia0dXwlyy5I79iD619Q6jFFDqdykH+rJDLnvuGTXwX4RnmjitrqFt8lvIrY9MV90WV6NV0ixv15ZkIJ9xivkuJqK5VJH7z4MZtJzqYVvTcnHzdKeqnNRpkZzUwyBmvhGro/oZWTAqcUir61JHy3NTEAioURuoVCvze1SBVFO2nPSnbce9TYamMpCM1OIxjNRkYPAqHDW5XtCGinlD1puCfaqsPmQ1hkVFtFT7GPelERoaGpkTDMBjx15pvlnbjOOKsNGwHFKAcc1n7Ir2xRVSo5qwWwvBqVkweelBQEYxWfsWhe1KElwyEovzU+KRnxuJFTeUmc8c+lHkjGFOPrUuDHGorq5xHwx/Z4b9pP8AaYHg291CKw020hjnvN8gWWWJeqx+/wBK6f8AbP8A2LrP9mzxfoniTwjqUc3h3VbuOBLaaXN1HIsi5wvVl561xeoaFr+n+OdO+IfgXUJNG1zTXTz/AJ/LMyo4IwehBA5BrvPjPrvib45fFLS/iF43uTHYaNZwx29oJCQ0yDk45AJJBJxzjmv0rCY+gsIm30P5hzzhLMp5zOUI3i5XuMlcKo42jA4HQHFVlBPzDoatgNN80ow56jsKd9nr85q07s/p6lVSikUsGmENn2rQ8jFSBFA6CsVTTLdcytpIp+0bHJ9KvFBu+7UbRbhIAO1b0VZGcqpUHIBpcD0qZYiAAVJqwsfA7VpJESrabGfsOSaTad2ACxHYc1piMA8jmleWWVmitmW32AZYD5mNSZuoZ4glbojAt3x6VYRdnAJ4/Clj/tbzpFluW8sfdI/rSpKWG265kBPIGM+nSrsZTkKc+p/OoGDE9TVrANG3PfFMnnRWUEc5NKzc89BU+wd2FRyBkX5SAfpmrMpSTdj51+KdvAPE6NcsxeSFNq7sDHPNeSWVi1xqSQRO37x9uAx4FfXWq3vhxrmF9T8KrrrJ8ru8pSRR6DtiqUMvwT+1R3Nz4T1XTJQ+4tFKkgX6CvpsFKEqOjPy/NMNOOJ5rNq5qWdpHpVnpmnRjKLASc/StNIyzxRocFztUgZxu70l/f6Hql6snh8TfYo02x+eNsg+vWtPT3SJ2upsBYVLEHoMCvIk7zsz9DoVFCk5vscX8YPFVpoeiw+FtJk2zzxmH5ScqpxvYkdzwM/hXwxqUsmr6ounwHbBENnyjA9zXqfjvxB9p1HUtUdt4UFY89Mk9K4bw7p3kr9sk+9Icj6Hmv0PB4ZU4JRP4+4pzyWNxtSs+9kbljpltZQLDCnTqR1NdfYaQHUS3HyrjpTdGsGmYTMPlFaGuatb6ND5t2AzvjyoVPzO57e3rXVOp2PnvZ3JHt3iRjDEEjQZ3twuPxrn5da0yJj5urwqV6jdwPyqSD4d+N/H8wuby9GnWb/MEfISMe4HGa9XtPhp8PdOsRp9vCNUuEUJM6D+LuRmsnI05EeWQ62JnxY30FxgdVbB/KtFruC7CpdsI5+xHQ1op8FfCs19P/ZeoT29wufLjdcYJ54I9K871F9Q8I623h7XgZ0ODDMRgkVpFXRlOJ2NxaReWUnO8t0yK8m8T+HdrfabQfN1IAwMV6zDcLMgRzuJ+6f6VUvLcA/vRuXBzj09KdjNOxy/wj8d3nhXXYpQzPDcqbe6iPCSQngg+p9K+q4r2XU7Rr5WDRB9gxywXtn8xXwtrNkmj6orW4IimAYeoOea+ofhDqN3rV9H4dSUbr7ECM2Nok6r7ckYrzsypc9PzR97wFmzwuMsn7s+h9e/DjToLrw0s020sZXxnnjjFd7/AGLZei/lWT4H0KbTdKm0vUF+yXFncPE6ODnOFOR7HNdl/Z0P/Pwn5GvmbPsz9hlC7vf8Uf/S+ILj/j4tfqTV1m3vx2qrcAefbnoATUu7Bznk1+exknsf2zKpZ2ZPRTA4PsKQN6mqsR7UmXrTqjzipACcZ71lLVlqaLSnOB7U4c1CrbefypxkA4xyaZaZPsFRMMEgVGJM/Snn1qeUammIH/0+2B9Gq+GG7NZTHF3bsPvZP5YrRBzSaIurl5XGzbTxyBVDkHHr/OpkclcE1CiHMcz49kki8J3ew8HH6Gvi3xTzbxIw6yZ/lX2N8QJP+KUvADnpXxr4i+/aqehfOPyr9A4c/hs/nDxdk3j4L+6vzO68PW8cdrEsYwuM13Vja8ifH3eR9cVyeihfKQdgtd3p7YsWbrgj8q99n5VFXZyPiue9GmSC0TzHQcKTjr3rx1xNbwotzneclu+CT617d40ZdL0lr253Ijsqrx3PP9a8lltxegzvJsRRk9s1nN2aOmqrF7TNDfUoPMumwvZRnOPXird14Uj8hzBGQUBxznrXpvwxj0WfxHpltrkiRWkuAd5wpPua7z4yz+FtP1yLTvDKoqxp+88hsrk4xkj8arkVro5z5Zja8mdNKn6oPlHT9a92+CmoRXN5qXgnUGP2TVoW8tW5K3Cg7WA7Z9a8P1ueS21pZIuWHBwc5zXo3wtmuI/FVpqbL88IDD1wpzSjK47HUatZvGMvxJBlH+o45rjtQVZ7aSCQZBB/SvTPEEgl8+dRjzX3H6s2a82vARHIcY4NWmQlqeeeEZHijuoxxtbH619veCmkbwnYc8YNfEHh8hZ79cceYMe3rX2l4JnRPC1jDcyCEYJGRyea8DiGDdJH6n4ST5cwk/L9UdsMjipAM9eKqiS1AwLtPx60fuTyt6n4n/Gvz/ltHU/qH6z0LeNpz2oD56cVVAj/AOfyL8xT9qD/AJfYvzFZsuNS6LYbimFgPeq5C4P+mxf99ChYwR/x+R/mKlop1Cx5pxik8z1pi2+7peQn23CpRbP0EkbfSRf61PKHMiIsSaXcKUwOOskYx/00Sk8ps/6yM/8AAxRyhzIepyKkBxTRDJ0RkJP+2KsJaTsP4M/760rDuVixzRuFTPburbW2hu43Cj7HcHlU4+opDK7MDzTN3pV02c2PufqP8ar/AGS4/un8qAIePSkpxt5u4b8hSiCYDhGP4U0hN2I2jhm4lG/HTikWCGP/AFYx9amMcoP3CPoKh8u4Y8Rsfwq7icurH/QCkp6wXOOY2/KgwXI/5Zt+VYtDVWPcjbpTKmMFz3jb8qT7Pcf882/KseVor2ke5FSNwhPSrLWtzj5Yn/I1VMV3ny2icZ6fLThKyE6i7kvpTjg80fZ77H+oY+4FHkXOMmNwf92rUr7BGS7kUhx83pVKMj7VLz/CK0XtLp0wY29uKwJze295KVtXdCoGQO9WoNmFbExhqzW3dR+NVSCH3+lUlutQz/x5vgDFW7MXtxu8+3eP0BFaKmzhhmEJvYsFieaXn1qz9kn2g+Ux/A1G9tcpjMbD8DWdzq5okYGaHGMH0pwSYcGNvyNBiuG/gb8jS9p0MpyVtyhLBDISXQEnvgZqsbKEnIjDYx04rV8ib/nm35GniJ+0ZH4GtosyiovcxfKWIMFULzWb4kvHtPCupSJ98qAD3Hatq4Uo7BhgseM8VynjQlPC+oqOu0V24OHNUijgzmsoYSq1/K/yPj7xHiW3t7VlLmSXd1xwM1vaZaSbEi24CgflWBrUpGo2FuOhyT+dddY4FxjtwK/TYKySP4tq3cm2dxBGtnprOfkVRkmvLrDT73xt40jmkYJY2jqWOcABPT616d4kfyvDMpQZJUdK88+Geqxu89pGhEpILH1GaiZpE+idU8WS2cLRfZ1Nkq7I0PHTgkjnmvGo5fE+sTyr4fidZAx2JF1b6itfxB4ji1i03BfJEJMRbG3djqa9D8O+J9J0XQIrjQbbzNUhwrTP02nqcH8Kg1jC55JB4m8Y+Gr5Dqx8ppflYOMsCOvNdxqukWnjnSUe9RnuVTfazgYwRztJ+tO8Z6nb+IPD4uLy2jj1LeWEiAfPmue8Gp4gge0nt0LWYYiUls7SfStIy6GNaNji/D16xh8ifma3do2+qnFdhKN8eTwK4y1glj8Sa3uB2tNlT7V27gfYh2I71fMc7PP/ABxZJcaH9pjQGaF+cDnbXl2m67rOiNusbiS3JYOpGQdw5BH+Ne36vbzS6NdzhflTAJ+vfHtTvhl8EvFvxgkm1G2khh0/TGWKVpTtLcZGAKyrVIwjzSdkdVBPddD7F+A3xP8AG/iHwGNR1aOS7m+0yIJWj3F1VUAOe/pXtH/CZeJP+fRv+/P/ANauk8I+G9U+GnhjTPCYtIQIIQ/yQuwO8k5zjmuj/tvVf+fVP+/D/wCFfIz4iw6bVvyPdeKxP/P0/9P57T4H/Eq71BNNi00G6iOCgZdrFuAFPeote+D/AI48LLI2uWLWogUNIWIA464r6u+Nmp+MtN8P32j/AAy0uXWdctN1zdTocJa26kDzQe+D1rwfxj8SviR4zfSpdat0k0x9PAZ5B5WdqfvSMjLscdBX5nHFzk4tQVrn6d/xFXMZbxj9z/zPH5PDZtXjhvHVJZUDRsZFCuDzwe/WtiD4aa7fWn9o2lnJJbq2xmV1bBPIOPQ14/q2iaj438TeE9K095LfS7eJmjZ8r1cks7Hp7A9q+qPDmseAtMTUNGl1KWK9gRxbzq5BleMHajx5xyehr3OWNtiv+IoY6+0fuOBsPh34k1OxOoWem3DWyyGHzAMqXXgjH1qFPAfiOWea3h065aa2GXBQdPbmvf8A4Sa14zl+H0EuqarGkZupHlhlgKMrKcgAjqCP4vWvSpriZ/E+l2L2cMB1Gzmk8+J9yQDtvJ6k9q45WT2OuPiljVvTifHc3gHxCirLJp9xFCyghioxn0yTUDeCNbSGFjazNHMSAy7DnHJ5zX1n430uyltrbwDppluf7TljEMjFQDMc7l45C9/pXyJ4o8KL4G8Ty6Fcx32rXels8SRRymOFJHOG+7yfxzWlOKl8SsX/AMRVxf8Az7j/AF8h0vhPVYV3m0nAAJztBBA9OeTVhvCGqRSx2k1leJPKAVBg7MMjvVGD4lWFp4i8PNe2Bjt9JfdqFkCzeVtPyqzk9+M5r7x+GXje8+LWp2F9cNDDq1xdmGCGKDpAi/K7n7qxoO5rKvVp0/sm8PFbFdaaPgHUfDuqadPBNd2lwsW1zuMLLz0GetKI9NT5LjU4oHHVGBLA+hAHHUdfWv0M+IPjzwrY6Br8mj2H/CQXug3wtL/7MwMS5bhlbGMeuPerPw3i8J+DvEVve+B/Bi6vrvjyFJ76e8gW5t4UiO3MQOQOEA475Nc7xNFK8ky4eK9W+tJP5/8AAPzuRtEbKnWISR8pAViQR24HWnsujRqWbWrMKOeZADg8ng46dMV9feEvH/iGw/aN8b/s9eFtC0fT7bUFN7Jey2K3U0Ty8PsUj5QMnGOlaGn/ALOHwJ8LfFgGw0VfGtvbwrb3lhOxYtqE7+Z5xPRApP3B2616lPDUXTU3pc2XivKW1H8T89PiD5f/AAjd3HFMk5YAqqA5PoQMDIPrXxtr7SvdWsbKcqScFSvIA6/jX79fto+B/A+jWdhr+t6ClrrulxxafaQWKFbZoGGD04LKD1PevJ/DH7P3wf8AHPw71O1/4R+4069slXy76dsFzIMnH416GXZvSo2hvf8AA/NuLs6nmOIVdxtZH5Q+H53kgV+u4Y+lei6ITIktu2DgZrk/Eng/Vfh5r8/h++ZZFgdwjqc7kz8pwParumX32W4WcEheM/8A6q+zjNSinHqfKRi0z1XxXoGneMfCsdvIpCthjs4ZZE4/LgV81axoU2myNYn5cHnnnb619RaTqMNokcmd9rOMsMfdY965Pxz8J7zxLc2/iLQbsQygYZPvKyg9fb6Up02zaqr6pnz49wmnBYjGLuJhwCeVqCTV1uJPLSEo7cKXbIH1Jrt/FHhKTRYvtmoRncnDBQc/UYrmdB0NfEZMul2rzOmQVKng598ZrKKexlysxf7KuIJ2kmCyytySDkD8q9q8EaHcaZp03iKU5a4Bgt/lxknvW54Q+DGu3WpW2reJ9ul6HbDeVcbWmP8AcBPt+tekeINQtbu4huraMW2jWSCO0iIwxK/xkfyrRR1Ha255l4gkFmptWO5lwD9QP8a86vJ28qQp1wetdFrd0Lm4LFs8nn2zmuXvIJLyDyI5EgMny+ZIdqLnuTWqaMLanCaOYo5LhnJ/evu/Gvsfw2un/wDCL2E0oG4KeSe30ryvT/2b/Ed+9uNP1W0u2kjWQiKTdhTzlsdOK9G8A/s9/EPxlI2naJrtteCzfy5reEkyRJ2JHofWvAzGtSqQcHLU+v4TzuOAxPtnG6at+KOmNxogUH5ATT1u9IAwSi59q+r9C/4J5eM3SxbV9ZSFbv7oJwRnnrRdfsMixeSPWPFQ01/MaKIzJlJgnUoenFfMPAQtdyP1/wD4ixQX/LpnylFPorjduGB1PFWBJoh4LL+n+Fe2+Kv2RfD3hjw7F4j/AOE7me3uX2IYrcSRlwcbd3rnoK1PB/7Mvg3XtRk8O3msXt5qsUKz+RHEIneEjJZAxGSB+dcv1Wm/hlcuPi3h1p7Jnz+P7DbIRwcd+KkA0ofxL+Qr6f1X9n/4ReGrWK6EOrXNhFJslncqm5icYwD/AAmvRPCP7OPwc1WL+0YUvJUaQBFLbgUb160pYOC1uWvFrD/8+mfDB/sdyVkaMn3OP60gg0Tts/p/Ov0DvPgX8CdFtr108Ofb7jeE3PKykdORj8a851D4F/CRI1uLjSwnmt9yOdvlHvWSoQLXivQf/LpnyAINCPRozz1yMZ9OtWBb6FnO9Of7rD/GvrGT9nv4U3WmSQWeikxyHcZPPOQffFedXfwE+G9no097Y6FcXdxAW2xxzH5selXHCwezCXivQXxUmeO/YdHdcBgM+rAf1qH+xtNcna/A9GzXus3gX4Ox+FbXWpPBN3YzL8s8VxdlXyOrjpx3rmNJH7MV1O0GtWN9pECxyy+dFcM75jU4TB7E4rRZZfZkrxiwd7OnI84/s+1RAIydqdSCe/1qu+l2snJ3EjnliP619N6N8IPgV4kutFuEu9R0XRJ1D3s3mmaR2x8oQdge/pVzx98CPgV4c8ET+OfD/iu+vUS48oWzOu8FuFBGc9acsntq5G68XsC/sSR8ptpNo3LFx9GNL/Y1nt3b5P8Avo/41yer6R4i0FoboXAntXciVAcvEG+5u98da2NP0yaLUMa1qLPZKMuLYo0qhuRx615taNCL5XUSZrHxWwHVSNE6HZseGlz6b2/xpo0OyGVMk+f99v8AGvTdH+Hnw41UQqPFd/azXSM4d4lMagH+JuMVuan8KPhlb6e1xp/jC+kuBtXmFdpPdhz0rmdfDQdpVUW/FbAW2keMHRbV8kSzD/gbf400aHGqkrPKP+2h/wAapXMPhe18TxeHr7XL7zJDhQkceX+hr0Hxb4F8E+F5tJX/AITG6uTrIXZAkSNLGTxtYetdLqUIv3pbkvxTy9/zHGf2M6c+fKf+Bn/GkOlhuDcSj/gZ/wAaoeJpPC2jSyJb69fEFjGvmWwG2QDlTzmtjwjpHhrW4BLfeJbtyF3ERW2Dn05q1Tp2vcX/ABFDLv7xT/shc7ftspPpvP8AjSNpMS9byc/Rz/jXoj/D3wZ9ogW28SXYaRxG7PEgwzdAc9zV7VfAXg3w/rOm6Nf6zfeZO2JCIkIct0VfelGnSm+VS1J/4ijl3eX3Hlq2KqcC+mI/3z/jVj7OEXi7lX33HJ/GvtzVf2d/hlpngm/8TDXJUNlCspWcoHycEIQDwT0PpXjHwW8B+C/FcmtW/jHVf7LtrBUuC78/upB8oz0zXX/ZXmZy8Usv6cx4Sbdc4+2TH1y5qTyBgBbuU4/2jX3/AAfsoeAdRjhvdK1ua4hvCCjRqGQA9yR1r4Y8X2vgPw54x1DQ7TXLlk0m48u5Z4AEwpwcGpeW21IfihgX/MYfkXG7H2uX8Wq1Bbzx5xdvz15p6WvhXVrl20jxGLm2m+aNVULKqnsFOdxHtXRr4M0aO8ext9dlPlqDmSNUckrkDaf51zyopOxL8TcA9+b7jn3srtx/x+OAfehbDUQCUvpCAcferq4/DPhG08MS6/r3iSa3fcwjtoow8rKnDPgds/pWXaQeDrqGJ9N1+8EHy7pZrYBSTWU4JP4iP+IlZetk/uMQ2V75mH1CU4Iyu7NT38NzDhftzhR6MK9Rg+Huj3M0d5BrcrQXcZ8z92B5WP439B3FS6z8G/CvhvxRo1n4n8ZJaaRrSEwXhQMSygHDAdM9qlU473F/xE7BeZ435NwQD9ulB+v+FMMN8BkX0hH1zXuTfCqz1CBm8Ja8t/KuAoki2RkbsFs+mORU+q/BXwzCbW1k8cldTY4nhhg3xo3cBu+K5pqHNuP/AIiXgXu2eCbLrHzXs2faq7wXQ6X02D7mvo/T/gR4furyKGTxbKsQbEjGD+Va2qfsl63qlsNU8L629xYoCS7qBkDuR2r0aOH5vhdyl4m5cvtP7j5TNsR965cnrk81zXjFJk8LaiTKZCyg/NweK9u139nr4iadbrdafMbiCViEZ1wxx1IHcVzdl8APiN4wvJfDTI6bo9zMVxn8frXdSjGlJSm7HJmXiFga+HqU4PWSaR+dutT+XrNk8g5CsP1rt7GQGQSDjOPxqv8AF34eeIvh74yn8P8AiWFlns8gccbeuaz9LuVuLdCDygAI96/QlNWR/Pc42PYL62a/0OW2PIZB0rwrw7dLoGrOCNpVj19jxXtmgXfm24ilORjpWVaeFPA0fj3Tr74jx3kvhV3zejTyouduOChb5eD605U2VBl7UZItd06GG0shEYwWEg7lq4aMatbSH7PGUZMjpj9Klk8Q6ZpHizUNH8B/bNQ8O/aCNON4irdmHPAZV+Ut6nNd5PrH+kw/2xaPZT8HZcIYiwrF6bmibRyFs+o6iUhcM9xn5RnC11gubnwjYXBupAkaDc656sR2rH17xT4dguvOik8gJ95UOST7GuJ1LUbjxS8MSqxiT1B+Yds1PMiZalrw7cS6hcS6jg4vJCdp6gV3s+I7TB61Do2mraQhgMDAHT0qpf3BkkZT90fp71tSVzKUTsfAfws8X/F29u/C3gmeFbp0G8XDbI9p/wBo9/QV9g/D/wCDOufDSzfwncM0erMVW4fdtjE5XGIz0247/Sup/Yw+HNlb+F5vHHiK4+xq96Xt16NIqAEA57Zr7F1658I+PPDF5p2tXMdndXh8qOYsFmXBypUDqa/P+Jc0qTqSwsXaPU66UFyniNjrvxI8J6fa6HdLDetBGCJJZkdtrEkDOe1Wf+Fg+Pv+fK0/7+J/jXO+J/2flttTEV14gFqRGm1RvfcuOGz6n0rnv+FDWn/Q0/8Ajr/4V8F7Ol3HyLsf/9T7g0rTfh7pV59vs7XUI55I/s82JF2yw5zsZcHIzzzVHx14O+DHxAgt7HX9F1F7exJNuUZYmQkYJUKvpVlYFb77vnOfxqytshOTIea+MeEpt35TQ8kT4J/Bq2kaSHSdRlDAACW4XC49PlrPuPgH8Frybzl0S5WbrvEihs+udte1yWsSrgtuP4VnNmP7preC5VaxLOAuvhF4Qk0qTS7SW8sreXj5XViQOoPy96mX4ZeCYIgjLczukYiH7wL8gHT7vSu3e4kCnk8jnmsaW5nJ27cg96rlXYpNnMQfDfwXZapaazb213bXFixZMXG5cnjOCp9ayr34a/Di98Ur4u1XTLuTUMASPDdbRJ7kbMZNdgZ5wSD0qFp05DHGe1OMknew7mHc/DD9nq8ttQt28EXXm6qwe5lN588jDvny6v8Ahnw18OvAthqlh4T0u7sv7Wga2lna6DSpGwxhTsyPwxUzTxpgjmq0t3uyMcHtRJxlvEOY5CP4YfDmxgbT9PtLtLS4hKTQiYBZSTkyONvLHJ5Nep+FBoXhLTrK00GCaJ9Pga2gLSruSNm3EAkfWuVNwBztqSO4zx05zU+zha3KPmZX0LwX4L0X4n6n8XLe1uf+El1O3FvNOZQdwHcALwe2a7LT4vD2m6gdUsLJ1uS7zvIrbWd3HJY45x7islbg4HOSRikMzcngds961dRcvLYltmR4v8MeH/G1hFpXiJ7rUrRboXm15+d56rnbnFdzoL/D3QtITSBoE15b5G9Huj84HUngdO1cyZSTnGaTzpOuOlYQtHWKGpPY+aPiB+yh8MfFuqTanpFvcWG9mfLTlyA5zgHHQdhXFQfsReEGyBqNwgPfd/8AWNfZolfHIFXrSZh2FdccxqrRMaimz5Htf2QNHsF8mz1dpI8dH56VJb/sujT7wT6fqzLEfvoeUOfavr1/3nzdCOM0iWpAOCBml/aNf+Yv2SPmL/hn3TCD9rlVieoCggj3zTov2f8ARrbIsJ1tWP8AEIxjPuAK+m5I14DEAewqu3lj5dxI+larNK/cnlSPlXUv2Y7fW3S51vxHPOYjuSEpthU+oHesXWP2RdJ1lML4hdm5PC9R6Aegr61uh5p8sMTn2poQxkMnWj+1K/clxTR8Gv8AsP6ItzvvPFEojDZZEj3Pt79hiulT9i/4RXayWOr395NZTR7QQwRww/ixg819o7lbO+NWPuP61YEGnyndLGN3TpQ8zrvqSqKPFfg98APgf8IU1s6RHqGoT6tAsW+ecEpGn8K/LxzXsHwn8HfBP4V+MNS8a+GdOujf6wAJg8gKOFXAGNvHI64rWis9JQHEXP0q/Y6RphcMqYwPSuGfvS5jWEEj3T/hZeiy2k6waOxM6jhpNxT/AHTt4rmtf1Lwh4k03TrC80eaT+yJGmtz5uRucHcGBA65rko7a0jXy4sqParCWsPUsW+tY1pKzi1ozWNNM5HWfAXga/0iHRINOu4tMgdpo7bzvkWdvmZsYPfpWXY+EfD+l65H4mhgkn1aABY55Gy6KBtCjAXjHrXoc0aKvFZUqJtfjHB6daywkIxjZRD2aucJf3fhzwdoGoar4hh+16XZLNczK5yFP3jj3Nfn5/wvL4u6m154i8L63Z+HdGaSSSzsYkzNtBwqHI5yPSvsT4/+H/FXin4YSeFPCFt9pvNZvra1uAD8yWsjgSyD/dXJ/Cvhj4laHp3wg8Wah4EuNYtLqGwZfsLovzeUFH3zj7+evJr0KVNS6GdRJH1l4N+Num6lZlfidJCpaJGSWMEOJe4cY6Guxi8f/CKMG9nvrVsj7rc1+Xl1r1zcTbIS0qkZJHQ1t+GtZs9UE2kxtHLeI24A88dxW6wEH0OVTdz6s+Nf7YWl+AhFpHwr02LUrm8BDXbJmGMkdDjHI+tcb4M+NXxX0a2s9f8AHc1jquh3gXzUt4VhuIVc8yLz8wWvB9VtdGk1GPw1qKNbQ36sSxQfLKPu4+prA0nxjqGm7fBviXTZLuUS/ZLOODiSQtwnU8AnGameEjT2R1Kjz7s/TPX/AAxpfjO3tr46l9t0+8RZIWDjLq3Tj2NcJP8AADQ7yzW1aPc7q6s5xlg3TPHaun8DfD7xF4Z1Pw9YeImWOTT9NMkqRnKRySEkQj12jH417pH1Ht0rF3voc/skmeOaB8Pp/C/hO18K28qvZ2qgBjy3XoTg9M1xNz8E7Kaw1DThIJYdTnEx3tzCy9CmAOtfT5AYYbpTorKEgMCRzzkdajlV9Vcs+R7b9nTTdP0e80+GJpZ7pifPaRj246jHFYtt+zJZwTefBctBLMymVg3DbRjrX2z9khGQOM1VkiVTgLkCsqmFpz+KImfMMHwMtfsttZzXRWKF2yoGEdW65FbNz8FNAudFWyS4e2vIW3RzYGwAdiK96KjuKgnGQMCuSeS4WWrgCqW2Pl/xZ+zp4T8T31tqiQNZ37bTcSxOQrkDnyxjK/pWpZ/AvwrZalb6xcQTXN/p2DbS7yShX1yK93J2HdjmmPIrdAAaayjDqzUdgTPlvxv+zfovijU7nVbO9ntXunE8ig8CbGCRkd+9R6H+zhpGmaVPFFql3DeSfdeMqFA9xivp53GRyfxqF5OMCt6eEpRVuULHhGufA/TNftYze30wlWIK+w7A7pja5xj5uKxtV/Z+XUdastRi1meGLTSHtxIxZvMxy3rX0Sso5zz2oMm0gkcjoaunh6cZc0Y6ku/U8Sv/AIKNf2t/Z3+vXd0dT2mQMflVlOcj/CveodE+H8fw5b4dTacskUlslvLcEASSbcYJPXg1GmyQZOKl8oeuK7PaN9Aidj4b1nw54X0PTtB0yCdLe1i8ttp56Ebj+dfG/j79mbSvGniS/wBbbW54LW/kMrQoinJPBy3U19MCKJTnOCakChehyP8AGhzfVFniPwc+AHgn4WXFxevu1e5mTyUknRWMMZHPljjB/Ou88UfC/wAGa/PDfWJltLy1Qxo6xIMq397nqK7QlSMHijeo4rlqYanJ3aA+Zbz9lXw1KXnh129e5LE72TOBJ94DkgCrel/sw6JBfxT3fiC7eOIZVfLTaxXop5r6XFzxgnJpfOHp71CwdLrEDy/T/hhpmny31008tzLqeI7hJFAXy1+6qgHHFcPefs1eFtQ1g6peancy26gCOBwX8sf7AOQMV9FCUN1FBkVQeOvJp/VaX8i/Edzx+x+EFlZyqE1q6+z2yqEXYF3Kp6MBXqlrpHh+1UPvVmA+ZTAvIbryeeanaVCSeAcVTacBhz7cVjLLKD3gQ2VtV0S3lvxfaXdeTEqg+X5ahfTGOelZmt6DNf6c9hpWqy6Z5nll/JJCvzkjGa6ISBhnNOiAMo4zg1rSwVKGsYmcpFfU9DtNR/syY69PbS6dFGvCHGM/N145xXYKLaIzz2GpC3uWAWPAyPLHXJPQ5rH8jfgqo9OlPjsGPDAc11VKNOe8TWlUa1Plz9pD9nTTvijLdeINH1WFdRlhUbZFY5cZyc89a/PCL9kb4vadvjRIJiWP3Wxkdutfto+lg4O/GO2KkXTUdssq8ADOK76WLcNIoip7zufjLY/s4fG6wG+10MTMOwfrXVW/wS+KE9ubbUPCdzIG+VgdpH4c1+uLaYg5Viv0qI2+DhgSB711zzWa6L8SYRPx8uP2VfiZO4vdL0SWKWL/AFbblWSP/dOeKyNW/Zl+Nl6Q+t2d9ekDb87q/H1zX7KSxR8CMDPeoDDJ/CgwK5HmU30NOU/FR/2YvHAKi48O3JK45KD+YNdlpnwK8W2IBl0G6kkAxjaBX67eWe+Vqu0CkkgkGn/aEuwWPyavvhH8RPKKW3hq8b0ACn+tJ4T/AGbvihrXiCyj1rQrix0qSUNcyt5YKxKcnHzdxX6sSxy7thlOD/KqL2uDuBLfpVwzGdmkibXM3QfCXh3wdHeT2L3N3ZzxLDaWDouyLaoBcEEck89a890vwU9ndXt/e3Mwe53+WrLv8nIwCAD2zXpEtngBlJyD0zUQWaM/fKj2NeNPAU5X5ne5tzWJdE8V6lo2lW+la/ctrFzaqUFyYBlkySoOeeM1qf8ACe23/Pof+/C1lhjj77fnS7z/AHz+dcH+rGFF7Vn/1fsAas4P3TUg1h8fcP5VkPaajbFVn0m+Ut0zbyc/pTgLzDb9KvUUfxfZ5P8A4mvnvYyuNzVjaXVIyMtHlveqr6kPSsdrtVIxFKp77o3z+WKqzXkijK2k0memIZP8K05DJyN5r7cvAFZ09+8S8AGq6nUJFyNMuOmc+S//AMTVGVriQiP7FPv67RE+fyxWXsmaKoNlv3cE+WB+NVGuXPIX9KkGma3KC8ekXzJ6/Z5B/IVBLa6jbYSfTrqI/wC1C4/mKUsO9xuaIWuGycqKY1w/bjFHkznk205Pb92/+FSTaZqsYDCzmCsOpjbH8qlYefQOdDBKTyTg04TYxzVNlmjOGjcEeqmgE9cP/wB8E/0odCZXMasTknOTzWiCCvWsCOcIcfNn2Q/4VYS4kBJO/H/XNv8ACs/Yz2E2aokC8ZpfNHrWYLiI8sG/75b/AAoFxbE/eP5Gm8K1uwiaJnx3qW2ucPgc1hyXCAfu3/T/ABqFGu2YFEZs+g6/lxVLDOwvapM7j7QgQktjnpT4byE/KW59a5ePT9alcKllPIGGQFXdn9atRaD4w4Meh3r+/kE/yIFNUGh89zWnukbK54qMSqRmqreH/GwGT4evsdeLf/7KlTRfFaKWbR7wH0MDZrp9k7HPzMeWAmVuoq1iEdMCmpofi+VcJ4b1Ft38S25NXoPC3i+RNyeHNTLE85t8f+zVDpjjLUrbE/hahVVf4s10Fv4M8dupZPDd9wO8IH/s1TDwR49/6Fq9P/bIf/FULDvsbqb6HPedEnLNj19q1LS7VgPLO4eoq+PA3j1+B4YvGPoY1H82qSHwL4+icE+GL1VH91E/+LrP2DW4e1lsU7nUGgBzxU9pqoMY3vkVz95oHxJvbl4I/BepBV4Dsi4P/j9Tw+CviaoWNfCmoc/7C/8AxdV9W8hqrI2J9UTdjNZ8t/vBwa0LfwB8Tpb5LCTwpdxlwD5rbPLUd8neeao3PhzxbZSyQXOh3i+WcNiIlePRhU+wSHzmfFcSmeMxuyE5HBI68dRX4tfEHwbrOvfEXXJIDJqNxFeytJwzsoZsheOB7V+y08N+MxLZXKOysvK7CCRwcmvy3+Jfjbxf8K/FE/hDQLeFLm7/ANJlnfBkllJOAzHpiuihTSZEpHn15od94TtMapC1pLcxkIj5DdPSvN/DcdxorPewgtcPnBHBBJ9a9A1rxl4h8Qwo/jJAblPmLqQw56AVwuoajLcRlYCIFPGQOTXfDfUyJdb8WaxqF1azXRWRrNgM8ZOPWvs39l3TNJ8X/Em88S67bRSX2m2atZo43L5ufvc9wK+BFmsomW2yWdmAyeuT7mvoP4d+LdS8E3mialazeTI1z5cmCBlCOQT6VyY+N7HTRnY/Wq7ud8puJMvLjg/XqfzpsNwDXBeEfGd1rnxQ0jwBf6dFHoviCwa5ttXM+1I5o+ZIpRg4wfu+te1xeBXbTk1C01vTLqGYbkKTtvOOOhUY5FcnstCal07nNfagOtL9tJPFXV8MaxIWCohYHHDggj14FTr4R8UMP3elTXAH/PLLdKXsmc85XZni9Ix8g/Oka4ZmyvT0qS50PXbL5rvRrqAH+/G39M1WFrqrrlNPuHB/uxOf6UeyY4sGlHSqktxjgVdGm69Jwui3hP8A1xb/AAqtdWOqwYM+j3aAjvEwGfyo9kx3MiWXNZzXODwBWqNN1q4JEOi3j467YXP9Kjk0TW4+ZdDvUHqYW/lij2TK5jKaQnnOaiL55qZrLUi2PsU6+xjb/CpItG1m5LLb2c7Ef9M2/qKl4aSKU7lDNDurcCppNN1S2lKXkEkXHRomFM+ySJztY/8AAWpcjW5U5olhIUccVZ84etV0jlA4iY/8Bal2zAcxOB/umtYROf2iY9rjnA/Wm+efWozGzD/VuT/umnrECAfLb8jSlSb3BTEMxPcU4T8dajaCQn5YnP0WoXtbvOUhkx/uH/CodAOct/atpzmnre7jjPFZbW9yPvwyEf7ppq28qNnypB7FWpqiHObZn4zmqslwfWmLHMynbE//AHyaoSNIG27GyO201XsmHtUXGuSi5zVc3avyTzVOczhCfLOPXaaorv7xvz7H+tLk7g5aHRR3e1fvVdt7xBICTXLBpFTIjb8j/hU0cuMKwIY9AQRTdNkJ3O+jvIs/eq3HeI3OcVwscpDDIOPxrTjuoB0fAx34oVFsuMrHVi8VTkEZp636jjIrn47ixIHnMBxnJz0pGuNPB4lXP1xQ6LRfMdG18pHWqEt+tYxurMr/AK5R/wACFU3uLfJ2yqD/ALw/rQ6bZVM3VuEbrVxZFK4y1cj9ujQf69F/4Ev9DUkepIzbROD9CD/Wl7FmjOocArwfzFQFR2IP4VV0lNT1qb7NottLqEm7YfLQsob0LcivWrX4KfEW5EbTxQ2m/BIdvmUH1ApewMJ3PI5UBO7HNU5EY8mvcdQ+CHiuxgMkFxFesMkqnDcV4heyGznltLn93PEdrI3yspHsafsWOmzOkUjiqUoIzirk0vybg6k/hWS90ucOwH5UeyZqxct6/pRl/X9KZ5ydsGjzV9qfs5dzLmZ//9b76b4yfEXaWOt5J/6YJgfTis6T4z/EplMf9scHuIkB/lXk/wBokA2g8+9PDO33utfOuvLuNo74/EjxWztJNeI7N1JiXP8AKnt8TvGhULFqRUL0xGo/pXnxYAhSDn8KiDHBNQqkuoKFz0g/FDxuYysmrzbjxxtA/lWKvjfxZukZ9VnMsnRsjj9K4/e/TFOHmZGAPzqXUY7JHo0fxJ8di3EY1y4Cr2DAU1/HPiq5P+k6nNN/vkH+lcGr7QVar8L8cU3Wla1xWT6HYx+LvEP/ACzu2GPYf4VqQ+OfE4UeZOs2D/EimuKhfsRWjHs6gdMZx71jKtU6GsYxtqdf/wAJdrcmSttaEn+9EpqxF4y8QxYRorJR6C2Q8/lXORTWgaVZ7qG2WBQzmVwhA+hNedeKPiTaaKg/sW3bXfO/dq1owYI+erHnFYyr1eptSoJvQ9c8Q/F3VvB8Vtc6s1pElz/qwbSIlvoMVymnftL+KNcu2sdF0q1vii9EtY92fp718sfFO98UfEoWkTWsyJpiEM0Y+4cc4x1/CsnTvjL8JvgL4HW2imlvNRvM+ZGAfOkkz03ZyuDUzzD3bLVm7wdt0fa198a/GGjwo+vaPY2O/kLJbp0P4VV0z46R63O1tFBpZm4626jHqK+E/EPxStfHmnJos1vd+HdWlh+029tqEgYXEbDIMTg9cc4NfOUXiHxH4e1eP7Vcko7fI6k4wfX3p0cTJ6MivRUVc/aGbxRfzKJG03TZQf8Ap3A/UVmz+I7t0Mf9n2kKt/cjx+XFfnTaftLeJfBL2Zlhi1KwlxuST7+D6HNe7eFf2gbTx5fW+neH/D1xJNMMyGR9kUY9Qx5NXOtNGDpq12fRn9uTwHdHLsI/u5GPpTv+Eu8QRptttUuIP92QkfrXHxXomJJAUqcEDOM/1p6ygsev8wfzrNYli5Fa51j+MPGoUPHrl02P4RIRmsN/GvjUTMJNVuQO2JDVRTIxChyKoXFnK8u5WU/U812KvLoTClHqdLB8R/GcJ2rrl8meOJjiupsfHPjdhz4gvjnv5xrzCGzaN9sm3B7CulsBJtHy9+Kr28u5CSR6CPHHjXdj+3rz/v5/9aph418cYydeuv8Av5XIFJI8naTVm3EkuCqYH1o9vIvQ6seMvGnfXrv8JKsL4t8ZMQP7dvOf+mprmI4yxyw6HBq7DGvmKcYFZqvPuHIjdPjfxvCcLrlwcf3mzVaTx946OQNduF/3cf1FUZYVLHAFVJrdD94ZxVqvPuNJIvyePvH7Y3+ILjaPRVFZ1x448cXAKz6/csndSBg/kKo3dsCoCKFPWsO4Sba0S4GatVpPclwINQ1rVb9Ginvpm38ZUfNntivxp/aE8AePm+K2rW6WE+pBmDwy4J3Rnvn2r9hZlaOMGTt36YH4VzN5YSXFwblIVlYHlyoztxkAZ7VpCq1qd2WUqcp2mfiZrGgeN9Ct4o9Y0+eOIg7NylunvXPw6Zrt+m+0spZiMnj26/Sv2H+KvjHwZ8P/AAbc694islvbqRHhsoHjVi0zggsf901+Ydl4b+I9z4Y1rxrcXq6do0OS8kRUyM8n/LNF7DmuqnW6nqY/A0Iq6ep4vqFhJburSOPMOGIH8J7g+9a0HiCa9ksNGhBkFq/mSHPAX1JrHsNB1fVY5LqCT92mJHZyAAB/M+1e8fCzS/hhf+D9es9Qs7iXxLdRhbGT7qqR94uaKtTmPLwuWSm+ZOyR9YfD/UdT0A+HdO8TabPJo3iewmmsLuOTfunhyRkc7F9a9u8AfFzRPFHiG+8AvYNomr6ZEJLeNfnt7u2X70kDeqjkg186eDVstK8CWlta3VxrGrQZWNXOY7Vf4wq9Prjmp9F1XxD4F1aHxd9jjuLcgxIOHlQMcNt7965JSdzPH8vwQ6dT7egv76FxJBcSRknqCQfyrdi8V+I4FAg1W5Qj0kI/lXEaRqtj4k0W08Q6RIJLe7Hr86SD7yuOxHpV8Z7dacZNnmOJ2X/CceLMYbVblv8AekJ/nmrVv4/8WwxMv9qTp6bW2/yrh1PrUgBbuaj2rHFI7ZPH3jFG3jWLrH/XQ1WvPGvim9ULcapduqnIHmkCuUJwCM0ic8Go5maOFjsYPHPitHMlvq11GzddspAqy/j/AMYONs2rXUn+9KTXF7TjiogdrcjP60uZmR2a+MvEEj/NqEp+pz/Snjxj4igJCX8x+hA/pXF+dg84/AUjSsemK2vJ7FHVT+LtYvH23Uskw6Hcc/zql/btyPlCkfgKwUnYNzSmbcTkUuhLdzfPifWUGI3AUf7K/wCFQN4u1zGPMHH+yv8AhXPyOp7GqTkfw00jOx0T+Ltab5XdSP8AdWqJ8RXhY5x+Qrn5G7Ac1W3AdTg0QYNN7HUDxFd9VbBHoKtJ4p1VFws3H0BNcesgByMH8alM4IwAR/KuiLRLizqB4knkYCZjk98CtBdYuAN0MuPcgYriYRJKdkCGWQgnao3HHrxXrPgbwPqWu6ikVzCbW3X5iW4Y/RTXNVq+8kirOxRsJvFWrQPPpMLXEMX3iFA59s+lQTyeM7dC1zYPgfxKi4P14r67ttBtrO3SOOIW0KcYVQC2Opz3JrN1eA2WHtcRxjJEcjDcR2JGO9b1Vy2CMLq58dHxBqYJFwik9AHUYz+VPbxLqhULLFAdoxygr2DxBFoerGMX9t5EztyYl/XoK818ReFJtOR76y/e2an5sHLj8BXOqivudcKCcLtGA/iK9bCmGAA+iirkGqTNh/LiYgddgrjpJMH7xI7HpVy3n80FVPNbSlpoc8YWOtOtTbsBY1/4AK07HxDdWMvmrbW0zcYEkKsPy5rzh5TG2SeatRzykZzmsfayT1HY91PxW1fy1SbRdKk2DADWqj+QqkfihLOCk3hvRycc/wCjjP8AKvJop5cct06VbDsRvfqe9Dqsux3h8eQk/wDItaV/35p48eqx2/8ACNaSB/1wFecmYYODiqJuZs8MRU876miVj15fFcUg3Hw/o/Az/wAe44+tdFpWgeJvGGkyXGi6FpKvG4Ur5AXKt/ED7V4pE7XG2wEjNJc4RQg+Yk+lfbugT/2Toh0aCHy00u2iMpXiQyEZO4jg11wS6mUqj6Gr4bh0DwHo1t4d0hYbF+DIoIDSyEDcVPUgHNd3a7LqRpTliep9eK/Pr4Q+DPjb4y/at8YfE74kyfZvh/pdr9l0WzDcSM4UCTbjqMHJz7Yr9ALGaG12rIxIAH4jAFdNkkZczOT8VeMfDvhG5W11Yi1ZwDHIW2jJHr/SvOvE3hzwv43s21S306NtVO0pK5IWRT64/nVv9p/4URfF34YX+l2E7QanAoktXiODvHQEjnFfOH7LuifGnwd4G/4R74uXUV5dxTOLdozuZYc4UMeuRWc0ioMt+LfDK+HL1I9T8PrsKg+bC5MfPbNcqv8AwjBKibSQueThzmvqbUNRg1qw1HQZ080ohZUYd8HpXyC6/wCkPHKm1kYghvb61jPRaGrZutF4KBx/Zrf99U3y/BX/AEDW/wC+qoGMcZHak8tfSubnIsz/1/ouIyvcZlTav0rajiTOW/Ss0ysTyrk+4p3nSgcI+PpXhqkupjzM2GtrJ49oTDjqxPFVvsaYwCMGs/7TLyoRiD14pftEwwPKb8qfsU9g5maY0xQATKpz2zR/ZiZADpz71lSXTIP7p/CoTNdEbkcnFP2K7BzM6FdOxwCDUsdlIDjHA965b7TqW4bc8fhVn+0NRjG5t2MdcZpSpxsOM2dYLbyfmIPPvVm1mjjlSSUfIrg/h/ntXFnUbyXA3nFW47zFu8ErDc6tj1Ujoa4nTNlUZ+X/AO0PL4g0b4seJfD0viUvel1uLaWRiiRRyDKx46EcV7x+yP4c8TXb6xca5dxS6VcxqxgjAMZlHG4cfyNXv22bPSILnwr4+tbMSXF5ZG3nYqfnkt2YZJ9duKh/ZY+Nvg7VrN/DT3kFrcRMVKMwR94OO/BqcTR9x2PSwrs0z65exutH/eac+xsEFWHy4PByO9eF33wn8La088mr6Yl7HMzO64JYE9duOg+lfRuu2EkoikiLOjYy68rzWjpeiGzh+1gA8YyT+ftXw9WtOlNs+shFTik0eBeF/Bnwd0vRLjS7XQ4LqeQbP9IG6ZBngKW5AHtXzF8V9H/sIvZiBVtj80bgDgegNffmu+GdN1dP9GRLe6BzvjADE/nXzH8UPDYltRo9+rSuxKoccgjoAa6MuzRuraZGJwC5ND4F13XNNvhb2uoyHyYjnIPIx9K9S+H/AIkutAu7XUPD16ZF4KBieAOcHNfLXjbT73RPiBN4cuEaF4mXIPHDfWvVLa3m0EImdqAB+uMD1FfaVacZQVj5JSanyM/TLRfjTeao9tZaqkURkwu9V2nPtjivTUmuy4bzNykZBxxXyP8AD3xfpmu+F5NLu0jZpIiba4IAdXQZwT2/+vX0Z4I1V9T8J6Xd3C7JChSQt1LDuB37VxRw6TsKtY9ADzqAGbINU5pJfO5PAqAXqI3kPIN68kHqM+tRyXMByTJ+hrqp0tDlczYjulHXFa9jqOw4PIOPwrjEu7QDmUZqX7VCB8l0i+uc81qqJFz0z7ahIO7Oe2avxTsPmRsD615RHfwJ968jz9TVxdYViI0u0Gf9vFP2KF7RnrYmT5R07nmo5L5I3GwgmvNU1RV4a8Q4/wBsUr6zZkEG5TI/280vq6GqjPTReykbjgA1FJdBhguBXnp1lLfYJLiJCwGA0oXGfrTJNTWVC4nVhnqrBh+Y4pOlYfOd28yk53g4rNMoaXINcXJq8aoyi47dQc1mjVdhO6XHuSBRyWJ5zs724X7gxwK8W+Mth4+1jwV9p+GOo/2V4n0mT7TaMQClwAp3ROOhJHAzXafb4nOXuM4GRjGB+NVXm85R9luBPg9Y3DEflWiRMJPmuj8LPif8Wvi94z1KaH4i6pcx31gfL+ytEIRER1IUYBz6815lo3jHxVHZXWlpqE0tlcfeiZiUz649a+7v27Y7O68c6ZaWVrElza2QlnlVcPLuLAbvXHvXxP4JOgw3y/2vA08DNtkTGOvTB7VvDXQ6KlRy1uZ1lfaqscjKxWPB+XcQM/SvZrTxTFeW+k22jQGxliQec6nHmHHOcV5zqLWWqancW/h6MtDGRtVu3sTXR+D9B1AXay3OxUVsEK2TzXR7OJEK0loz6v8AhLdw2VlqUcsjyX10yrAM8qepYD2r3HSrCA6lYWF7cyXMbk5yOhOOvHrXmHwf0a1Jvdc1G0L+T+7tz3Vu5PoK9E0q9uNT8QXF98sVpp65LJzlvSvOrSs2bxjc57wXrvxF+DHiTxFYaxbre+F5Zxcx7G5YvxmP/aA619n6LrVrrem2+rWwMcVwgYI/DjIzgivlnUdVfUbhRjzrZWDMO2M9MVffVtS0/VUvX1KQxKAI41AEar7881EJtoxqUrM+rYpEkbB7DkVaTy9+AcCvNPCfim08QoRBJi5wMgkYP0rvQrggkN26g/pWkYGEo22Oljs4HXLN83tUi6bCORIaxF8/G7GB/ntUJebOVY/gf6VoqSMXJm8LHnmQVONOkxkEEe1ct+/B+VifxxU4m1NV+QnP1xV+yTFFvqbr2DOOVAFQLYQ78bB+dYUtzqpICkk/XFRb9WY87lrWNJGjZ0s9nGqjA6D1rOFuFPr9TWYX1A/eY/jUJF3n73X3pSpIlM157ZSBuIX8aotaqBw4/Oqx+1KMyMWX1HNUZTdsvyFuPapjCLA0zab+Awp40kFckg/jXPbdR3HBPHvUiHVGVmG75eeDnp7VXsY9w5ram0dMCAttB289e1b/AIf8Gza/NuVNkII3HkcHPT8q5rQdL1HWFkm1CV7W0T7/APebHpXvegapaQ2sSWsmI4yEAI9O/wBa48RVjDRHTSg2ajeGPD3hS2stN0i3M1xe5L3DZyr+g9q73QZ73ZNc2pRdu2IlgNwzxlc15n4ov7mNtO1KOYKtvcB+BweORXc+HZLSbUdPaZ2Rbi4J4OAcjIBrLCxVSaKrU7I6j/hPtN+Hmia/4r+JEkdnoWghRHcTBU8yVjwqHqWPpX5z2n7enhj4g/EA+GrW2li+13RjWeY8IpbEa9Twc8ZqX/grN44utL+C/hDQLKN1h13VZDOVB8thCMjPTmvyL+BHw3+I3jbU7hPAVpJuUiSS8cHygUOUyx7jtivazOklHQ5qLP6DJ0vpJmiMbeZCwLegGAc+45ryP4yfFe++GGi2Wp3Fkt5Zag7Qu0fUFeo5PXHatnwZ4k1jwt4XsU8WXwn1K1sliu5CdzOxGOAeWP0FcZ8S/h3aftC/C+98D2921peNcfbbKVCFeOfPIbtgrxivl6cveserSfu2MTwt4q0Dxxpg1jQJN9uWKkFvnBHX5fTmuoijRDlcZr8itU0b4nfs/eO7PwrPLcWdzHdQhhGSY5oWfAyOgyOvNfqvFeyOIWbCPIiM6jnaSO9exRSb1OGrozekhD81EEdTxxUaXDE4ByO+KkEw4IIJraVJWMXIuRFgfmOa0t8bJtPascTqeOM/j/Sm+dIG6YHoTisvZIFM0QkRJUHH1p/2NJAQsg59TWcxcrnbnPQc8/pVdpp0JGCD9Dx7Vn7JWL9qexfCnTIJPH2ltIiy+QJHBPO1gpw36V7LpOs3yv4jWScEtLuw3Ugd/wAuK8N+DOt/Z/iPY2skZf7XBLGvBxuK+prub24mXx9qXhq0ibM+nSzGQdmUj5R2yc01KxSimd58Q/i94c+DPwg1D4h6+SbTTohJGg/5bOxwo9a/NK7/AOCimowlPFr+SbO4bctmM4VB2I9cV90/GTwl4N+JXw9ufhx4uQnTJ9NQgbvmWfqDn61+B9z+zTr9v8QT4M1S9hh0AOF/1o3mMkA49DirVQ0+rNq6R/R58L/ilZ/E34f+H/HWlh0t9eTIVhjaygZAPcCulv8AyUnMSxgOMNnHNeO/CnRvD/gvwH4b8KeGWEenaLb+XAGPU4GWJPTOOvStPR/iZoPi7U7u00i6ivJ7UtHL5TBgrL1GRwaftTGVNp6nRz3sFr4hhtgg8+Vdxx/d6c18yeNxJb+LbyJQFXOQB717xYkar8RLlv8An0tEGPr1rxv4iz2c3iWdoYtjqMM2cg4qJSuJM5Ezk4y5HHrSed/tn86oF8egz70nme4/OsuQv2h//9D7VSPwaIMhLlZOxMq4/wDQabDa6O05EqPOoGdjOB+oxXmWn2+oNakyymQ+pAqzHDPCS0pZ2lbscAV4vMc565YXHgG2k3at4clugBxtuto/Hitp9f8Ag8qEr4Lmc+n2o/zrx/BACqSR7ms+eeRCUOcD+7VxqWA9au9a+HNzbNBYeEzYmTlmafzCMelcpI3hhX3fZiq+ikn9c1x48yMRksWEnOO4+tUZgFuw87HGegPy0nV1A9ES58DqrfaraeTGMbZAB9DxUL23g4zs6NcQpn7pkB/9lrzm9eCY7RlV9qyJtThiYRq7v2xjNZymi4xuz2SS18HzxGKWObnoyyKP/Za5y/8ABHw+u0R573VLUxtnME0QLDrg7ozkV59Nq5jjVY5ZUkb7o7AfhV6G/vY49zybyefrWEqiOqEVc1fiR8M/hJ8R/AmpaDrjapJbQLuhufNiLW8hHUgR9D34r8urL9ivVdR1i4i8BC8t73S1kupLnzwFFvEA/mNwB+tfof418S+M9L8F+JfEnhTTpZ7nRrMTywxIGN1ED8ww2SSBz8tfOdz+1Zr3ifRJ/CumWIt9L1m1Ftc21vD5d26yKNw+0D515zwDitoy0PUw8lexsaD4b+Nvwv0BrzxD4yS4t98MRWWBpmhaZ9iFgrDC7jy3QCs34yXPxB8C6Q9po3xOXxP4nZmL2mnxj7LEgXeQXycbR715tr3g745+MBcy6Y13BZiBI/IlmY+YnQI5J+bHAP04rzUeGPiXp0dz4fvPhxOz7AiXFlOYtxHd9p+bPfPWvKxWEoNtyaPeo1tLH1J8APiZ4+/tXwpoHxIaO4fxvazXelTwsGLJbErIr90YMMDNfR3jbRopYE1BsF4ZVOc+vNfJPwH+G3jNvGVr4y8YaY+iNoNqYrGIsWCK33gM9z1OOtfUPifxFJLaPDIvYlvqB/jXwGcwh9Yj7I9vL1e9z8yv2zNDfQPjHpPiiww1hrcMZRs5/eRgbhjritXU9Bk8QxQTWI8xEjDcHngfNmvN/wBqXxTe+LvGGn6ZprebZeHFxu7l2ILDNeu/A2TUtbhiEUJ5iZcnooI6197g8Qo4eClufG5nRtX5kjF+GPk+IPG2k/C3z5Y4NcvEa6MJIeK1hO5mVh90nGK/aLwgnwk8F6il3p9he6qlqhihjuyCoUYAIwAMn3r4v+DXhHwjo13e+J9NsI01q4ja3nmZckDPJT0z3r6AXUVt02tkAdBXTCalqeZiHY991Pxr8Irryl/4RuaykjO4GMryT6kg5p1r8TfBdjGY7TRjNk5DTLG+P/HRXzXdauu4fL1pRe7lIRSa6qdVI49z6hT41abCpMOgWMo6Ya2XP6VHdfHWFThfCWlkf7cIP8q+aoxI2GzUzxkj5BkmtfrPYR9Gj44IFDHwjpJB9IP/AK9RSfHLT4v3l14K0wp6rEK+f1kZFClG98DrViaIyxLmL6gk0vrUhOLPeG+P3hGSMhvBVhg9cxoP6VkXHx08LGDyl8F6WE6kFBxg8dMGvFLqxt5rMxpCFK8/jXPTWkawupjCkgjNHt5Gdmdnr3/CkfE17JqviLwPbX805yzfariEL7KqyAD8q0tGtfg7pJWfQPBi2McSkhDeTSKx+juwrwWWWTAiAD9ua9B0+3C6aYI8+cACvt9Kj2pokz1CfxF4NkAV/D0ES/MA2WyobqSc447Uy28Q/CnT1/07w7bajKvzBjPIh+mA2K8iu9cPlNZvGGEeQ2TjJ96zrO4hjWZlt42D/dLLnaPQH3pKpqTKLPcdX8VeDb6JRpnhyy0+Nx6vIxH4tXnz6hoFqsv9n2scDjJIiUqCe3UnvXP+bcT2mJIwBxt2+1Z1152wsVwVHX2q+YiKaPlz46+ANX+Mnxi0Ox0GNLK5v9PaLfIRscxcnPHv617R8Ev2L/D3gq707WvHMKahe2ZczJjfA27IHHtUsWo3eifELwl4omgWSysLlobgMORHOu3IPsQDX3MdRt/LzbypKgQE7WBIHqRVqSSudVFXPzr8c/sT6hJ4j1HXfB8tlp2lXrM8RdC0m49gAQAPTivhfW/A+s+CfGbeGPE0pQxyYYBQm5c9QwAr9/7jUrddJF2yedHA3BX5s56EA+lfkT+1nZfafGX9vWz7mSTaVPBxjIyK5uc61SRYjurTQbOHStJVrcXmAGY5DH1JPeumZ5dKtf7ItJUDOuZjxj1PNeR2Gqv4i8MiJ42Nzp4DBwOBjmsC01+8v447We4JldyuT/dHXNZ1di400mep2l4B9ruvDd2sFxNmNmchgVUE5weATiuGtLLVJ1n1fxBqTXF1MdsFog+9tP3j2xXD6drMMGo+INTWRW02yeOFkDc8qdx/HpV7VPHGnx2Sz6Ug+2yoBG64zEnQgfUV04aleNzlraM9v0a8bS7O3v1vQhTk7Bs2MOxx1r6X8GfF2a7t4rfU/KkmBxEzMMsPbpX5t2Xi+LSINrh7gy5OGbKg+uM9a3NB8XMkxv7kYjjOVA4PrXa6V9jmlqfrTZePLfeGm0mCTP8AEc//ABWK118TaVcqZm02GFj3GT/Wvhv4c/GSw1mRNO1VBadNkhON31zX0dHesY1eLDhsEYP3gfSonCxhY9hg1fRXIaS0SRe4rbi17wMeJtG4HU+Zj9K8j0y5too5GkB3Dpmmt9h80XDRyZbr85rPnS6hY9lXXfha77H0WXn0uMH+VXVvfhK/+t0G4Y+15j/2WvD01OEy4js2YjuTzirUk63A3CBwR2yKhVo9APYZbj4QP93w9eb1H8N2MfyrKnufhrJGUg0S8iPYm6X/AOJrykwwjbvhlgBycs3BxUU8lqgzCrOT1555rZV0Fjvpf+ESZSIbe5t/TMysP/QaoXi+HZIWVjJEHXBMbYJ9Oua5KBlmQkqVI7HrWbfu+5YQfvEAL65rNzS2A6QXPh+2TypGl+fv14HvirHhTSfD/jLWFitluVh04b3mZyExnkNjAP0punaB4c1hptGvHuFvUXEnltjYffHSvefBHhjw54b8NLotqgUbi0jN87SAnPLHk1jOumrHR7MybnR7W2uUs7Bx/ZkxKENgNGx6H3WsC1svsGjzQysIpbaVsr1LKTx0/P6V7TL4XttVtnFqBEzg5xySO30rwqe/ax1G4tbweUbY4kZiBuXoCSemK8mrQb1OunOKVhfFGswTaLDDayABAD5f+3610/w+8UHUGtLNnHmWrqxUrlue4+tfPtzfreeOp9HS5jmt5YPOjMZ3KPbNUtY8aX/wp8SaFe2oaZdQvLa3ljUcbJHVSxPbGaMJU5KiNausWeh/thfDCz+L/hnQdMvmXdpV47IjHo7DoF9eOa8q8K+Mfh58JvDkPw8kvLTSxpkZmlRgsckh6sc8Ehe3Wvu/4k+EJdV+0QQoskhcSIRxzjIOTnFfgj+294Zmt9Qgv/ElhNZahpZkjEkZYpNE5zy449jX1eY4eUmuzPKw846rqfWX/C3/AAb8RdSm1bQrxXt7a4eIIGDO+0ckqMYHPBq3p37SfhDwfrul+E72eGye8WRhJKwCDYd3zH1wPWvyX+FN54x8Kw3eseFbA3K3bCJdzcKG6OenXOKzdY0zxH4v8a6Zpetxm31O42g7zuTDfeIx0ryZZcos9SnUSgz9r9U1LwN8WZ4vHpSLUopAiQ3CLuy0Ppn0Nd/bf8IxLF5kyzsWXBKqFOPavmzwNaW/gnwZpvhLSoylpYKrAHl9zAFgT9a9Sh8TxyQxeXCMnhhzwPUVcY2PKlK561Y2vhOKJoozdL5ndipP8ql/sbwqrAtPdNn/AHf8K8+t2aYiR08tj71ppM5GB1q+YSR3kvh7whc25jjvry2J/iAU/wAhVO18EeBY2E19rGosqfN8gGSK4tZbqN/mdiPQVPFezKWDZ57E1XOh8p6rbeG/gxHFPDca5rStKPlwkZKk9Oqmr1zpXwJEMENvJriyRjbJK6ou8475TrXkg1UyssQgcDdncBkDFXz4hhtYN1/A8gDfM+c8duKyVRWBxaPafBei/DKHxjpb6Ddaot+j5i81Y2Q8c7sKOPpiukvdahsfiE0cCLNIVkV2A5Cng1454e8c2mleKtJ1BIt0IlQGQNjYjZBJHoK9KUDU/E2qa3YMJobdnw6fdIIyD/jVKNzejJSdkeXfEWDUBqksMV/5r3oB29kX046V8GfFHwJ4W8B6ivi3xBOVu7lzIWmlIMaLk/dyM5IGOOlfbtxqd3rGuieJh5wkxG38IKnjPsa+CPj34h+A/wAUPi6fHfxG1LWtJufDs1vbXPhaC3LLqD2hHzW79Nkn8X6VPs9bM+gjT9nHVFLxt40+Kdz4I0n4XaZqNwfH/wAR7iK5Fvblt+k6KDiESkfdaQcnpx+dfoh+zv8ACWD4R+Gxo6M013v3TSMdzyOfvMW9zXO/Avw1ea1b+Jvj14u8PLoviPx3eItjHKMzWml26KlvDg8rhQPrX1NZWRghMjnOOnNDsjzMbUUtinoNsH+IOqXcc/lMlvHhO7gnnivKtf8AC/hXU9cu7uXxBNBLJKd9uRgAjqM44rqtSuW0b4h22pTTi3iaAbi3QlelebeMvEGn6l4jutQ0+MxCVucHhm/vD60OSPNNebw54cL/AOsiXHHMjZPvUX/CN+HP+e0X/fxq4VtVAPL/APj1J/aw/vj86z9oB//R+qra3aCHDAR+1WyAOMZwKzkvCPvEmqlxeTbsocL6V43I7HOahVD0PSmfZ1JzmsyLU2UsCn3hgU8XStgkc0Km2BbkiA6EbsVltZ54dt2PWrS3CHkjFRO4IyKj2TAzJhGjbSoP1qj9mhXMig59BWg6hmLHrSCRyhVulYypNm0GcxdXUcfDwsSOjd6lshDL+8ZSGPqelW7u0E0exTgnvUdnA0R8s/nWTpWNXI7Pw3PHb6vHPK42lWjZTyrI4wykdwa+PJ/H+veD/i1feGPDOgaYumvukDPbqWUnOSD619TRXDQzKiLuY9D714l4l8HS6d4uXW9RC4uQwx68e1Ri6qjDRnbgXedyHTPGHibXbsRQyokkr4VQuFz68V65pmleLpFAvGUxkYbHTPevN/g7pNpd+PJbFkLpDG7rx0avfLcy2BkWYkNvIx9DX5/jHU5nLofb4V09EjHa0ktY2eWYswGCM9MV5f4ultk0+4aA/vGUpt+vFela1qMkCuUOC39a+Y/E/ij7Xdy6dGcnJyR15rxbtyue5TVon5ufEi2v9F8Z3wuI2kiuXyCBwA3QV9a/AG9tdI0f7UGCywozsp7g9qzviFo1vqsIumjXdEuX4644FcZp1hc6baWscBZBLw5UfeFfoGCcZQV9z4jNVeeh9W+BfGyvq00dooEYP4kE88e1e/W2pS3p3bldWGR9K/P7wFDrNl4qL6bDLNEinzsdAD0FfcfgbdqGmtNuEdzbg/6KAS+M813+1UdDw8RSk9TofsYd92cZOa1Yotv3Tgd6kjhQrmQ7WPbNOVY1yFYV3qN1dHBFWLRUBVAqwkTHlTzVLd8mFccfSnreQx/Luw3emoMU2bsDTxjnBA9RVqNWlO4g81zC6xErbS4qxD4osLfJNyAM81fIZ87Op+zKmOQc+tZt7pguYmiUbS3eqi+JbCchllH1BrQTU7G4jHlzKS3QZ71pZF2PPj4YcSkIwzkZNa8ui3wUGOUIyjqDVq7trksTBu565zVZYb0feySOw61lUWuhcTCh8LagZS6ugYnknnOfWuw07QZoIwt55UgPdQBVJUvN4yH9OnSulsvOWB2mG0r6gg/rTpw1JkRSaVASuAAF6Y6Vz2qWcaAqcbcVs3d3HZf8fMoizg8nPBrnbu+ivNwilWTbycHp6Vu4EWON1jRI9SsLqzaTymnQhCBnD4+Vh7g18efCj9pTXfBXjy78GfEkfabP7SbBrvGHVEfgt2xgc19vTQSzRq8a+Zk9BzX5hePNGivvHfiOK4XBiu33Ljplj1zUSWhrRumftrJqml6RZ2ep6fKkulXxBtn3Bo2U+rDgYPHrXiHx38OeBzodzf8AirT1HmqClwg3YY85GOtfA3wd+PVz4U0C8+DPxKuGk8M3/wBom0+cNtkgutvyKrntnHFefWv7RXj+z8MX/wAN/GF2NUso5CbaWcHzFGeDu78VjyWO6Ena7MS7upfB2s3lrpupPdabeA43DbgHjGK63wTpVrrJcwkG4VWCIe7MDXiWqXq62q4YIoOTg19MfCrQI7K9gurZxILq1Zo5O24Dn2qai0KpzufKuqm/0N9T09TmOeQrKQONynPP4cVm6ZFdXpV4RjJHfrXo/wAXv7Nax1K+sjtKsq5A4Mm75s478VX8CaLd3OgHXJIvLtbFCXMmF3Fum3PWvQwy92xy4he8UpbC3t7ZpryXDLztxWHDrNuNVS0tCZdw5Gal1+V9SgISN1jU5LZxkfhWXo9lFa3MVzDh5u5POK7ILQ52dmNd1ONh9nQKyn5T6V9pfCP4oXWoRwaL4jZEiVFVZeuG96+ALm4e5vZVztAOfrXW+GvHw8Kyi4t9sk8SkKrjK57Ej2qakdDJo/W+G4YHlevvW1aQpeN5eAuPevk34F/F6TxrDJo2tyot/ENykg5cdzX1VZXMCyqyvuU9wa4ZU0SkdJHp0MW0BRzxnvVldLiV/OycDtmoo54nCsrcVYEwxlW49qj2aEJeRRTqiTf6tOgrOuLG1jXcB71deRS2GGcc1QmcshHX2q/ZqwFYCL7qjArLkkji1nTYyNwkl6fhVmUlF6YrjtUvmWSKWJtssTblOeOKiasi6b1NS18N6x4a+KMPi6x1Yrb6oswls3OfMYng/hX0JY67rN6xWe38tVH3lHHHbFfOX/Cb6FqNxpVtfNt1CKYpGD6uflA+tfS1xK+maP8AbJFEcUYy7HgZHUfWvOS7HdKV0er+DfEmJvsFyd8hztPpxXyZ8XvFn/CP+MDraQC60+Qi2uU9Hf7px36c12Ph/wATfZNcXVrxGjsJht3FxncejY9K8N8QajY6lrl7Zzyx3Ns8hbeeRnJ28V1QV42Zi0zqbKx0m31eDVbRl8vUFAVVXG32FedftD2t7L4XstTtZPs8tleW87SbsYSORSRjrziusu72x0hNKuHfCW0yB1U5AVuM4rd+OukjUPh5J9lRJ/tI3IVIPyMCcn6Vw1sPZ3R005aWZ3/iz9unwdY6VDqdj4Wl1U+VHETLL5KM4TBI/wBnPevyb/aE/bg0b4qX114b1TwDaNpSAq7C5O/zB3VwOR7V478YPEOneEYk8L6Bf3WpavPGC4ZwUtw/tz1zgCuI+Hnwqu4dRs9b8RxeYy7pRE65AccjcO/rXuUsXPkTkzqw2ApK8nufUnw2+HuhePvCK6vo+vyeGpolRvsESBnZCQF3HPGa9hHwq8M+DtasbWPOpalFbq5uJfmYbyDjPtnrXJ/C7RZovFsmIY0i1NXIYAKXlUZZQPQdq988X6Zf2/i+C5miKxzWq+UT0OD2NYzxMnI4MQ4t+6UoIbzzFcY+YZbPc10lpG6tlgMnimWFv5m1mOM10trYoW3B+BT3OC1h9qZPN7nNdNZLhMv1FV4YUjOUrQj2joOTScWVEqm6Te2eNvpVYFbmVpGBC9sd61DDGQQMDPXispLaRCSpIFZuEirmlE+yIxxsRj8Kpzeacg7W3EYwKmi5Ow1t2WnRORIqjzJPlxgnr3xRClKTUSalRRi5S6HP6ZZXl5drDYxg3MjhYVxyzk4AOO3evrHU/B3/AAgPwt1DTtPkZ9RuIzc3j5yd7DO1fYdKm+DvhHSdJeTxLcWwmaHMccrEH5+5UdsV12syHzLgyASCc5cHpz2P4V11qMqcuWRlluMjUftIrQ+D/AYk1jVY7aHd8oMjgHkf3voa9ffw94aa+t9Vk0W11DUbcq8MlxArPEc8Hdj+ddxp3w78LeHdQutX0n5ZbltzKeQueoHNRXdv/ZkK3hcOty5XkD5sHAWuCo3fQ+nxOP5qdkTJqd9qF7Y316B+9kMbfKBtKdMAcYrudPu/tYDbgYxlefUVxZtmhuYLiIFJMEAN0Unjn3Pauk022FjE424dsnOT1PtThzSPDk7nlfxleMNp+onlZW+zkDpnvXjt1mAnyhv24HPevqLxLpNnrWh3SXihxaL5qZA+8K+b2hVlAwF4HPr71TpMzOaeIyMXKYJ7Ypv2f/Z/SulCIBjK0uxPVaj2bHY//9L6Xez1aP72m3f4QP8A4VEbXU26aZef9+H/AMK9nt/HniyVcjXrsk+r1ZHjTxin3tfuiPTdXlQnYzSPDv7P1g/d0u6z/wBe8n+FVb0XVnCftNtNA7dA8Tj+le3y+PfFithtavD/ANtP/rVk3HjDUpwsl7cyTuueXIb8+KvnXUOQ8mimkZMiGQ/8Ab/Cp0S4kBKW8zfSNv8ACu7PjG+WQ+VJtP4f4VI3jvxFEpMN2y/QL/hR7RdyeU4D7LcMctG8YHXchH8xWhpmjalrd9Ho+lW5uLqfhVBAz+JrZu/Hev3w2X0gmHuoH58VVs/FurWUyzWbJDIv3WCKSPxIo549xuNiXW/h34w8OXkOnappcklzKnmBbb98NvuRwDWDeaH4g0+Hz7nQr6MAHrD/AIV2S/FXx/aQmG31RoY5Sd/lpGrf99BAf1rxTxB8VfGOp6rLDbatextAPnXz2KMvfA9a58RWjGN2zelSui/a3WpgyTLaiLywSROdvI9q8x8ZeOrua4tf7QjjCW7EDaOeRXW/bNY1CBbu/gcW78s7sct781474ysbzUdxsLYhB3Jr5DG4nnlc9bD0uWJ9DfBbRVi8QQX8Db3unDBvUHtmvRvGNnK/iyaytVJVQ7sVHTHNfOfwX8baboGo6T4dubsiZLjeT6E/wn2r691O8sbVry5hcT3N+NqbcHAPUk9q6HhIzpO4oYmVOoux8y+J9bt7G2nlkYFYxyc/lXyPDqEKXeoavKS0ksxCD2P3a+jPid4au7eH+z7VTO9wdzrnkZPevJvh/wCHoNd8RQ6ZdwGEWr7n8wc/u+eB3yfSvmv7OfPoj7BY9ezucxqOk3OpX8BhQtHJDh1xnBxnpTp/DN1YWtncOuWjlVSOmUbrivo7w14cu5NXvHg05gzzPgHDARg8YPuKy/ENg0F6C8YgFqTiMjOD9a+gp0+SOp4lWt7RnEaTokfhyO7ubB38mc5Krjcc/wCFb/g/xJLo/i62v2vGS1GA6gZznrnjr7VNqJhuLCWFF8plj3Bjypzzx0rjfDOn3003nMnmBCPmJ/lXPUq8zuZzpaO59I+N9f0rRXj1OWTyobpQVXGGJ9cV5kvxE0mdHeO6hgwduJmKFj/s+p9q+i2sYdd8H2lzqthaav8A2cAVW4+V8EcqGGPSuN0vWfh7ayK8/gTT47qF2ZPtCNKMnjIDMR/Kvo8BX5ong4inZ3R5tb3PifVrafVNDSG7sbMjz5o3DLHkZGeRTYtH8dapJ/oRhlXjBWRFLZ/4Ea990vW/CFrHJDpPhrTrBbggyIgZUf8A3lBwR9arzX/h4GSGPRLJFmbLFUyQT/dJPFd5xN3Z4+3w5+LLIX/sz93/AHjMmP55/KqZ+FnxRuEK29sAD18t1PP4mvWg2kKSLeDysejN/jUr3Qhj3hnA/wBljmplG4Lc8Lt/h/8AGbSrsBbKS9U8eWSgKj1611X/AAhPxGjWOU+HbgkckqwOD6jBrp5fEEqTgRS3IP8AwI/rVuHW75QwW6uCW5I3Mpx9c1m7dDe9zM0zRPiO+LcaVLDMxwqSygZHqcnin6h4X+KJYwf2O6n++s6YH4gmprnxLqIk8ppH6YBblvzrPtfiK6RPKCSIW2nJ5JFOM7GUtzIk8C/GWSaI6csiPuAyJQy4Prn9a0rr4Y/tOeUzodPuYz1WaTnn/dq3H8Y7l3+zwQKd3AOfm/TtXS2XxEup3P2mPYvQEHI/EZrSOupLnY+ffEHwm/aW1CdIjJaQIeohlJAx04P+NU9N+EH7RGlyt9y4J4LMqsMfi4r6kbxcHGPNIU88ZrNufE7gMEkduO5P8qLC9qfPr/Dz42RNv1K8ezQcFYtqdfxNfG/inTpvDXxC1qw18u8zN5gcHcxducmv0H1rxbKsZMC7iuSS3J/+tX50fFHWxqnxOvP3DRu8YYksCOnPH4VrDsaU5XPN9c0lPEXinw1oa+WN955zCQ7V8sHJruvjN8Kblrq513w1cw3lpkM8KsNyADBwOpFeZalI83jawKRM62kG44GeGP8AnFe+WOimW2F1awmJplI6fwntmuXEVuV2PRhax8Y/bLrRX8u4DENxxyAD6190fCDxi1p8O9Pf7Or+W0yRyY6fLu5rzHxP8KrPULBowjREqfmCnJPvXQeALe58J+CbbRLyB0jgu5HJJzvQ1jOpdFrc8e8TLDfXFzZ6g3+jy3HmlF4DHd0pniTxRNrl1bsT5dpaosUMEY2/dGPmHeq/xhv1GlWFxaKLV5524H3gvWuc8LWJvDFcXE4Ykct3xXqUIaanPWWpbaaR2zLIdpHMMfOfY+lLLJNJD5vlJY25wq5cZrUbSZZb82elZijIwzgcmtxPg1c63CztqLybUykKIT8wHciuuLS3OWojzXUfEOl2iJbWsgeTOGYHis2yv7fUZ1tLf57mX7oHOT7Gpbj4W6jaztDNGYmR8Nu7frXvfgj4af2NDEdF0uS8uSodryQbIUPqC3NTUlpdGTizu/hV4Sh8IQyeLNbv/JubaPdHApycAZxt68193+BNZ8O+J/DGn6zaXLRJcgFkZfmRu461+aGr6c8PiKW81LUXu5FAVlhYqox1XnqPevW/hx8ZYLPxAnhu9QWlvcFVgAP3GHALeue9cEYtbgz9J7DR2vLctYFpVXvwP0zSyWOrW0fmW+mXkqk9RETx+Fef+HfEd7AoZZNpB7dCDXsNj418QIiJDqM8Q4A2SEDj2q2zKxzaWniCW2a6Gk3SxA9ZE25z7dcVSumng/11tNHu9UIH54r1D/hKtYbbI13KzdCS55/Wq9x4n1SZgJ5i6g9GO7+dCQHh2p6pcWpjtobKe+kl5/dodoHoTivNfFXidLCzkE2k3onbgKtu0ij8QP6V9Tz+JHi4Vc564wP6VZj8YakMGNWVcYwCKHBvQcXZn5Y+NPGuu22q2F3F4U1C+ubaVJ4bm3s5AIgpH3lI5Ir7F0j4yxa9Ida1FLqXSbOBPLsTbSxvNcuuGYgjGFNfSQ8aaoF2kvj0yM/ninSeL7uTh4wfyH6Y61l9WOhVjxbxH438KSaZDeandyWqSR4EEcD7hkdOF61886n8SvhppsU1pp2j6ncPGoKyLFIZCW5J+76190r4muFOWghfP96NSf5GmP4juDjEMUY9FRR/SqdGxKr3PzYg+LcOpTIx0TU7CO2YECWCRjLt6buB1rM0340alp/i2K1dLkaNeK/2q2khl2KOzIWGM47V+np12+dTvSNvqi/4VQn1BLni4s7aTaeN0KHH5jvQoIHWPwv+P2g6HpPxGi8d+Et2paY7o+1Yn3hlGSrjpXsPw+8f+EvEMMlw85tplQFo5Yz/ABcYB/8ArV+rLwaJITv0WyLuck+SmD+GKqPoHhppBJFoVhG2OCLWLPHqdtbeyRvDG2jY+AdK8e6Hpd/DqmnFZ72zYbVeKQDYeHwQvXFeu3vx78AeI5IbW6up7SCydMK1pISAwwSrY6AnpX1StlpsQ+XT7ZAP7sKDn8BUsMkELEpawAN1/dJj/wBBqJUkcqqHy5/wk9qRJc2lyrWiEBHIYM47HbjirUXi3/SEsp4J1kcjZ8pwwPRgfSvqyG609RiTTbWQ4P3oUI/9Bp7atHGNwtYFCDAxCgIHscVKjYmR4dFeyWqj7QHHfAGTXQ219GyrIUcBunyn/Cu7bxDCSf8AR0/75FW4vEskSr5MaL/wBT/MVfKxXOQEbygNHHIdxwAFOcmtS90vVLAIb3TriESfdYxkhvpjPT3rrf8AhMdXZNjMoXjpGuR9OK0LHxZ4le9trDSr24mvLh1SKPcWByeDg9qEg3Z5ayOCBHbTSyvwqLC5diegXj+dfSfh34f3nhX4a3njfxTahPEN4uLa3fIEMbcDI/vEcn0r6s8EeHNT0XRo5fEdyLu/kAZyUQCNvRSBn8a5T4qn+0dHe1Q7lT5uDntXdgaSeIhc48zbjh5+jPOfBULWvgSxihBYrI5ZeASXycj1o1KKWZjG0ZG8jIPrXM+A9RgguLywmkZbhkVoQW6YPYf1rs42miuhI7q0VxnG7qGHpXocT0r1W/M8ThbFKeFSjujnbywtofMEsexFUEkDOaw7m3tLqzjjW389In3xo3B3dRxXdXgaHYqx+dMxxtHTJ9a5TUlSN5o51+0XMfyssXARmGQM/wBa+VlGx9gtTBkTUrnUE+UvyHcDooHAB+ldCwMUXmupbd3XkAD196yId6MlxazuoKgOh689R71qW8Zwfs7lYm5dCckn1Fa0hT2LFvCWDR3MYeK5G3ZnrnoD6Zr4t1fxtoNh4iv/AA75bW1zZSOGjJDKg/3q+4UEiGCSNwvPzgjqB2FfLfi2fwXNrWovZ6LA3nSZmOxdznuH9a25WZXPOovFmlSxrKsyFW6FXQj09al/4SjTP+eo/wC+k/xqws/w8iHl2/hKxhVeNqxjGe5p32vwH/0K9n/37FFzXkkf/9P69juYlQA8USTlwWQ/KKqpbo/LtgfSlEShiiv8p9q+f9m1qLQrTo0gD+YVNZMjSZ2lzgVtyKMkBtwrNmhAfLMBn1NHLLqHOmU1Vic9qssMIQagKvFyMEZ7GqbzsQQM8n61dOOpk5FholbnpiqMjJG4Gc9T+ArO10atcaPNHpK7pYxu64PHtXjXw3stc8aardXWpak+mjT5GVzJlEIHTCk5INKdVQ941hQc3odX4n8fWpmNhZSmK2xslkxyp744rzC78QWVrZTDSJczqCfMkOS3eq3xZ+ILW00mkS29u0cWUF1Eu3zQD97bjINfMupeIWWJpA+UAJIzXzmPxTqS90+ho4PljofWXgPXr28sZB4gvzdXMmdseflQV219p/n2+I5FhJGRzxxXzR8BroavcX97qCtHawtgyZzn2/Svom6v9PvHeyiBkTPAHcfWvLxkbJGmFj7zTPIL6wk0jUDraI0r2mWZk6Z9ciuz+F3xC8UapfG41iW3j0iDcXmLYkUA55yfwqh4nt47yOOxt38vHVFboPfHWucuvDWnanfWNpGBFYhl+18lBIiAE4wRUYSvK9mz0cTQpuN+p6X8ZNZ8a6hoE3jjwZbretDLFDa7mCQrk4EjsccevPFZXgi30vSPEWlx3mqPrfizWF/0m7h/48LTd99IW5DnnBPT0r6E1oeH5Pgxrur6VD5WlWVu0dqkg2o+wY24Od2c8n+deHfDGyg+waP41+HEIXS45IrbxJpE4ElxZTScpNaseTC3UkDjvmvv8swkJU22j5itWkvdTPtDTrK20zTsadGsSxcb36yHuR9a+WPihq8lxrcFqkOwSbzIQMZxX1DLbXI01r0/vLdAZFGcjgdcfhXyZ4+1pdfnW7tkEboxXI4BI4yRXy+dx5XZHpZVre554k9zPmJyWjIwM+legeGtNht7eNVPX5jXF6ULx5GttSjUbedydMGu70uUafGRJzGeh7189FyZ69ZJM9a0i7sbe3Fvexie3m42s2ADjg14eVMGvX1tlk8tzJ1JXYTkAZNdNNrlrFbtFgOkgK5bnH0rh/sEd5JNNpk7SRn5W+bofx619blNNpanz2OaueiaTdgxNImX3YIJ7e1bdjK+x5JSc9K5vw3b3f2P7LcKBsIxzyV9c103yI+1GGwdxzXsnissRsWIbeRitpssAvP4ViRujN94VtlhhSpB4quVkplCRHQ5LGnKT1JJI71Zds4B71HtGARXL7Nm0JEUkImXp8/rXBXmiRteLbp8kZOSAOufWvRsdqYbZCdzAZrWEWglUSR55beEIvtDPExUqcjjpXcWHhhUiYSzM464wBWvbohYgjrWugMMZCdxW0k0Z3uYYsLaCMIBjPr1NVZrOJlOwHdWjM+Rk8fWs17hwSBwKxi9RNaHAaxpSkyBW27xzkdP/wBdfml4y1Oxk8fXl1NKFK74FOM5YHFfqJrchi069nHDRws2e44OK/IrVwp046vM26eIHJGPvZByfr2rooXb1HBnoPws0KXWtc1vUNQPmR27x20a9iF5P5V9haZo0dtBHGvCgdAOlcB+z9plo3wvsdSljDy6lPNMznBJOcdevSvc47SPb0rgxVKcpux1UpLqchf6YJEKclSPSvGvFtkLaCS0s5dkk0u1s9l7mvo2SGJXx3zXyr8YtROn+KYYlYoWiZ9o6t83b60qOGne7L5tT5L+Nt8DNaWakvHAQwccjpg9K5/w8NVhEF5b/vLcqDtXmu88XX2maVrxtbyJXaGFleFxnDN0bFcB4Qv7jQrvzLmXFq8hbGM4Unpj2FerBNLUiT1Po7wfbJfWomQYmkOChHSvoDRWstNtltLqBDu65HOfr1rm/Aei6TrEB1Dwldw3dwVGYDw5JGSBk12NtpmrzTiC9tTbzekmKxrto7sKk9GV9f8ADnhrU7JrxIwi2g81iByx9K8z1Px9JepJbTzyXNsqhEij+TYB0GOMmtvxpH4t0PStTuXi/wBBKfMyH7g9fpXglld2z6d5zqvluQDMeoJ71jSk5CxFNRRb1K4+16jHPJYmxjl+VVUklgerVV8SDR9MeG4sYlM8TKwfOCdvr6VLqerTPd2wnnWdLVeCCMn8K898TXMKNMGcgyoxHOcZrsjGx5sz9O/BfiH+0NHsZ1bLTwISe2QBmvcrLUWdYpEbOMZFfE3wl1SWHwXo8c7fchG0n69c19KaRqu/bKHJ7nFT7M5ZI+gbaZJEyG44NPkIb7h61wem6wVwIWGTzzXTxXkjDedpJqPZsEXJYlxy3PrVPkHk1cRi/wAzd+1NS2LMQuBmolFoZWieUzEBjtHSrLpKV+Vian/s4pLlQMnvn+lWmsZs54z9aSuBlxrcouV6/WknW93JnAORxV17CZjzIox71LLZyMgcncUORhvSrUW9WBaQOF2kYIqFo2L4UZz3p26dE+4MHp82TTIpXEmTWigJkcsTRfMf0p1uzkBmHBGf8irEf752DngjtUcSiHMSktg9T1rQi5DcJNKTHAOfpiskrfI7QhOR71teY8UrEEnjqarS3jsflwWxis5rqWihG98WCgjPpVxxceWyzHBNSI8assjcMRiq15O68dDUNMHJmO0Rz1qwvyY5NQGbFTqTIgIrNgnc0EkLKAMsxIAA6mvtb4GfDSHRLFPE2rwhr+YYi3D5kQnPfoa+b/hj4Pu9f1a21mWMx6VZMGeRh99uwUenvX6B6RMohWNx5bOCUTvsHStqMtdSofEO12WSKwfy+CSBn0rxnWC86yGYnL/KD15Neh+LbxIrcwrJ83evLfO3kiXOGIxz0PrTjWtUUy61JSi4s+X9W1s+HvGenX75EdlNsmX0U+tfRd4HvfshhYC0kBcOoySG54r5v+N3hm803xF9r58m+UE+hPrXpHwi8UNrfhl9HuH8y+04iONcf8sz1J+lffZzhFWwMa8d0flGQ4/6pmU8NU+F6o763jmt9kKyqvmMRvY87fUmsGaPUbe4vbOKAbI2HlSqeJAeWYn2ravLR3hIvEDW4OHK+nrmqdvqUE1u9jZyM1qP3Snvk9gfWvz+jDmV2fq8qqRkLA8cgsbgFJD86s33SG681YitZre8gYkGBuG9cnpilt7CbSNghL/Z2LKTcESMEU87cYxWvC0zooW2Ji4dGPBwe9ONK43O5n37SpMzEZSFS4PpgV8AeLtXnkvbzUrXC7pGz155x2r731ee1t9G1S4Ey7o4XySenBzX5varN5NnIXZep5J+9k9a+oynAqeGqzl0sfLZxmTo4qhRT+K9xltd300Kys4BbnrU/nXv99fzrhXvmiYrDKAvXvxTf7SuP+eo/WvklFn03Ou7P//U+qHujt44qr9rdT97ms1dT0iUZjuC30Rz/wCy1ZiNvcrL5BZzCNzjYwIX15HSvKtHuZXIRduCSTmmvchz84BA9ayZL6xQbnkZVPQ+W/P/AI7VGXVNPbPlXSDb/eyv8xUxS6k8puqDOWESgkdh71qaf4T1/VZ4obWCWKMuA8qj5UVu5z6e1anwn8OnxnrDWdjeRTpEd7Db8w/E4r6m1xvDfhMiC6MqSRRAMYF+Qe7kcAVxY2uqcbo9DA4Xndmj5A8f69N4YvNK+HvhtE1C9uWKrqSp86n+JTntXA+KLCfwo10xuYn1G1XcECgbieufX8ab4j1mxsvGs+qQXv25bZ2lhIbCjdnI/OvJPEvxc1GDVdS1m5s4ZkCnG4bsZP8AF/SvBVedSDdj344aEGkj5l+KHiq/vNeN5rUSRu5yBGeCK8u1O7jlsTIu1UOTik+I+vx315Jq84CLO52qD05/lXmq65byRukg4YAYzRh6N9zatKy0PTfhb4tvYr670iGUrE2CckhAB1Jr61ttVs2tM22qxSj+IRDn6Zr4L8OW4n1MWdllTertfB5Ne1+H9I1LRY8rCxgQ84yazzSmkjnwi5ptn0Roenia4muYuWnb5Q3oOTz2rZ1HUYf7NknjiVZYmEYUDPA4J/GvLo/G6WNn8/7rPyle9djpt6sj26pgh4sqG5Uk9iK8PDSvNJHr1qLUdT3T4qfEyy0j4ZeFPD+jJ9o+3TxNfIBiMWq/65T615p4z0p/g9omqfEDwreMPCt1ZC50+ZGOxlLZltnI7A5xmrE1msN5b+DfHMX2HQ/EsRS01eRdsdrqCn93Hn/nnJ0c44zVK71668GfCb4i/CH4p2YfQLzSbsWcbgn7JqO3MTlhyI5G+aMjgjniv2TKqCWG5j47ExXNZH6LWFsmq6bZXdm2211SBZoBn5RHKu4D6c8V8X+P/BuoeEPEMlzM/wDxLryRt3cKR6V9J/AXxR/wk3wB+HGslgXPh+0Qgdd8abTn8qtfE/TLHXPDsttPCoYglZT/AAk+v8q+Nzqkm3c0wFZxlY+GX1BLLVmto38yCVVKycd66ZtRtHUxmXtwPevNPEdo+iGeK5BDIcIVBPPY15a/im/gXM0pU/jn2r5GMbSsfTSV43Z7Hrety2u6HJC5wMDua7CxIXSLMwhuPnYoCMk9mJri/hJYDxPaXmqeIN32YvtjL8AsPc8V75plvZQxHTrCVWjTJ/eMg/LJ5r7fAxtE+QxVSTm0ytoouJl83pE33g3Xn0ramjFvFtUbVY9BTobLxVdgCw0p5IFB+aIg49+OMVkXuhfFGYxw2OhXVx5rlQ/8OPqK7rHK0zStyisoYZz3NdDFLCNu5lTJxzxn2rko/A3xpkJjHhm5IjPLDB6emax7nw38T4ka017Srq02v5sTOo5x0x1zVXbDlPTHADhWbGOKeU2naG3Y9K88tm8SW+pHSr6Oe/vEiDny2RYth7hiBlh3FbUfiG7twsM+lOrA4ZnlTj8iKhxBo6zg81Gck47Vltr1hgMx2ZHTcpx+tPTX7FgFiVpGboBg5/I0JGZuwqUAOD9QMirT3ShPm4PT2/GuXvotSMKajJBqVsiHGy2Act74waxIpbiGQG7XVpS5yDJbjbg+px1FVJ6FRVjsWk6EfTms65kySWGAAenSuavdf1O3Jkt9NeeJByHGxj+Fcv4g+I2iSeBtZ0AwSQ+KNSUrbzsSqWgPBPoeCamnFX1LSucj8cfG+leFfCVzYz3nk32qL5UaphmUYPJHavzw8P8Aw6vfHniqy8A6fdvHbXY86W7GMxpGMliORzgAfWrvxJ8K6/pccV6NWm8SLIBvlYOSso6gDHT0Ne+fs8aYnhXQrjxRqdte/wBr6jhNoiyqW+fU8irbtsUoHunw98BWvw58KQeFLO9k1KK3kZ/OkA3fOc4wOAK7lR2qjN4hslVp7mNoh1yTnAAySR2qrD4p0i4iM1sXmT+EqMBsVLkm7obTRqm2SVisn3e5HYV8M/GC8PiT4lJJpvzJpsKRMdwAJB54xX6GeEfFHwjuvDupX3iqU3V5B+5FgzYyzdyByVHcivze+Jvw3uPC/iy68QaXq9lcaXqsjSQpaSmT7KmfuSgngito2J52eGa1FA2v3OuXrfanvHaJXY5ORgAAAfhxWfLoerKZLqSylSJMAsqEhT6H619qfDzwh8PdI8Jyajr2l6pLeW0jyxXiQiS2kb7wx14J4rudC+Kt/rOhXPiHU7Ww0zw1do0NxCUjLb1+TzHGMg96rmQc7Phfwxrl34cvf7RsnaBgQRJExDHB54zX1Nonxq0zWkjk1iYy3MXyoWPzZHTNfLvjvxP4A8N6zf2+lRxajBK2+Ge3fAAPUbe1eS2/jHSdQ1RBv/s2Asfn5J+ppSp8yOmhiGj9MNU8b2fiPw/qGnX0Q8q8haElGVl6dQK+F4NUbToLnQZ1MsMUjBeOMKOK5HUfiDq1jKljotzLd2q9ZVUkH6Vl2+vXk05mucnPJ8xdmTWVKlys0qYtTVj6OlsdF1eDTW02BYnVQszjqSa83+IvhoWc8kgfa8cZ4B61v+GL+S8sjNbsMDGcdAfas7xg8bQNb3Mm7zODuznFbnI0eh/Cvx5cf2Fa6WzZliA27iMFfavqjQPEtzDGjvIGB6gDt61+W2hP478N3b6rpOlXGoWQLJG4hd4xj0KjqBXo2j/HXxzpk8UOpabIsKDD4hbcR24IrZ0zFo/UaDxhHAA6ghmHSu0sfHEGxQQ/OO4r839F+P8AaanPFDrsf9mQR5IkaJiX9M13Phz4j+Fbi/aXVPGUVtbOcISnAZufXoKxHZH6Rad4mtZ0wHwT61vLfbhy/wCVfKnhvWdGKbdO8UWN+AM+YWxwee+K9P0/UPNUfZdWiu8Yzsbeo/Bc4pOKYmj2iK83KDu/WrgvIuBkbvrXm9tqsMCvJeX8IjUZJAJwPyqaHxb4YgxI+sxScYCqMn+VQ4JE2PRWuipGymNM8qHgL9DzXN/8JDoLKrxanBKXx0bBz6YrAv8A4h+HNJljebUQ5JKrBEhfefcgcVcNgsdwWdGJUbvx6VZS5YKoB+p6muJ/4SawvIyy3kNpJIvyh+nPTIqzBqzQWiC7v7OWVcjcDgEdulNyj3DlOxF46Fh69KrPeyBScgGuHXxjYS3JtYbu0eUA8MzgfgSMVdtdYt7+NRbNbySAENl8DK9euKCXSOia+aTagPzH0/wqqsrAkqclevr+VZLi8cMPMggDAjcrgkfSs2OKbTkDR6lbs2Pn81xkn1OKLENNbHWNOzYP49aryTO5znOetcYvjHTIXWG5nhe4YlQkTZP1OTVc+KNOu5jCt2tlKrbdkvAb3yM0FJNrU69ZHEgUDIPWvSPh54QvPG+tCzRCNPgAa5l6BQf4frXlryyW0CmK4hkeUhYwrDLMfSv0E8G+F4vBXw6sNKt4wL7UcTXDLyST2J9sisqijY0hEjubi20HTobezjC2lphAoGMDoM/X1r0PT9XluUl1BSD9mQBCPQjk1Zh8O6XJYPBdpv8ANQb+/wCIzXB6pp174ahFyzE2LfKu05/77x0rA1SSKmueI2nASWTvuz7VzWlXv2m8lj37h1XNYmqXCzR+ZEyuOo2nI5PSrHhm606eGeSJs3KA4HpU3KcjE+Jen3PiTQ5WDbnsMyD14GMV83eCvFNz4X8T2d7HJsgmYRTjPrX1hb/a3t2cFdsjZn3j5dnpXyj8RPDY0jXrhrQEWN0TJE2MFG6jH4197wpjfbReFmflXHmAlTlHHUlqtz7dRPttlI0eWhnQY2jt1yK4W61CSxtJ4dDg+1RQsNwkAVlbv7E+lcn8KfHE/ibwpLo1wSuraWmGQHaWiGPnH5ilE76rqC29xKbe2IJcKcZYdCT614mc4VYWs4H2mSZjDGUI1InpHk3flhI7RoLsQDCNyOR169TXM297qUSTG5nZZVwvlvx8o9KsQa1caZbrI7vcg5QM331x90/hWHfapeNIouG80nlScZ57cV4nt7M99QTPNvi7qcGmeFZYo/km1FwAAfvc8ivkvxTo+mN8KLnxPexuZ4NSS0RozlQuDkt7cV6n8cPExuPE8GlwMTbWUIbAGcSt1rt4/D+lWHwItdM1y2S4a+uftj+bwQcnsPQGvvIL2OWqT+0fm7k8Tm9raQPjfT1gmtUkKqc/7LVd+z2/9xf++Wr6MtdG8NQW8aQwWpTaCvToenerH9meH/8An3tf0/xr4TnP0ax//9X9SLP47+E7GLypfDskbehMJ/qabffH7w1NEy22ieUzcFnWJsr6Yr48iLyHEI59zk1n3Ny0DFGwSOuTgCvm/rOtinCyPpfUPjHoU7k3wkht/wC5FHCQPpxWBd/Fj4WqpaeK9luG4hX7Pbnc3vkV8wahfqAwcgKw4x3q14RtL/XNYjgsxvhtiSWjILc9QAat1kouYqMOaVj79+FGv2KeHp9VW0t/tM8hCAKkbhc8biowPevMvj546tdF0q7httdtrN7tGM0O4MW4+4OPWu00jwTaW9glrZQSQx3MAjZWblt45J54Nfmp+1J4E1P4Spcapplz/aGmS8PBOd7RE/xKxya+NzLN41Kipo+uynAJLmPiH4jfEjxHHf32nQE20AOSc9QTx+lY+l/ESCHQZI5CXVv9Zu538596878ZeIV1XMqsCxIJ9x6VzVnJeSWDrL5aRemea9zBSSp2OfFW5zW1fWLXxHeZSLYASVB+7zXH63BBZMgDFABk+9a9jPawXILkcGofFsH22FZLdd3biuhR1IburFv4YeIPJ8aWV02NkQKkHpzX354Hv9O1i2ubUSAzh8qigcg+tfnP8N7Ex6jM06YkC/L7dq+ofhD4pg0TV5lldWLttyxyRXmZvDmjodOWTUZ6nrHiXwjCbyadBt2AtjtWD4d8Ryf2jYC7Xa8U6xxsPuls8ZHcHvXqeqlbmCS6DEmQ9P8AZNeOTNaaXdNLLFxG3mBs9/YV8fgKjjWUWfXYmhGrTvY+kbXWItXu/Efw3+KcpbwlqtxtkdstJY3KqBHcQf8ATJc/vFHXirt7p8uorqHwl+LMgsfEejabMuhaxL89vqmnGI7IpiMiRmX/AFbfw9DW38Of7A+NHghdAnjWx8U6GJbjTWzzeKeGWQ/x5Haqmnix8U6XJ8KfiOTFfWjO2kzuCLjTblgcwKTy0Mp6ZPy56AV/QOWUb4S5+d4uklUcT0b9i7V4739mrwNdY+WOKe2K/wB3yXKhSTz2/XFe1+Mr+BvD98N24ldoX3HcV8//ALD9jJafs+xaTcoUk0PXtVsmU9tk2ev4GvbfE39lJcT293IoReoJ618JnjUWYYGi5VHY+DPHU+s28UqW4EuSVG4Z4/xryXwv4P1PVPtN1qEjNtbcFPBB/wAK+pvHs3hyaYR6SQZATx1Ga4bRkVrxbdV2mQjeQDgL74r4mhP2lRRW59bVpqFPmufY3w9+E37K1z8LtN8NeNtXuPt0n+kXASeaLEjdV/d44+tat38B/wBk0xKtrqrSrGBt8ya4Y8dB3rx3RmsbWHYZ42K8AbScfmK6CSWzngMLyKinHK/KeK/QaFNwikfC1qnvs9EXwR8LNHRoND1WNLc4XZvnAx+BFbmjeJ7DwjMtvaWlpe20H+rMlzcfyzXkf2ywjiEUcwIHc/MfzrMuLsud0TIw9FHP6itlInn6H1bD+0BaW5xD4Zsi+OSLhxn86cfj5b3kyef4SsLhEJ27piWH0yDXyPvLDPc9iP8ACr1kLNJBIUxJ3z0p+0QaH09cfFrwbPJuuPAOmyt/ttn/ANkxWe/jn4dTct8N9GyT/Fj/AOIrxe1uQTsEQG/jOKugNEwZ8N7cVXtkI9bHjH4eLwPh1oyg+nH/ALKK07bx38PYVGz4faUp/wBkj/4mvGnui4B2gY9hVYzqTwB+Q/wrKVcaTPoq2+LWg2EW3S/CdnZ4zjY5OM/TFeZeI9am8SSu8t29knOFiOQAfTJri1kUqPlA+gp/mBhg1HtRNHNXPgCyurgTy67fy47GUhcHtjNV1+FfhwTNOdQnZicje27+ddO0m0jaePSoGdicj+dOMrgtDmT8MNAjDo2oSyK5yR8v59KuWXw48NWbCQajcttPALDGPTHStRw55/rQgJPzUvIftDmLr4XeFSz3EeoSJcTEZdgpA9iMVcfwHoLL5Oo6ubhFOY0jQQqox/sY3fjXReXHIcFeKVbdS2e9VFWIc292eeXPwS+D1zdNf3lgs07ZO/e4YE+4x+tUL74IfB24hdP7MGZc7yGOXz6jpXrYtxjkVAYBnB/lWqloSeGTfBfRoYjaaR4gutP00x+X9kjA289eP61wn/DK/wANmt5bG/1LUbqznk814FkWONmPUHBHB9K+pJbZTnuKptbqDwuKSmOx87Wv7J37Ndso/wCKXMjDnMk7tk1u6f8As4/s9WDb4vCNux6/Phq9lkg/ujFR+QAORT9o7WEcGnwi+DkUaxWvhu3gQfwqox/Kuf1T4OfCW9jEd14dgwOhxXqjgZwDWVcgJx1+tOM9dQPz7+MvwStfAc8finwOsn9lyf62BckRH1x6V83+I7O41XSDqaqGmjBJwCRx2r9bdThhv7SaxvIw8Mo2sDyCDXwB8VfCV34D1oTaNbk6JeMfNPUR5Pcds1Xt7Gh6h+xJ4le18Ha54f1Io7RXYnVWG4oki47544r7Tmm0Is3/ABLLRy3VmgTP8q/Kbwr4s1D4d+Jl8Q6TH5lrJtW4jRfvRdmA74r9CPCvjXQfGWnR6noV0tzE4OcHlWGBg+nJrdVEzM7a907wVfIYtQ8NadPuGGZoVBI/CvPdW+D3wR1bd9p8J2cMhHDwLsYH1yMc+lduPKKb5Eyfr3pxjjK7tg4rOU9QPnu+/Zy8CIzPpWoahbseVXcjIPbBJrrfB3wxh8KahHfaTrdxDIvDAAbW/wB4dK9QljjYjYMU6C3BfBzn1qfaCbsd3pyGVU8+4jb+8GjXB/Ctn/hHrSR96zWqZ/hESAY+tcZZ6fO8oJdig4xnFdVDphzjb096mVW4uYhvvh1pOsKPtM9o2wfJ8oUofX5ev41QHw0js23watCpbqSM5rqobLyz0zTnt32nDY9M44/Sjn0shpnIv8MLiUnOpWw3d9mf55qt/wAKgv1bEOvrEg6xqg2knv1rs2SUgxt84A9apiwbduLMPo1Ky6gptbHPy/C3ViUaTVlYIANoUBfwpB8MbtcyLeRKeMNt5roZLGaViPtEigejGqckDROsImmbPsf50+bsJy7mLJ8P71SGe/ifHqDzWhB4At3X/SFim3ckjI5q+1lcYxvf8c0R2ExP3mJ/GmqhO5E/w38LbhNNaKsvUsMdf504+BvB6xkJaxeYOrMCasixmVsmRh7ZNWDEShBJI71EqpSRoeAvhZaa9450e0jKvFbSCZxGSwCr6jHFfpvb6AgvFkB22yKAqDocf/qr5E/Z10UaTpt/4njGLi9cxq0hyBGp5x6V9SQeNdOit5Xml8zZwoUdfaoc0zVGpqDJbxzK2UCjqeiiuK1a8hvdHuLWBxDA6/vMncGYcFsnoD7Vyup+Kb+4u2fUGAtBn90Ou1vWs3XdbtotJmt4QsEDr8qnqQfrUuSGldni93rVtoeoPoc0QUTsWiZTuBB461n3GpPp15He2bbGA5Xsa8Z+LF3eaNZLd3E2w+YvkgH5lGenriuwbWbe4itAx/eTQIxIJI6Cub2rOl4Y990TWY9RtMumRIp3exxXNeM/DZ8V+Cri3ZPKvLc7oHHXC9j9ayPB19mKaKEF0jIBOOleopdpGFWMZGOQRwRivSyrFyoVVO5wYzCwqQdOaufAlh4s1Xwnr0U8TFJYnEd1jgtGOPy+tfXtpcW3iCGG/wBPARbhVI9QD6/SvmX48+HJNE1Ma5aIEg1DdyB0b3rs/wBn3xBdap4Di1W8JKpK0ayEHDBTjjNfY59Up4qkq19T874XwNTBYmeHfw309D2+93rK1qzbfIAzjoa5XVtTstIVtQvJVSK2RpW3tjdt5AGa1JZ5ZbmW4J3MRkehr5w+Pltban/Yum2U7z3u/Iht5EdSc8eYEYsPyr4rBUlVmlLofoeOqOnRcorU5/w1dX3xf+IMepTWi2tvbEzS+WPkES/dDepIr6F+Iy2l6lvpt/aW81v/AALNJJEroOgxFz/L8ak+GPgWDwR4YjgA/wBPvCHncjnnHyj2HWvIPibqKzeObm3FzIFtl8vDD5Rx2r2c3zNTUaUNkeHkOVOjzVp/FIyX8C+B5XaT/hH7aPJ6LeXJX8Pmpv8AwgPgj/oBwf8AgXc//FVSSeBEVTNnjrg0/wC1Qf8APX9DXzntD3z/1vXp7y4hVHw0cjcspHNQRa5pMWoJLqcK3UCKS0RYrn3J7V8QS/tWW+nSfYdWjaVhysrAoWHqc/4V5r8R/wBoLRdX0kS6HqT6deuAAFUSByx6Gvhlg6smepzwWjPtHX/FmkTXkstrJHBEX+SMNkDnhVP+NfWfwV8P6b52nahLdeUHQu0bHaBn3xzX8+tv8XNY1S9tLO+kbyftEYkMSkEgNX7dfDzxNZ+Nb3w3pdixtNPa2yrE5cbBjJ9ee1ZZlRqQo2Rtg1BzR+kev+JU0/RzcWDLvhVQMDeMDvivz1+Ml7p+rGRNcu4Nai1VCJodmwwL/eHXmtP4tfF248KSz6FaX3mqkRQsnDZx/dr8+v8AhaMer6w1pJd+dK+c9ckd818DHCVZVHUZ9jh/ZU46Hz78bfhND4du59f8CXP23TU/1iHsxPIUdwK+dftzRcXEXlOw5UkjHbpX6r6f4Lttd0eS4tsSW8ilijLjnvx7V8ifGf4QSWsZ1Cyh2z2y7yoON6fSvscrzRWVOSPIzDBuX7yOx8w72hX7SoytdFputG7VbO3UTSv0UDNedXWoCLMJ4YYHUfyr1/wH4B0fUJY7mfxxHpt7LjbFaWU126j/AG2RSoPrX0PI7cz2PGnVs7HosPhiWPSF1Wyhxcqnzjnj1zU/hHQvNZ78v5Mm7JB6k19BReH5tB8Krp32w6rHcEZuzH5bN7sp5U+xrjJvD9qIQkS5bI7da8bFYmDuj0cHSk2pHfaT4miubZbSaRBKny4JHOPSuF1/VLSS9ltVYB48Eg4we4HrzXNalpE9qgVswyA7lIOCtcFr95LcL5McjSXDgAMOuQOCP5V4GHw7deLR9T9YtBo+2vCGnWWo/DrTPiJ8P7x/t3h6Rhe2qnN1ZzBsCXAxugc8e1e8301n8bNFi+IGgqln8RtFiT7fZjH7+JOsiHjcoAyG9eK+ffhxbaiuhaL4y+HcEUHxE0OzMNzoxP8Ao2v2GP3iYOB5oHLZ56YrTOoxyaf/AMLY+FErQhQ8GoWh3i40lzw8UiY3NbZyAxH6V+75ZL/ZOU+ExicqjZ6P+yH41toPC/xH0UnYumeKL2Ybzkn7SSwwfTsPpXM+I/FN34i8QXTGcrhmGAf/AK/pXzn8Lb648KX3iz7C+xNfnjnkAbevmRqRvU9gSc47Diui0zV7wX0+oTsp81icj39q/LeJZS5nY9HJsMubmZ3k1tawPuYZAyTk88c1P4GE8stzqcjYDkoq/wCyOhrlfE980Fik+cedgKfrXqvhKx8jRLZtgBkXNcGQ4SXMpMWe1nFWR0MM07cZIHTjitm2eQ8uCPYnJqlHAUOcVqQEMcAV9bFNPU+TTT3NE7dg+UflUAGD8ox+FOYsoxVfeVPXNXYzk9TQSNG5arHlwfLislXJPWlyf7xoUBXZ3lqV/dnPArobyBCsc8GGjK4JXkZrg7G6Ai2s3I6e9dRp85eBoxk55BPf2Ao5QuxXdUHHJ9KqEhju6VFcyFHw3FQCTPQ5qfZIpVGaSSLt96dnJ96oKxxnNWoSS/NNUQdRkwRiauRQhh0xSLjHSrUROMAZzVxoNC52V2gReDyacsHTHFWJMbCehFV0lDcbsYq/ZGauXvIkROx/CoFgKvukUgfSrolAi68imed5mAT0rVwRdnbcRh2UZFUnRicYNbI+bCgDGM5qq64zS9iQ79zPWIdKie3yeBVsKVOTSrIp6iodIUZszZIAeB1qjJFjrW9IwPFZkgXLZ7UvZM25kYkkPqKwL5SprqJSuc5rmtQI34rPlDmMaVFk3Ke9ee+K/DlprmnXVheKGjnUq2eevQ49jXoEhKtxWDqAO04GQetKVN3Gmfl/rVhrXhvVbjw9dFnngYrGSuQ8R6CvTf2WtR+xeJPE+mSkqP3brHnAXjnA6dQK6v8AaG0VdPih8WxxlTEwifHOd3QnFeQfAO/ttP8Aipt83emvwYUHoki84/GumHw+YH6SW1wsyhS341de4VfkQ5Fc1AjBgBWpEXAxtzUyT3IbNG3QPkseM1egUb6p2pOMEHNaERVX5rPczlI2bRsAc9/WugS4kjOOtc7bldvFawbIBqLEqRfN/IOADTTfSmqe6k707Md2Wzdznviojdzg/eplNK5OaNR3LKXtwjbgcH6VKdSvWHMvT2xVUNik4POalpiLQvJn/wBbI350ov5U6MxH1qkRUZI6E1DTNotFqXUpDyevuc1lXWqSKhIbn0FNndcjHNYmoT7UbbgZqJ3sPmPr74K63M/wuWNH3D7RIshx9xee9bV9qVzFCPLYSWqnAx94+/vXlfwV12wfwFdaPp/yXltOxnRuCQ/THqPeuq1HUAIgEjOAcPxjGelZ81jaMW9Dqf7QZ33XIVxgOSvUgdqwvEesQyaVePdru3Rl0IPKkcisOS9SG3uYY1ZW27WLDgZ5BBryb4ieNLbTdMuFkO/ytq5UE5BHtQ6hpCk0zwD4teKLnxOEMMnMSYcD1HQiue+G/wASLyGCTTdUnMzIpRW6ED61z3im6soolvI5CRdZIwPuj39CazNNk0Ke0WCfbBNkbSpwT6mue53tH2/+z/4pn8Sav4ksrjKDTQhjGf8AW7uMivrOwS5umO62MKEbFLd+OTX55fs1i+g+KMtvHcb7SW0djk43FehNfopaXdzcJHGzeYqZxzjAFdlNXPNrbs8u+MHgSXxz4KutAtlVbxAfJZh27/Q1414Gj0nwr4Nt/CduPI/s4skqnORJnJJz69q+vLieELv8slwCRg9xX5p6t8S5G13xNEIFVXunjdT9444zXfVlL2Vkzmw9KHNzNan0XrV1v0G5ha/Fi97G0UUjHGN3G4Hrn0NR/B74R+G/A2ji5tiuqapcMXm1Cb55WD9hnoBXzLoHiu/8d+JNP0u+JNvp5VUU8DB7GvvTw9bxW1osMK7FQDAzx0rgoNxeh2VtUdZDbRbEIYbgwwO1fAnjC9vLzx5r8s6EMt0UAxjt1r74V9kLTgf6sbs+45r8/rue4vdf1bUZfmM9w7A9+Djkdq0muphzdyIz3Ofufqf8KTzrn+5+v/1quZPrj8KMn1/Suf2bK549j//X/M/xh8QfE81q+lW4jnsmZo4UeEO3zcdetcL4F+FOs+KNSvlntmFvaKcMG27ZCMgZJr2GfwZ8Xb+eKbRvhh4hnMHKBdMlI3+vC16x4b0DxV4f0hR4h+F3i+9vZHMksaafcJHvA75UZFeFTjJLY3qyWrR8E+JtKuPD1+YkLxmOQK4OeMnsa+3fh/8AEX4lWiaFL4RtxetYxbY3IbAPfIXqK8u1XwP8QPGvjOO1ufh/rOk6XPMiuHspVWNWP3mcr71+rPwe+C/hTw5YafpUtxcW0lujFNqGNgwOcksBkVyZpiOWnZorBS98/OPxl8V/Gt54hvD4y06WG/l5DQqXjYHrg9hXEaZr2m6FqX9teTcG8O0plfl59c1+2f7SPwx8PeOfDeitA9laSeTseaOJQ0rIOvyjOTjmvx0+IfhiSw18aTFKCbdhlgMKcHjr618zRxEW3GCPqFdW1P0A+Gtza6x4TstTumMUt4uSq9s+orN+JHh6x1LTmEMsayRKzyySHCLH6MemfauD8AalcxaLY6ZEBm3TJZTnGR0p3imwbXrW8cyNItoA8kGSElQjuB1xXz9Ob+tI92cF7Fnwq3wrF148fUPDkDX+nTEkGEKx3d8A9vevuD4YeO9b8NabD8PfDugLZ2TyZuJjHEZnZ+DudeQO1fAPxI1LXfDfiN7rSxMkfX92xSMA8YxnqK+iv2e9F8Y+J8eK4bd3tYyVknRtqDb6sTyR6V95UqN002fF1YJM+pfHOn2lkgsYNyh/mIYZy3ua8QlFtYSmeUk8nA7Zr2fXJ3vJFW5bc8QIJPc14D4mm/fNb5yVBIA718vUa5tT6HDQ5Yqxk67ef2pFPPEMbVPUYzgV5z8LNButX1865dReZDZl3iXs0idMj0yK9r1rTRp/w5OryRbJn3D328jP6Vh/CIJaeFAWJRizknv610YVrnTN68nyn0ePBl1f+DrL4r/D5muNatZCdUs4jiS2YEbJYgOVCnlh3FSaDM/i/V/+Ey+Fssek/E+NGGpWb4Njr1so/euE+6ZscGPHJ5GcmuW8Aan4j8A/Y/id4RfzxqkkkE0JbMEoT70c4HCsR93OMmvQfGXgbSfF2gyfEz4Mh7W+WTzNWsIGImtLjqZIwOUIPJHQj2r9eyyrB4e7Z8ziIu54e1pbaze63rmlaOujR+a2+zjYuIJD94HIGOcnHbpXlng/+0otWuLSdzJCjMVz9a+09HvW1e01LxBq6ReZfwqkzIgQzyKMeY4H/LQ/xHuRXjHhnwxHNqly0afeJ9utfmef1Y87PbymNncydNSHxRctY6idkcZ+QD1Wva7S+s9Lt4rEOf3agDjPFeYNo0eha6VaURCMl5CeiqepqjF4r0/U7yeCyvFkkjJ2KY3Xco7gkYIrbKJtbHl55JSdrnvUV5FKhdWGB71MutWNpL5bzLn86+Zbnxxf2v2iNQ0TxLlWKEgkdvlH86Zp3j0380Uskf2dmUK8sqkIp9QPSvbhzN3Z89yKyPqVPEOnTNtEv6GtWNIp1Ekbhg3oa8i04X1zCJo9a0wkj5SHI/TFdZYyarYr+/1ew3dcK2c/lWqiw9lE9BSwIUn096RLSUNkSKgxnOc8enesqPVtX8hZ4/EGkopH3ZdwZf0Ndn4T8M/EbxlfWq2ms6XZWMrEST4VvLjA++FPzHJ6VREqXYolPs8fmTyhE/vFcL+dInifRrLTXvJL5DDIxi3Icsp9ccYGR1rcT4L/ABrvDJdQXlnq9uXZUVZEwyrwGCE8Z9KyJP2bPjYlk1y2h2KxFiTFJNGjlj0JBbG2s+aXYPY+ZEuo2N/aJLZSGRYxh3Jyua1LNYZIso+5j0xzWBo/7NnxVuhq1lP4aL3TWzNBLb3JihW5bGzODtIHOapWP7Kf7Sdi6QLbtGmACXuk8vcep6k0c0g9j5nd+TFG3lytgt0OOKlQKpAU5qnefB74zeGLNLSa0h1SdCC83nHaB/dVev4965meH4jaMk011pyIYhk5J2/rVwkw9j5noHAIB/KmrIXlEYJT3I4H415xZ+NPidDAY5NBgkim6SGNiRjoRxTx4u8Z3QmkeOO3hUbUXyTvRv4mGOufTtWvtA9j5nqcaw4KyPvx1wP0qMw2SPuiV93XBHFcFY/E3WUuEtEhhjMKZ3S27AE+pyK15PilrM0cKxNbSNcAsHSD5gV/hPHGTwKl1kHsfM60RiXKqCB3p6Wi98qT69veuX0Px18S/FmoHQfAHhyPxFq6qBNGInhitgf45rmQCP8A4CCSe1fc3w/+CyppMF18R0iudXkUGWG3c/Z4z/dHdsetb0m30LlA+SPss6puhDyn/YBY/kKt2ukalMPMa2kRT/fUiv0U0vTPCulOdM0u2tYJk6xLtL9O45PSvDPjn+0h8Ofgpdaf4e8Q2cmo6vrMcjWlnBECZNgOVLHgE9hXVZIiNDmdkfKV5o+oLkrGcY4PY1WsdG1F42JTLA9M810Ol+L/ABb4l0mw8U6d8Pxpema3PIYnW6We3EI6O7KSyOMEla4jWfHPiHfcPZRwwImRCyq0gc9AWHXFc1Rq4nhuXc6U6POCFZDuqjNok21zGjMevTtXJ2HxD+IVm8UGq2seoCTkeUnlxge5fBrZuPiH4kkuBHH4fCwxnMkuWcsp/uAf4VlKVilSRRudLuIeWTHGev8AOuQu4xvO8gbfeumPiLxDftN9n8OyIqg7Wk+Xdnvya8x8SaV4o1NXIsXhdxk7HHHtmsOd9EOMIluZhv8Al+Ye3Oaxb268hGjlgZvwOTXi2s/DnxczL/xOr61MvVYnLbR9VrK/4V7qtlZSte+KNcvZ3YCNIgqRp7uz8n8Kh1ZdjX2UTQ+J3g7X/itpy/D3wLYG713U282CJztUpCMuSxwBivh/xN8Pvib+z9420dvGmlyWd7BKssLoN8Tp91irLkFR3NfXfhq38VfDy617V4dTvpZtX0+W0hu2Jf7GxIIx1Pznhsdq674ifHK68W+F9DsLSwWS80ayS0kSW2ZxN3kIJBI3deOnWtIyezMWkX4fEi3tlDqSXMarMiyfeA5Kgn8qSXxTFZwLeTX0Xkv0beMfSvneD4Qar41uBqT2t5pdvMBiGMsFUfQnvXo9h8AvDVpbwW99Jeu0ZziRhsH4GhzewOmmej6f8RdMl/di6DsTgBRmvRdA1VtU3bAWAxy3y9frXE+GvA+haHGWsYIZNvLMxBIxXeRJZCKH7NEboTE58rGwAdR7VHNJbIj2ETubWyvEALKCG5HI6VpbWUYOPzryuHxXpH9pjRbHS9Sa5LlQwVlQY9GJxzWhPf20RZ9Xs7/SbhW2qJHDCRf7wxmlzS7DWHiej+XIRngD601QxbapBP1rzaPxX4ckzZiWVZSCFJnVdx+h5/CrGmMYLGPVJbS8S1dz+9yFjYqegLY49T61Sb6jdCJ6K0NwuOg/Gkw43ZBOz72BnFee3V7rmpTPJp+61tWxtU4ZsH3Fben6N4gKRwWPmvIOR33FvWnZi9hE6VTv+4fwNOWC5mYrEvI5yRxWTD4e+KbXBXTfDlw7J97fHw3riugmt/iLpcCTSeH7hppuBHHCcofU+1Fn2D2ERE0HxBMgkhiGG6c9ayrzTtbhkMEls7yL/dGR+ldlDd/E2CxWIeHb64fgkRwEFfoSK3ILn4rTxrFpXhnVI5ZmCs8kBOF7ngY6VLIcEtDzq08C+MtWZha26R4Xd+9fb/SsqX4XfEm7Zl+zQxovBd5cDHrmvWh4t8ZaPJeWOq+ENekEXyiVbNmSQjqwIzVK++J2tPYXIh8Ka8zKiRqRYyEkuQCGGOBz17U4wuDidh8FvgzrXgjS9W8ceMZ43/tULbWsEJL4UHlyfw611up/ZrTzJYo5Loocoo/i7D617N4i1G1j8P6NaTXKWtxZWkb/AGRPmkJK/MCBwMVxulWFnfW0V/FxHOdq5zgN/jXJOGp0RlbY+evH+u6zpdh5trpF5ersMssccX3cEdTk8DPWvjnUfFdxr80kl+FsmKNIEOdpK9Bnv0r9L44I9TuLvTpWkglRinm7SpIH8JzwVr5U+K3wz03xD4fk8VeHmVNesPM83Kny3iQnIRVGNxxQqSZSqO58X6pbW99p9rrd80kPno4W3YHDMOc/h1rzC18X2VzYR6Wtoz31uzo8i5+XB45pl78T7CaVtAu7kr9mLKqs2dj56c9K56Hx34R0e7bT7aWNWmO95CwyznrzVTo22OqNW+597/ssarNe+ODcuhRLWyaIAgjLE/4V+iWjzsZgijG7OfSvyI/Z5+Mug2fxGstLF2Ee/UxxqpBMjHtxX636Y6w3Ww7lPGQexI/+vV0os4sRbWxsajvhgZIv9Y4IUnpyK/K/XPh34vsPEmvXd1EtzC15IWaLDEc8Div1V1ORY7KW4Iz5CMxOM9BX5s6V4+Se81C8s71AZJ3Z1EinLA85BNaVqkkrGFJanJfChUTxfNBcAxyqygqRyPTIr9FtAWZrdVcqGKjkcjFfLsmp6D4htbbX9ItI4tUilMd00ZGWUfdJAr6Y8Jz+bZwMeuzn8q48O5OT5jpq7G9rLXNpo15dQSqnlQuRkcZA71+eM3iCGKWY+ajl2LHbzyTzX218YPE2meEvhvruv67I1paGLyDMoyFZx8vHJPT0r8o7DxVYzEWmkXl1rOwZkktbRpVQt0V9oOD+Ndpglc+g4/EMci7kYY96k/t0f3lrwG78Q31tMYjL5ZH8JQAj6jsfaq//AAlF7/z8D/vgVnzM09mj/9D7a0vUPF9nbw6e3xJ1to2K/vGSLfx9F7133hv4leJrRWXxD4zvlYSFUD2EEuUHRmIKmvnJL64jXAck+tMk1K4B3I+G+nLfmTXkqry7GDZ9S618Q9S1iwkt9O+IK2zODgyaKjkZ+smOK+SfE3gHxPea1aeIb/4jS6vd20jMqxWKwxlD/CVWSrcupSzAiTIK9AuAP5VitqM8GXW4aF1PHQYrlrw54tM2w1eUZXRsfEPxXdWx0r/QzJqVuY/slogH724PCZUE8E8nivzc+Mml3Wn+PItBvJ/teoLdJHfXCIMLcudzKB0wm7H6dq+nPF/imTTtUOsaddTS6kJgVYcGNiMbg56Y68V5BrM9p4b8NXBWFb+e6ujdS3NxMJpjI+CxyO+RXyn1b2NRs+soT9rFFzwhbSaW8unrcGcRHy9/RmBHOR2rpvMn8O67b6tjzLG5HkXCN/CpGB9a4/4Z41vWHmkk2OXUkdvrX0r4p8FomizXgQuNoAbsC3Q+1eG/49z6G/7mx8J/Gb4cwNftqYYJYycSYOflJySPevbfhnLqE/hix0rRrf7DodsD5SqSglJIyz4xk/WodBsbj4j3jeBImAurWRfPnbBigtUOZJH/AN1M/WvSJdZ8H+HTcjRr5LjTAfIt7wjavlR9NqHGWJHXFfStvlsfMVYWkS32mNIsoQAZGFz9PWvJP+EON1qgScEsx644617n4fvrTWLT7VBuMJ6M4wefUVtW2lxyXCyRgHbzmvmMQ7SPoMMrxPE/jBp6ad4Qs9Ok6kYxjrXiySpofhW0kiXa8zYAz27mvon4+xRNo2ktcDBeVh/3zXzT4gktr6KztomylsuCvTk16GCotx5jlxdaz5Sn4N+IXiP4b63c3enxNqmi6qRFqunStmGaBj8zxjHySx/eUivox/Gtno3iSKD4SajL/Z9/ABPcSLsmeNx/q5hnDOo43CvnyGCFI1LdFxgZxweua1dF1q1sbuM7SCH68dz9K+ny7F1IwcL6HkYmonY+m7+4ktbC109Dne5OOmfrXS+EtNVLsgqB5nNeT2muf2nrCwk5WIqQfrX0d4V0rzXa/f7qYAA9a+SzhydRXZ7WBlaKZ55c+G47/wCIskVzEk9tEm5o3OFfOcg17L/bHlWMVq2l6db2igRhWhWUBR2G0BvxzXnPjO4j0/WprmN/LaUDP4da5NfEF00TNG4dRyAT2r67JY+4fK5w3zH0VaWGkfumttN0kRvyxaJhk9vlJNbBXSdpSbTdIzk5zbbwfoCa+bbHxdfGEfKcdgCf6V00er6g6KzMcsM4ya9tS5dGePT+E9Tn0nw9cjE9ppaKeuy224+mDWNN4W8DKoaVbcc8gQtnH1zXHJqMxP72TH/fR/rUct+GG3Ofz/rmplVRcXqdf/wiPw6nAc2kDbc4zEx7exqjL4K8AST5hsxyu1mR5k4PXgOBWDbawtupXAz271nXWsSNGY1kWNyTyDWSqGp09/4I8G2moWq6fpjDTLhMPJ9suElRwOoAkPBrYi8J+Bk2NJcXK46ZvLhvp1auDg1qUPFbvMcsNoxyG+taR1E7gGJPYYGBWphc9f0yz0vT1C6b4hv7dT2jupB/MMK6CGS7Y4TxXqQU/wDTzu/mteR2N48ieYqblQ/MT0Fa0WopyOAfYCtYbESZ6fNYm4wD4lvnGOR533vb7tJD4Q0eSNlu9Tu5gT0Myjg/8BNcNa3PmJkNyOoOK2Yrwqm3IzWiZN2bF18ONAvyVm1vU40AwoS6AUfQbKvWXw08E2kaq+oahMQOrXK//EVkRahn92Ey1R6j4hj0XSdQ13U5I7fTtJtJb65kJ+7BCu5iBxk9gPWhvuaU4uTNq6+GHgSchpLy6fP96bP4Hha0NB+B/hXxJq39g6ReTxTFA8jRzLlEJ5yu3uPfrXydbftG3WnaFpfifxdoM1ndeMkabwt4ftla71i4sgSBe3IXIhjfGUUjOO9R/so+Kfib4u/aFufHn9l6ppi6NGLXV7e4jdY3hlOFyrAbXBI5x/8AW8/2952ses8BaHMfs74M8EeHvAWgxaD4cthBBGAXc8ySt3d26sx9TXzb8eviVrVxrjfDLwvrg8MrFCJtU1If6+NJB+7jth1Lk9x0r6neZnkMStgkBvoDyK8rm+C3g5tbv/FlxG15q+oOrvLKQ4Gw5UAHIGK9WU7x904aMkpanhPgHw4dY8VW+ox6neodPjgs2kvJDJcXLEZ80kY2lu4NdF8fPgT8O/iBc2/iDVW/s/WdKZprfU3kP7plxkEehP4Vc8M6zqVn8dPHGkavpos/D9tptnd2upFwsMkoJDLgnAYetfN/7Uf7RkEds3wn8HtDd674gjCSTAh4rOJl++R3fuB3Ncc5yWh7mAg6tS54n8Avjzpvws+I+q+D9a103fhqWWS1vbBiJI45X4E8I6BWzyOnXpX2hrfgHwRp92VtbdGsZU8+BhMxLRy/MMYUjv07V+WGgfs/+DNL1gW+kaZeX91qLIb26mmYMzlskryMDPQYr7y0PSPHHhOK88Jaxff2ho2nCE6azgecFcfOrHqdvTmineT1Ms6oqF2dQ3hHwX5ckUayKCf+ep/T5aoN8PfDZAIvLwBmB4nyB+YrM3OrEZzU0Wo3EKlVxW8o2PmIN3J5fB+li5nDXN55MW0I/njcR3yNtZ0ngrw8+X/tbU4HJ6rJHjH0KUkuqXigsWqhPqUsqYk6n0qZOxrcz77QLiwdhpWv3kgz1k8vgfTZU1lfatZIYr++W+iY9HgjDj8QKpXt5KpCIx+brWU0ki8k5rnnK7C77nU3B8A3JJvdEeUMMECQLk+uNuKym0P4VlmdPDlwrkjDC4XPHHHyVgySS/eLcClkvoreAPcOSG4GKUQ57nUR6J8OnRWj0u9icZ5NyCB+AUVm3nhXw9MP9GWSMHqJG3gj0xWHb6wtuZZIQ8rHAVTzWqdVdbfz2Qg+nvVFcxy1/wDD67uSRoyWKg8Ym3ICD2ODXBWHhPxDceK38I2VlY2s9t80k3mMYVX/AGRnlvpXQ6t4y1ETtDgJEDySM1yx1WE6+2u2c0jOqHdG2eWI7entWsF1ByR7Zp3w6u4LRWn1KN5j1/dMFA9AQwNb1p8OLdD9oF5HbSv8uPJaVvrl5DjP4V534e8UTyWJtbid5SuBu75PPWnX95qqXKXyXsgiPyld1OewKR6HefC631GD7Pc3sLJn5d1soAPrlTn9aoP8LdVhTybPVbcoAQAYDn8B5mP0rlV1+9VMCaY4/wBrIqsvjeW2dhued8427sViNyOth+HevwHdJqFsFXAOIeeOP73et+10DXbPhNVghUEYwmGGPfJrz0+NGgjZ7kuiMMgZPX6mmxeLIpZEJJYkfdz61ftUTzHsOnf23p05nbXJ7jceB5uBj24rurPxZJBgPJLG4/j87efyxXgMWsKy5yRyePSpl1Eu24Ein7VBzH0tH49jkHlalqN48Q/55tsz+QFbVj8QNCs2Elvc6juXnDTbgfqD1r5aGqS4wWpi6pOjElyF9RWUpXHc+xX+NzowEXnZz/EikUlz8X9UuEItb9bZmH8Vru/XeK+K7/xBHN/o5ebd/eU4/Cp7TxZNbxraDdODxljyKIyZVmdp8T/CNz8SLh7iTxOLGR0ZC8MDRyEPwRuDmvEdT1z9p/4R+Hbbwnokel+NPCOnRsUuSxg1SIk5JOch8dq7DXfFNxp9sJLePB68vzXlc/j27vLk/byUQqydSflbk9MUpRuhxdmdl4H/AGmbTxnpyz+I7K+0iSJWhZvJ2NJIB975d3pjNalr8WW1fw7q0WkWTWuqxbo7SF1Zop1xhd2QMHJ59c14HYXc+mW1xZQ3Ae3abzEJBJA5r1O11u4lt0LS5BXgquCPcGsY07aludz5A/4Y58V6hqFzrV7qNlBdX0jTSIUJ2GQ7iOoHFOn/AGN9d2mf7fYyso7RkH9TX0yNQ1qCdvNvnkByQGPNUb/xJdwqWkmbB9yK2ciW2eD+Af2bvEPhX4jeGPE1wlrJDpl4juY+GxgjjBr9gYt4uXn42ysXXk5x9Pyr83LPxx5WrWDgyECZATu4wTyce1fozp0iy2cM4berorbj7gUkS3ob93d7tJ1FA+wvbyLjHXIr8LYv2edTtb+8uLK9lDSXMzn94wyWbNfuSYFntbhXbAkjcKffFfld4i8WNpmrX9tIW3RXMiDB44Jz0qmgpj/gv8PNX8N+KBPcalJJbsB5kBcnJ7Gv0P8AC5NvCqKcqAevUV8D/BHXLnVvH16bt1MPkoUy2Tk9eOvFffOmYgwPbOPrQ4qw5HexHw6JnbxbYRajo5gYSRTrvjyehKnIP9K1NKvP2efDUVxH4d0mz0z7Y6zTfZYtnmOBjkEHpmvGfiHrJtPBGrTLKy7UjVQASCx47V8sWniGRlUB8sADwTnkDOeagIs+4bi1+CNzPJO1vDIZGJLFRk5/4BUP9nfA/wD59IP++R/8RXw/e+K7y2uGhweMdz3qr/wmV56H8zS5TS5//9H6B2n0pfKLdazH1CQKHkPJ9KkhvYpFzXkexn2OSMrsllQLyK5rVIoijO6AnHBroWffnFZlyItreYeKHTZSlys8r1nwSNUBRIzHA/L7flOfXJrw/wCI3h3wzpmivY6JHLe3A+ZpJDsSIjrgZyxr6ku7sMpjVjjnPOe1eG+IdPiuEnjlXO/Pb3rgrYZSTbPVo4lxdkzzj4La5ZW87QuoWQMN2Tk5r9HNI/s/xL4a/sm+VlV4wC68ndt+Xn61+WlnYv4P8SJcsm2CUjkdsnAzX6NfDW8mv/B8Oo2Eu5mHCjkBiO/8q+QxmGcKqk0fTYfFc8OVM/KXUfGWtfC34m+J9KvpzcRRXLI0UTbfNTrhypzjHUHrXeW82neNdSg8QPeN5EoU/Z9mxIwOiqmNoHuOa1/2nvhJf6d8WJvFYs/s9p4gjDMwXK+euFOfTd2roPhz4Y0tWIv4t0VhGJJQOBgdvevoaNOM4JI8bFzake2+GpJmktbe3h22bkJHu4yo6HFen2MEqzmLjIPb2rhPDF9Fe639ulOcfKqD7kSdlA+lemWdm890fmC4bgjoQa+OzONqlke/ltX3NTw39q9JY/DWg/ZuGSR844zur4pzOG3TnJ4Nfb/7Q7/aRpOmXHWIs+D6c4/Ovl+60YXkaKINrR9+lfQ5NTTpank5tXamzlVuwIwucHpyaiWNvPjJP3zxzXSxeHZ5JkSWNQgPXvW6NEtUu4owwULgAkV7caVtkeMsQzd8OP8AYdRtpJG3ZIBOc192fD8CXS0A/iavh82SWc0LbxJiReQK+yvBV81vpcEtsC6qoLY9a+QzKk3O7Pp8HNuKPOvi5KE1cwR7S4OMdD0rzbTLS5ZgpbC4xjNekeLdP/tTWpdUlc7zn5celcvpVmjyFiCM9TX02RJqjZ73/A+ezqVpmxpVk9vkdQcH6V2IR3J2DAwOfWqVnbeWu0LjNdBDbpjnrXuRjc8aLaVkZTROvLdqekRkzxgiugRIgMsuPfrTLiBribEZC7Rn0rKUNS02c69jI5KjP4VQTRbi6zIYlTb6kciuzktmBB6cY461VEbQhiwLjB68daSRXtGctbadIt2rlhtjHBznn0rrLOwkkdE81R3xnnmqFno8kzCeI5jJ5weAa7Cw0kI63BIEqDjHU+1dvKTclhsiq7CxB744q5Hp1vORDJCHI5ya1JNPMyht+GPJpYovs0gV396fK+wmTRQfZhtA49O1WEXcwIqZ2hKblkDHpVVZCG45ocWYyepoiEswHrVfxt4Fl8cfDnU/DCy/Jq09rBNDGT5ksDTxh0BXkKeje3Xir9uU5eX7qqxb6Ac14H4c+Ldx4z+G3jeWy1D7Nq8SalaWrxnY8YhA8tgR0bPQ+tZ1dj6XhjL/AKxUa5krd2e26fb+H/gD8SPiL8ePGNjctbWNjZ6VaNbw/aLi206wVYhHaxuQACBztr2zQv2iPhiPEt5Y6H4P1TTZNbsre/a+lgSJbkMOFlAYlZF75GfSvyU/ZM/a607xZLD8Lf2pvGd5badbTrHaXLRAiVy33LufltucYJGBjk1++MfhnQ9TtY9Qha1ure5+e3aEB0kiPQq44JxWcKNndhmk0n7pe07xVa63Zi5swIyFXJJ+Y8Vfk1Hfb+U0gSRuDz2NcRfeH7PTbsNpcRhixkjOKu2s0ci4eMbl7nmu5PQ+fpVG3qeffF3wOvxB+G2u/DyHUn086pFthuU4MLr90gjnAPOP618TfCf9lDVdG8Uv4u+LviS38R3qQpAv2aMxgrEMRsQQBuA6mv0M1a2FwpAO3jt0NcFPpSwOzyDA64rOcep7GDxjpnOJp3g3QVK2VoWZSCeOTt6Vw2taj/bOpT6iiMgYhdpJ+6OlP8R+Jo/tZ0+PERh4OByc+prAXUo5RyxB70KNtjkxuKc5XbEkjOTiqpiPWrRnRmJHINNaeMLg8GipG6ODmMqaNmXGKzmXA2Ht3rXluIwM461lvNGW4qWn1I5mZ86B2LdfSqkkQwAepq+0q46GqU0ocADg1h7NlJsg8nKVSNlFKcbAcdDWhjcNwPHpUG/B4pqm+pchttZiH5kCg+wqzcQtLbyRg8kcH3qNLhVzkHmrBYmMlec9qfIgTPHdZS0gaVLgs0xOBjpmuNmvYIVInILuMAk8AfSu81+KRr9kcbeTXBazo8LqithpGOR24qop2GdD4EvHMk9syl1JDDAzx+Feu/Zo5lBcYAYkAf1rhfh74dl06drpJCYWXBHavUpolQArwD2oqRdhSOXmtGRvkwBz0rjdWjuYGLRNsC8ngEmvTHhyDyOawdQ00zqy8cjrWKgyEzzNIbq4l2yXPnxY3bSuAPXjp1rqdPEDPvEa5UAZ78VYhtvs7CONFyowSR1FS2dmscjFDwxzQ0WjoIJCy+uK07fDDJFZ0SbMg96u28iAYzyKfJdDL20fSh0ITpx2oBBGRUsv+qBpeyYGabQMOOpq5DahFwAKi3gHOcVNDcgfKe/ekqTK5jG8RW4ks8o2GXrkZ4rwzXpLSIhLZmZx98sMAfSve9WVms5nTk4wK8WudMN9OY51wMZ+lP2TDmPPNSv7eZTBAxikRck+tet+FD9s0eJ2QoUABB56V5Jf+GI5714d2HclRg/pivoHwZosumaWYLs7mOCD7dqXsmHMU7mwiuFLMfn6CuF1eBpN0QxwK9XvfLi5VelcXqMEb7xjBIzmj2TDmZ4k80Wl6tZPeTeTEJk3YXcSucED68V+oVjqFjLY26aarfZzDGVLcdVFfmj4i0+P7RZXTpvW2uInYeoVskV+lttqbX2nWV7FbRJFLEgCR4+UBR1FNU3cd1Y3LF2vP9FD7TKNntzxX5IfEOwutG8Ua9p9426a3v5iD2wTkV+r1nLIZ/LRMAnlR97n0r87PjrZ2cHj3Vo1jJJ2uwfrkjn60SViUzyz9n+01LUPi1AbT5Ykjcy46Hpt56da/UWJWtcxvnf65z29q/Ob4F2VvHrmqzQzmLbGhcDIYLu/yTX6FaTcQ+XaWyyDzJow8cpB2kY4Bb1pPYpO55v8dYriX4eia1uJIHhuo2fZ0aM+tfNGlWryzxyKwUbj+NfSnxsXVrrQLSzEqLZy3KJPsI5x2rx2Oygiu1t4Y8rwAfQCoSuMzLnSZbuYzPMATxz7VX/sB/8Anutd+LCIDGwUv2CL+4K09kyeZn//0u9+1vKu4zoAOozVmK5VFOZVH4gV8rSeJviPDgXNgki/3hjBqt/wmfxBuW2WGkLy21pJGUIv1PavJ+sSK9hE+wYL2MDLXH61Xubrzlwky4J9RXyXH458SWlw1vqln5hTnNtnYfbJ4/Gs+5+I/iOLzJRos0kS/wB3nFKVVsHQiz6evJgiuWkHyjPXt61wl5dWcmQ0oyTgfXrXz7L8VNVazlu5PDl5LbxYiZw2cOx+Xp0rpdCvr3Xo7yfU9OutEa024S6489nHBQ/yrDmuOOHd9DS1ix0zVVMNw525PI65HevoH9nHxfp9lqcnw91G/FtcxoslksgwLnceQh7ke9fFfi7xZD4YRpb6IyGJ1WWOF97gH2Fdb+zp8QrHU/jH4Z1i800ppiTTDMvMyLGp+Ze4BNeLm9Fez5z1svlKErH6Y/tG/Du/8QfDm61e1spLiWyjDzJgsyeWc7sDrxzX52aPqtsYZY4JAft22NCnQjvwPQ1+sCfFbUrHWW1OK3kudIu8maJgGWRGwCCD22ZxX5W/tKeDbj4K+I5/Gnw9tZ9W8AeIJ3e2urZSz2FzKSZLWbI+XJPyn8q83JMbJtRex1Y/D21PSdESDw/dadp9ztfULpxmMHOxdpxn9K+ldD0aSK2Mkn33wwHpn0r8rvhf448X6h8QdDiv9ImggubhYnnlySEYHJ/+v3r9YpPE3hzStHhS6u186IbeTtY88cGs81wsfaXHl1WXJqeE/GnQjd3+lagIFkjQNG5PYEnBNeNnw0gLFmJ29cD/AAr6l8c65Z3HhG71XSLdNRmtgHMDYyy5AO31IHNfl94m+MviXwd4kv8AR23StA+Y9wyuxuQB/ujivTySCULHJmkZTaaPpSfw3uUFQCB3PWsiTw3cm9juVnURxjGzGTn1r57j/aF1mdFW5spYlcZLLEdufyqCT49XEbbSk2OhPl9hXupI8z6vI+rP7IZbGaQkM+wgHHQ9jXufwvl8zwzDdSMcuoU88fKa/PKH496cwBkkn+RScFSM+vFfbHwb8YaF4o8J21ppUzrJ5HnbW4PJ9Pwrx81wq5L9z18vxDU+VnsXiHRYNV0ddXtCEKPtcKMfifrXC2lhb24JVcA9+1eh6D4j0XTb0WOqSgW1wpifLA43DHT2zXyV8V/EGvfDTxPfabJbXNzphbNpdQAyRvG3I5GeR74rDIsWk+WZGbYXnfNE+goWaM7VHNWftZGTlRnpmvlTw/448QeILQ3VhZzmOLBLM23LdCMf0pYviLqzXcmnPp8008PGATkH8ua+lVXXQ8JUdNT6eXWJrYktIpAPQCsubxhqdtM5NpC8Y/jLHOPfFeEaZ4p1LU7lrae1eBiC3LdMdc+ldLdvcCNHgw6uCCC24A+rVMpvc0jRR61D43eVd8UELY6/MT+VSx+OFaQRm2Qk8EDI4/Gvnya2mlbzDBMuzqYX8sMx6MoBO4VdmOtgRJFcOoY7QAQJM9859qXMy1RR9L2viyz8ooLFotp42NkH3rdsvEttuLNayhcckc/nXx63/CT2yxWxvb22luJCjF0WRAp75HSt2/OnDR57/wALePL2yu9McC5W+jJz6iFADu56VLxbOr6pHqfZVt4h0iUgBGyf9mpZtb0WZfLkLq7cKVQ1+eF7Pq10UuZviBeQzTfOEmj2jZnqcY2gnpn8qytS174i/u5NC8VXt5HHnzxHEBJ8o+URHJzn1o+uMUsHG1kz9HIr6zjZYmWTDfx7ce9XDdaJ5yj7aF9ihPJ981+bWiX/AI91G38xvFurQzKAXiuYR8n4+tejeFND+IfiK+RY/FFxNaK373zI8EqOoBHf0rkxObKnG5dDJ+d2ufct34i8M6baG4gvftN24eMRLygyMfMD09a/Ot9T0/wxbatpfh+NLS7urmdpEP3DIxznH+1Xt/xC1qXQAmm+HbcRJHHzM+SzP3LE18r/ABltdb0K00f4laVbC4sLvKXzFThJc43E9s9q+fwvEU6tXlZ+h8P8PYSm/wB/szwS/wBO0G/vJo9TjT7bM7CdFXEZ5/nX6M/sTftT33wi8T6Z8FvGmqtN4D1R9um3Vy2X065f7sRc/diY8AdBn61+auv63pGo6gk2nLuZgGkIGAT7VZhVdTs5IpDuhfnbnBBznIPY5Fe0sXNu5+5UOB8rxuAeHoRXNbR9bn9ceoQzXe24cqpkAJxyjdwynvkVz8yx267XYAqea/Bn4E/8FCvin8G1g8PeOl/4TPwbbIsBhfAv7RVGAUf+NQPWv0h8Nft1fsn/ABKt1+w+M/7Il2ZaK/BikUDsxPUj8a96jWjON0fyrxLwriMtxToTXXSx9F694pstMZneVRGOOTx7V8p/tCftKab8FvAEvinWwrXeosIdKsX/ANdPI2fmIzwvTnpXl37Qf7fXwG+GehCz+GMsXj/xZcYEUQU/YrYdmkbHLA84r8QPHPxG8ffHf4kx+I/HV8+satdzIsduvywQxjpFAmcAKOM4rVtNHlUcJP7R+7mg6pd6vpem6nqsojutRhjmlVnBwW5H9K7K2urBB+8uEYAnkHrivz4bxX+0Za6dbxvoVpDaWsKIjYBdY1AwMDvVjQvih8bNQjbT4NF0s3CIWV7lGTdjqo965JYlx0sVUwV9j9BzqGnB/wB3Ogz0Bah7q2Ykm7jA/wB6vhO1+J/xpMTG68IWEmPlYbjGBjv1PFbGkfEX4n348u68A2jHdgzi78uFPTcWxSWKZLwbsfXl7d2JcqLuMYxwG9azWu7YcC4Q/iK+U9S1/wCNlrKX/wCEM0sQDo8dx5pbPvxVG38ZfEePdcX/AIMhuYIx+9FvcbZP+Agc0/bvqRLCaH1fcXloBxcJz7iqSSRhwxuoyCeBuFfKepfE/UbRQ/8AwhrplfvS3JJz6YArLk8XeP3eO5h8O20EM65VGmLMT7H/APVSWJ8zP6qz7LF7bRrnz0Zv97iqhmgfLNOij1DCvkiPx3r81s9vH4X+z6ig5Mk5Kuf9hccn2zV3SvFHxG1nUrbQtL8Ir9unRmJlkMcZC9SSeAR6cUPE36j+qyPq43NkhUPOGB4yD3q7/aOnQoy+cEK9eATXxppXxG1/V/Elr4Z/sxIL15CNys0kchjOHWPAOW49q96v/wC0UR5tCSG+ngPly6dcS/Z7lZjyFGeWJHIHcUvrCGsJLod3dWekasxvYp97oOeQBn3Fc3f+G7S7kQttCqpPGBz2rh01zxVJDdtfaZaaDLZIZJY57gPOEUZISI4MjemM1n+HddudftoFNhcWesXyNJZQ3YMcNwm7qwz8rY7GqWIF9Wke8aO0WmaYiXZWKRTgc8MvqafPq+nyYP2gY+gNfPdh4x8d3HiK78Pf2FbapHaR8tbyZ8tuflYnGTxXH+JvFPxEGopY6f4XdSxx8pHX0p+2bD6rI+q/7SscHE4wfwq3CI5VLMwP1I6V8G3PxF8V2l0NNurCWK+3bDFwRu6YBq63jPxzb38VjdW7wPMQqZfKhj03MOB6UKsCwsj7la1tyMPHnd0qlOlvCpCoxAPBr421XxH8QbGNPtsNzbox2gxv5mSOP4STiq8XiHxpdKsKT3jsxIIzgj9awlV6mywrPsY3cUYHmIQrdCP8aE1PSLZzE0pLHnB6/wA6+RTpviudd8p1PceMqzbAf5VMug+J4k8yS8u0ZuvmKzcVf1joP6m1qz7CbXtCWIbLgbx2x/hSjXNOmjCrOvPtzXx59l1lASl1vbHRgwIqkx8VWoaaCRnQ/e2q5/UZqvbuxnOlY+yW1CxB5lDdunNTRX1jnIkwB+FfF9xqesaToB1a5uJL6+nlEdvb28br5a9WaVzg+2K3vB2v6hrstxJPIqW0SkMoZ98Lj+8COmOc0KsNUL7H1w+p6W48qSdSrZyO9cq2j6Y88k1nL8zdfn/lXlVzPqWjQpLaW51sT/eltpDtQe/X1rn/ABD4i8R6XZ2t7b2Amiu5PJgjtpFnlMnffgjYPr3pqqN4WR6bN4aEV59sgU/ao2yNx4Jr0GTUrGxhVXnVTtBI4I3Ec49q+eZNd1yS3kvvDluZxp3y3a3jMvktjO3nrznkZrDsPiD4w1vQ21MeFyzqzIJI3ARwOmOf6VXtSfqjPf7vV7GYNtuBjvjFcrcX1tvyGXnjOc18i6343+Ikt5O8egXESw5yQM4/XmuCi+Jviq+nNpYWs1xPk5BwgXHrzxSdYPqkj7k1G0guLcjcM9RyBz2r6z+Gt1eah4Ws7vayIUeMyRKCAUwBnd/Svxaf4mePr43On2to7z2yF3Vzt4TqFY8frX7N/BP/AISGz+CnhvWfElp/ZV1d20byQqxYeVLnax7bsDmtIu6MKtNxeh63a2c0aCEyF2KKfM4Od3OfTNfC37SOgBvHE7wXkkZkgjbc8a4IA52kHqK+6opmsbSM2/8Ax7sRucLv+U9Mk4xXzH+1/wDC34j+OfCGleI/hHZSat4k0WUp9jh+WS6t2zu2jvjI4ptXM0mfKXwP0q5t/HtwUeQRxRYPG7zn6gHPHua+/NMlZ9PTREhEskTqQZFCpGp9ccnHavzz/Y7uPEeoL4lufFzS6bqWl3xhNrcf64TIMMu3qNvT3r9AJPEVlBiO3uo7uWVCXAb5oNp7j0NYS7FpNFT4j6Wz+FZ7qW24jlT5kOVJAwSB25ryywt7Qx+dGOcdfwHevoOG+tbm2/sHXlCQ6nDwCwLhWGBIqnrX57Xl54y0vxhrXgqyWS5/sSUhbkjbHKjcoU5POOtQpW1LhFt2PpzYpAKjjHrR5Y9P1r45f4ga+sskUkE2+Nirc9xSf8LB1z/nhN+dP6yjb6oz/9P0TVPGHwxllzYaDavF2ZoGyP0rgWh+H7XbznT7dUmOWTYwA/Kvp5bbRZLSWSDSRZxxjCb9rNuXuRjpVC3stLeIyzQxF37BBxXk+yH7c8a0l/hHdMIfEqTfZf7kJIIHtk1u6jYfs+XVq1jH4g1Kwt2GFjS2LgD1Zsc16RPpmhSJta1UD2UVnJoHg7eJpNOTI+XlAc+9HsQ9ueHv4E+BUEWzTfH+qxbjukzbEJn+H5cc4qlrXw50zULV9S0r4oHUmt0+SO705mUjHyrvKgj+le4X3gPwbcu1ykaBm7RgrWdN8M/BZywBLSYyrcij2C7h7c+Mtf8A2eodTj820vdLF1LgyTQS/Z5S5653Ec102l+CNB+GHhbUV02SOPXHQgXkk0dzLsc8rEwJxnpX0vdfCn4dXhYarYSXEWD8kblcn86zbb4MfDuzJOi20tkrsGCNJvPX+LORXLjcH7SHLc6aWLULHc+DfFularp/hy0ubiKNbi3VZY9290EYwN+OhbBr2Gz0jw7q+n6x4O8X6eNQ8I+I7SUSKpCMEUYaVD94NHkkY5r5Fg0XxRY6xf33kWsVup/0B1XbMhXgFiOoNaFvceOJdNhhvpvt2q27yLDJvKRRwScupUcHJ965sPldOnFFVce5vU+Fb/4R+Jvh38e9E8D6Dd3HifTxeRNpGqRPvjlsZCfLDnpvj27Tk9q+7vi5o3h1dK8OXnNzdXN28N3JkAoUzkA55r0rwiLJPD6ab47tWlvYGYQTadKLcpDnKjlSQ2Sec1xfxT0hdd1DR20u3WLwv4dgYWlgXLzvdNhnmlk/iJJrmxmVyqu5rSzCMdCfTLGPSbtLJ4FMX2cTQxSgliu3lsDrnoa+O/2l/hdplh4ns/Gum2if2TrUQLRD/ljKnDgN05r7ji8c+BX1bwhNqUzHUJsW1xhSPLXHQnpiuP1TwDceJTe6Br2q+RorXUssBjALqr8gZ7ZrfA5ZKkrE1sepO9j82jaak2mpprXBa1XOxTtLKD2zWMvhCWY/ud8wA6ACvv27/Zf8F7Wn0vWL15gekzDYR7Y5pyfs46VAgjtL90BGCrSd+54Br1VhmYvFI/PR/BrXLPbR27yTurALj5zkdsV9E+B9bl8Ka1pttdWT2MAsY7UF1wcgnJ+vPSvbpf2aII7tLqxvj568B0lIZfflagvf2WIr6QNca9OkoOfMEpZg3XOOKmrhuaNiKeKUZXN7XdG0Sfw82r25NxPahHnJDZ8tm+9ntjvW1p2paj4SiKyW39rabdpjyZCJFdWHUFvQUR/D7xb4a8Ha1oFjqketXF/b/ZoXlG3Yn8eT/eI6GrvgC9stH0s6D4ytG02LT1WOF2ImMnY7COnJ7189WyOfNeL0PRWawSsznvF/ws0HT/DCeNPBlzF4cEZ81oJRvimY8kZ7HPFeGW914vv9QXWRpN4svH723jbZn1G0c19K3OkweOPDNn4e1OSWzs9OuppUdHxJKrn5d3sBVeTwH4Y0OB7p9V1ERw424uSNqjpxivZo0nGNmcLxEXqeQ+HbTV7fUnnm0K6lNyczJLGA8vvl+RXsGlv8LbNWj8QeBtYWTPzrHNtRfyPetO0msFZXj1O+RFUOHlfzA49ACK2U1a3ljZIpJGSTrn/64rZEuvE3dE0j4Gaiob/hCtRso16F7gkn8jxV288GfASaMp/wjmpyvy3Ernmubt/EkduWikxsbrnGeK0ovGNhGcrGARxktir5WZ/WEc/deE/huoH2HT7/AE0Z+7L90D8ea52+8K6MH86yN7GqHPBGWGDznHFel3Hi3T3g8ySdCepUgkke1ZqeOfDrzhZLt/kIOQPlGOxBHIq1QW5Lrnh0/g7Q0eR7rSXuCzfP5qqxbPr2PHfNSHwb4WDIlnZ3FrGMFo4UO0n3x/Q17zqPirRZbW2+yaraTGIv9oTYQxB+6BngGuW134heH9E0y41BiZb4LmCPAwDjjNc2NnClTc5nVgoVK8uSB5lfaZ4Wji8porhJOgDZA/EV9BeANL0KTwwEgg8rbwxXufc18ZjxZca3NJc6i4aaRtxxwBngYr6A8DeLDZ6GtqkyhVPzhua/MMyzL282obH6NgcmVGmm9y9408LafJZSyTyktISq8Zx7/hW34W8O+FtU8K/2FrVpHqWm3cJhubeQDa46ZGeQ2Ohrm/EOsQanCsUUoOd2cduK57wh4o8l/s0hISNymenNeJTcoT5rnppXXKeRX/8AwTmPjbWpoPg34kFlcjdKtlf7iioScIsi/wBa+O/ir8J/il+zxr6eHPijpJ0/zsrb3iHdaXBHZJOhPsa/a7wL4kvdC8U6bqdpN5IeRUYg87W65/Ovtb4p/DT4c/GHwXdeDPiJpMOsaReAHDn54ieRJE45Vh161+qZLavFcz1POlxjjcsk/ZPQ/kI1fWzMdsTFGbOcf571z/h7wV4u8WajOPDvh6bXzagNKtupZkB7sF6D3Nfb/wC1B+wh8Qv2fvE8tz4Ytp/GXgq4BltbiFS81suT+7lVc8r614b8Gvjpf/AT4hWvjvwxAXvbUPHeWFyhWK6QrgK6nB+U89K+ksqeljmq1J5sniqtVKa6N6nBfEn4aePfhjY6Vc+OPDR8PHW4vMtI55FM7RD+Ixg5UH1NemfsefCDVPib8T31u8jki0DwjA97fXKoWWIRjcF47nB4/wAa6Tw14W+LH7cfxj1BLKSG91y5D3lxNNJttrCz3cLGjY+VRwAK/bT4JfBXwz+zZ8J7/wAJaG8d89+mdT1AqB9skJ5Vc8hQegop3bvY8jPPZQjy+0TfkfOVr4f8H3d0Zodel/fHOHjfGAOCeOlaS6Dpt7I+njW1Vz91UtZRuA6kuR/WvomGfSTCj+RHH8uA21eP0qM32jzusN35zwqQdu8KpI9sZxU1MPd3Pj1iraHzlc6R4Pkwn9oTSND8hKwy9R+FV49B+HRctrGozJB/FmCQk/pX1hqOoaPcyLcWPlRYULgHbtA/4DzWBNPpsoJuZlU55AUHP6VjKhy6sr29+p8yXmk/CAqYNJ8UXCd2DLMuAewGKyYvDnw7QmaHxQxki6HDRYH+91NfV0cXhR43gntYpZH6NKoOP93AwKw30fSIyYGsLcwN/sqTUtGbq9D50iv/AAFb3AWbUraSVukjhkXisae18DzSyzwa9bIzNuKI3B9hmvqWbRPDAXElla3CL8uSgBx6/Wqn/CO+DG2iTSrfC9MLirVKN7E+1Pmh7DwttE663ApTlcuMr/ulehqNxo17EbeTWY7qDOTEbnarN/tc19Pnw94PQBRoloVHYwin2/h/wKEdV8NWUbP1by/1HNHsIEfWD5o025tvD4DabK+nqMYWxu0X8M5xg/Wq8Q8I6bq9zr+mxzHV70/vbi4vRKwOcqygsRlfpX0tL4Q8Eyr5Z02GNT02r/nFUpPA3g7yhH9mhcHnaYwM4/2qpUYl+2Z4He6ZN4g8RWfinxNBZeIr6x3eQ90oBAYYyWUc4HSm31jq6k+fefZ7XrHBHMoiU5zkd8/Wvd5fCvg5Yo7WDSBEepkEh4rPuPBHhGVdht95HP3uPypqEFuS654DDoejwS/aobyFLpm3Em5RGz6Ek4xXRkXEsSwtJauobcCrptbnpuUkn869fj8B/DV0DS6NDM/QiTNNk+Hvwutigj0i2QH7gLsCD3xzRKnCQLEHg19pulu5RbCJEJLNjexyT1+fgD6Vr6T4L8Iukc1zcW1v8/KooMeB3bsfpX01pFp8L9KUY0CKWcp5bkz7g0fcYwfzrdYfBW5K6dJ4JtbUPxvnld4wMdTtH9KzeGgX7U+e7Pwp8LbF3k0fxi9tLc5EhW1AHPUKB0A7HrisGTwh4N01X/sTxTDI2Sf3kLPIzepzwK+iPEXhf4KW9pHbeH9Kia8UDIt2fyRnqcsATXHt4E+Gk8Annt5RP02xyFcfhjp+NQsMuw/bni2q6hqElpDpsupSyxxH5WtpDCDn1CkfyqqtxdQL8wu5gP8AptIw/wDHjg17SPDHhi2IFtbIYh0LH5/xNWY49Egby4LcZGRgyED9VNa+xiT7bU8YGquoRY9IeVn4O5VywPuea1Y9evtLK2cOnXNrHI2VCxZAI68kYr1yTVobCxkkcKpCkLgg4J6Y4HNeUyaprRjmuIdSlUlTuWRkYgeqqRTVKIvbDR43unnZZdOu5Cp4DpGBkHqO1XpfE0OqJLZalb3NpZzriVY0jBYHr0r0Lw3qGjHRLaPVJPtLsuTvIVsn+I1sG38LXQxDHG2erhs4H0pToRYRxCPOdOtvAWk2i2ejX82nKRjLLGWKddrdepqroenfB3w1qk+p2dhb3N9cP5jSvM0QE394IhCkexr0oaH4cB82azD7f9oDNH9l+GZQZbjRFNupGQWGW9OxNT9WjaxUcSrnCah4U8G+J2mkv/GsFlJevvkS4aIKCegwmePrzWcfgVPFG0vhzxZomoEDAjjdUDgdMh8AGvWpdA8AzOxTQYIU67t24tmn2Wl+GLPhNPhYA5UgbcfiDzRHDRWpqsUkeF3Hwg+ItwkrXPhSPU4lwFNrcIQR9Iya831j4N+IRMftPgC/iX0W2LL/AN9fer7ctNS0LTjutrTyGH92Vs/hya0m8cWocSCOVmHcTtyPfIxikqPcPrR+Z+q/Ci9t7O5X/hEr2NGVg3nWMuOfQlePrX014e+O3hzRPCGnaRcRan9t0u0ht5IVjZwixnkIgyTx0r640/4iR3BC3TraRAYJkYtkegwDWV4o1T4PeI5XTVvBlpqcsm1TeHMbDAwWXaM5p+ya2InXUt0fM+u/tQeEdR09bjw/JePPJJ5T6fqKSWSRJjKyEkYcrwOKt6N+1L4dXQ7ddTm3a9aznBtI3miZVOQcqDgkcVr698Gvg7fXRlsYrwJjMYFxlVJ5IIKg4zWHafCHwRZqy28jITxkEg/jxzQ1Yz5kfKWu2WgeIPEfiHxF4Wn1nwXqOs3DXDSb45YZ3Yfwgkuhb9Kj8P3PizREUXuppOWJE7PlppVxjBYHAyK+rLn4ReDZzu/1ko9XI/XFJb/CbwmibZGUL3xJz/KkJTR816n4i8T6xqtg0N7HaPblRaljJLJGI+gHXIJ7V2Vx4Y8a6vct4g125ma6kQGSWTFtEY0HZTjnH4mvb/8AhVPgjZhvujt5mfywKtt8OvB21PMaSQRfdV5WK49CD1otfQpVEj5Oj0j4f3IMqybmJO8mVOX7n5iDUn9geA/7/wD5Gj/xr6uHgvwic/6Hbj/gIpf+EK8Jf8+dv+QquQftkf/U99u72eVzLtALKFOCcHHtUBunHTge1O27uKUxrtryY8xhoR/bJx1bOalEjugJaoDEm8YNTbFAqZRe7ERbpMn5qC0n940/avpTSDnjpU8ouZCh5AuNxqpI8mf4iBVmndqHBjMSaWbHzEnHTNU2kdgQ6Bsev/1q25UD8HjFMS0D/NnrVqkwuc49zImNqgA/Woze3BGAwA+lb0+mjyy4JJFYq2Luc4wa3jFgZ1xDZXODcwhmUghwMEEdDWgdbvIEC2y716Zb2pJ7YKDEQSWFPisWkiBaPyxj7v8AX8ataAVm8S3zyiNkO5umOlTjW7tD++DA8/Nn09qZFZ4uN0aFivXg1R1PTvtEiPbk7uh5wfetLkMJ9a1FZziVlVhxVGLWdRmlaNbltqnnnpXSS6WkXlxRSMz4HUAjp61V0/Rh585l5YkYBGM1DlqCZHHql7Km2Zzs6EjrVScW8hz5e8js3OT610CaPN8zOwjjB/GqDWUayqUk3jPUVnOLeoNmUIp2bKhlB7A9KhnivApAxIGHKtk5rqHjQPleaDESOO1Zyiykc9DZtGiKzs23p2C+wqaS1BOULHPqelavlndgrmomB3YHNOKaC5lmziwAy7j705dHhl/gOfritPylJywb8KbeC3hgSUSTRsjA4AHPtWthnNXkZBdLeEqYxgljkVx89yLNS1zH5u44CL1JrsXvJrk3EaOw3H05rF3CEYvwzIpzuVQTVSmknJjVNvRGZBJbxxyXNxboI0+Z93UcdPrXg/irXGvpZHgJCEkAZ4ABrt/EniGHWr9tN0osxiGHwev+8K8vvNPvBKyToUI6AjrX5hxLmcpyUIy0P07hvLoQhzyWpW0m8LymJmz6c96998IKWJSRSQwxwa+fYbGe1dZVXBFeweEdVlgukebhcjP0r5eytofVync9ctdNkk1FLWN8K5Iwfeuclji0rUbu1XGI5Mkd810MniiwsNTh1A5MSENg8fhXAfEwT6Z4rj1GB/3GpIsuPQt2P506tuU40nzHq+geJUlL75DmDDLz6V+k/gbxTc6n4H0rU5Sd1wnrx8vFfkTpM0qDCHHmDqOma+3vhj4/aH4UWdqDm6t52hKnk7T3Ffd8KVLaHyfElHmTPePEviyB08i5n8tN3IyGDe2DX87/AO2bb6Evx/1Wawt4oY7iNS3ljC7senqa/cmT7G7w3Ny+8s6lgfQn/PFfgT+17cRaV+0J4p0+R2ELkPGHByFYZAGcV+gVHfY8DLKFF/FPlOi/Y98UXvgv9pb4f6jpE7WcGo340+9SNgBLBJnIYegNfvB8WNdaS6OiWmI7aJmYID1Qghc1+UP/AAT1+AKeItTg/aD8VRrLpWlzyWulWuf9Zdr96Vh6ID0r9DdevJ77Urq4mYsA20EY5A6ZrI4s09mpe595mNfXEa7ImwPemJO7E5c1X25O2poo+TVJnj3XYufaMfxv+dRGbJyST9aPKzQIsf8A6qzqpvQqNiQzsBxVdyr/AHmYfQ1N5ZPWoHXFYcjK0BC68ByPrSmY/wB40mM8U4xbRxRK66iSRW86Vm+8efepUkYfeJP408RcZ9Kq+XID83Ssm33I5LdC8ZcjgEZ96oi8cShJAdp75qZR09qZKqFCCKdn3LQ+R42GVzj61lXMrgMkGQw6knoK0IQAuGHFU76JY42nT5cEc+9V7PsZNmeuoeWNjTEyf3dxBrPuZZnYM8QZiOAW+atK9xM9tNF8rpguABz9DVv+x4r5/tsm3cjA/NwevbFS6bQ4WbOUGpKFaFQgkXqASGH1q1ba4YpBG+XzwQef1qjr+kGxu3eNRIkzKCQcHJrPl065gcxzgxt1HXOK1imtma2R0A17ZIyxIVY+gqjd+JdShXzGBKg9FHP4iq2lQ+dcvCqrMjr8zNnKN7damubQs8giUyTxxhRnvkd8VqyRYvEF9PCJNp8sk5zxVe51FJF/cbs+uabbaFdiwWO6XG/ORznNTWWgx2v+sZV5GFOc0h2Rz1/dStApmdgAc9etW9Li0S5SK4ntDLcSyD5yzZRf90HGK3dV0RpSVjcEYBxU+h6O9pi7WQByehHGBQCt2HXdmsIFxHEWdn7soTZnHoK660tbARKPJWOPHzY6kn14rGvNLbUpELsApOT+FdJbQCGFYidzIME5P4VFRiSRReIylfL3DaeMHHFXRPOgyxI6Y9uKflVNMcb146CsgaXQbLdyMQc9P1qHz5VUYYjFPEZxUpRT1FUr9AszLlnkb75LCqgnfdnn862HgjJwaiFpGc1fJLclt9SgbmToGI/HNOS8mjGFNXjZxgZIpBbxj7qk1PKyTKn1K+DfKcCoRqF2xwzkVtNArcFRR9kX+6KhpopNmLNPcsMByRUAlm6FiD9c10gtkA5UVG1iCcgVSi2Mz4pZsffNWUmbO1+c9jVkW23tUf2di3Gap05BccyRA/cXmk2Rf3Fq4bQnqRSfY/cVnd9xcp//1fegSowOc02Q4HNYiT3CnJP4Us17IqF2HNce0Tgi7Ggqk8luaekhzXP/ANoyuflKp9SabHqAB5fn2rM1TOk3NTWl4xurEa9JXIYgVTEnnyhlkz9K05CGtTpg5z1zTjKc59KxmlkQD9435VF9rOQrvkGlNGiNyDL7ixEXPQ85q3sH3hz9KwvOjUA7uRTzqSLG+xlJTg5PSpSC5tHBGKrsgRX8skE+wrLi1iyCbGky57VZ+1IOGq/ZkuRYFtHIoZxuNSeWFXBWm292jfIoqZ2XAZm601Am5WiQROSON9UZ/L80FIwuD1FaW6JiHU8CqkqRZz5gHtSkVylG5IkuYikRIAALCtFIwvfFVgIlGN/5VIJFI+Rs4qOUholmjkk+VfumsW406SHLw447Vvoz5BFVbuV4wcjmkXDYwYhJI211we9XdkrDAAqOCUu/IxWvEcE4FASRAkICgkcilS2TJbbzU5BJHRc+venqcfxrzTRMYtlQWykliMelY17ptzcZiSQKO+RnpXULGXGUYMaz5Ekjlyx4p6dzbkZzVvpos2csBIzjJrjNSjluGmeE7XHAX1zxXpVwFk3BBhjXI6bay3WtbYIvOWMkvxnFeZndX2dP3ep6mTUvaVPfPE/D+m6T4R8RSWvjCGWzh1Nt0Vyy/IWJ4Ut0H4mvcNV+HmmaikToAnAIPUMvYg9812niexXWtEbT77T0uYWG3bIvA4/IGvM/DMPifwranS0uPOs1YmFZyWeNP7qn09K/K8RT55Nn6dQr8sVE4PUvCkem3TxGIPGeAxHArkGk/s67MZ2qqnt717rLqmjazbTWjfLLk9eu4V4Z4utpA52xBWjBHc7sd6yjhGdEqqNzWZE1fTs24CvCu8+5T5h/Ks7RLj/hYVlBLqJKSqSB6DZwMVS8D+BPEvjfUDo6SSWUEsLusxGEYhSdp+tdD8OrR7Xw/YeYo8y2MkbsP4irYzW9XByUb2JoYlN2Omg0uLR4HkuXLR26lj74FelfAxBeadqPi/WtREFtdyFLKzU5I2n7xxXFa06X1v8AYovvznYfx6/pXv8A8P8AStH8K+G4dPfR0hdFwz5yWFfYcM0Gtz5XiPEatGxdXyNNFFG7SOWDcHtnNfgv+1HqepeMvjv4o8QSfMsNwsAz6RjAr9pfHXiCLQvCPiHxNYDyzZ2c7ROeocLxj8TX4I3muyS6o+p6g5uJrh2lmZzndI5ya+xnXcWooMk4fw9am61ZtI/T3/gmh8RrzTbXx58Jb1o57GKz/tvT45eJI7uL5XWP1B4yK+1nbzIw3dyTn3r8H/hj8Q/+EC8f+HvF2mb4ZIbtUuvmIEiMRkH/AGSOor9yLjW1eZndVAmjScBT0DgdPxzWsZN7nhZ5gaVKVqRobGJHHJqxG+xiv8XpXNtq0knEY+Y9OcU+K6ljk3XDANjopLH8SKtyPmkzpjJIKY0jEc1lG/GOpqJr1wM5oauVzG35h28UxpJB95c1jC+xxk1HJqT49aSj0F3ZqSPKj4dQtPExIzXNw3tzI2SoP1arktzJG2AKTSEqhrfao0G3cKlh/fLujOQO9c99pWQ4NXre4NuCF5B7UrD9qan+etJs3nmqUt6AoYbck1Zhn3Rliy59Kz5P5Secl8vbzTZIVmUJJ0JpyTq4JOOKXeXxspxi0tTMiWCGJWyuSBxVe0gWa3DOdrbjgZI/Or+wbfmPJ7UIwRlyuACc0ShoVCVjBu9OS6nMd04AJG0gngg1Bqkcj38IZl2qMYrSlUSTeb6Hiomtrd7iOdhnbmhIpzuQ6fYR2TymOM7pCefatdltbe3aVYNz44HfNCyrnJXaTUhCyDatNoXMeeS6lri3Ilu0XyycAcA47da05b2KUKDFhz3Bzg/hW7qNpb3Nvi4jVkHOT14rjpNOtzOslhIY0x8wPHNS43BTNQzLGuHzx1PrWtb3EEsKui7ew4rlza3PmbTKcDk1FfXtzabUS58tD3I4FNbWK5zvoZXjYbl696sm4x2xXmp8TtZcIxuQAMEHgmuvstRW9s47mRDGzDlTUyVzRmtvBG7NMMietVvtMIUAnGeagkmi6ZrLZkXLiyjnaaeZuKxfOQH5TTXuXVSyjOK6IaoTb3NjeSRzTgQrc1zY1ByQThfqake8w2fMDZ7A9KvkJ5jpy27ucUhwBwx/GufW++XG6q0t05G1WIzR7MfOdETno2cc0CRl5xmsW2mZ0yT7UyS7IyCT8tJwFzGybxg4Upxkc1phlbBU7/cVzkNzHMitj5vWrK3fknBbavv0pwRTqG2OelISAcVz/wDaUMcmZnVQemDmtBL6CRQ0Z3D1p8gvaGhuFG4VS+1JR9qSnyIPaH//1t3SPiT4bv7MXjaxbzRlgr/Z43Yr/vZ+7+lRaj408PW+rx2dzrFuIblgsWEk3qzdM8d68k0vUvGGla02reHbWw8Nardkm9jgEc1rcKDkAwOrbNv3crg16boWv/Ee2tLnxGdB0LWdRuDvMjyiCRkHGyKFWxhep6GvK9s+4p03c3vEut+HvCn2WLWdatraS9H+jrsb957CuU0rxnYaveT/AGaQNZ2zMs8rfIEwOpU8kVcufGmj6vLBF8U/BlpBqSQzCyaS+hmVZ2GVMcW3KKeACe9fMekeKfDt4upa78T9E183GjsYrKXS0jNu0m4hVmdUxgDpup+2l0NadOL3Pt3T5/DeoWr3CaijfZ/3ksu0iJU7EmrmjWekeI7W6Ol6tb3aRHa0kO4gDHUnGfevmnw34+tk1KLUtZ0ycaBDJDHMLaVJ7iRHHyieOL5VU8bicY9K7PxX4V8KW+uJrvw41a50Rr2RJTp9tdl7XD8kjadoz3BH1rGWMmupr9ThLY9DuZdL0PREvrrU4fshYxpMN5QsDggYBrlD4x8OafEb6/1FLe2VgqyureXnPriuOvb7xR4X0KLw7ds9zpLTODEqpuV5DuZt5GOtZWsfEDxRdeHm8PaX4ZSfSyNszmPzjIP5Bh6r0o+vzD6hHufR+l3unXkUMtjNFeRy4KMn8YbnABwf0qtqema9BdxC2tleJ2/eb0IKD1DdOK+Z/CfgPxN4w1WSbw1d3mkKzhfs84lja3YL1hDNgg16rY/s/fEPxY8Ph3xH8UfEOgXLOEaC6t8QTQMwywmXjn3JqljG/iZlUwSWx0lzceD21QWf9qWD6kT/AKnz1ErEdVGK17vU7SyMUbXESBg2V3biNo9q8++K/wCxrp/w0YeIPAvi0aoLAqZ7ZrKL+0FBxvnhIQNIPTOa4ltD1G+lh1XQkuIp7S3kgL6nGI5ZUk4ZkXCr+YqvrDexl9Xtqz3/AP4SbQVCWsF1HLcmMSFIjucA9z9axz4ot9Su7ezsIGeRmOXkOxYwvTI968H03wn8S/DdvPqnhi2tQ2qKInuXhW4IjX6dOeuKsHTPiw1vLE0y27zHdLPawoHkx0C5ViPwxS9tIv2aZ9FDUbm2JbUZYUXBI+YAtj0Brkr74veCNOnWzvLk+YUZ+FBxjjBHBz6GvBrX4calcrJe3Mt/aXLNl7i7d7hlI6FVY4H5Vpx/D7WrieOO717TmSTdzcW0cbfLyWaQLleO3fpUQquLNqlFI9H1H402FvaWtzp2iz3gvN/lI5WN3WP7zE54A+taVp8S/tVtDONJlRpVDBl/1CdvvDr714Vo9wdCW5Nrptv4jM8rRSzyhxbmDpiMqf14qneeDLKX7Otpd6lDFGS8EcEjNbRFucBQx3D61p9ZMvZI+mE+Itoke26uIYp3/wBXnLI5HYEd6wL34g6vcMEsUSWWQ48vZt6e5615Zp+kahbwNNa/Z9Zhgy8sSOEkhboXMbEsGIHSptWN7rOkrYxSXNpnLRSQoRIp/uFvT6VlOuxqkjtIfiBqdyjzNAojjO1nb5SGHXgelRXHje/WLzLa4jkJGQBggH68V4vaeF44LpptQv72BwOZHDOjEdcge1bc3hPwldxQKdVvria4YrGkMWIx6bj2rGVST6nXGgjuND8c+I57aT+1DE+5i6OHVWP4E81c/wCE+ure9EF7IIFCgkzcRgfWvHNa+FtuJGttQvxZXca7kSSSNZQvrj7xHpg1zw8NeI7W3+w/2rbXMUgIxKrOFHcDBHNZty7lKhA+jbv4oW2IotKkF/LO4LLaHeB2OR24rQh8R/6P9pl1N4EyWzcALtP93mvknTf2bfHqSN4x0s39nvzJAieZFG6DqV55H1rjrnwz4j1h7nS/F+rXVtDOjTR3Ny8pjiMZ5UYbqelRefc6ZQp2R9uXnxU0LTYfLvr9A+5Uj5BaR3OABjtzXuHg25sNBsI/PQSX05MkxPbdyoH4V+SPh2/0i78aeFdBTSWVluFdrxXklRvL6NhicA4zX3uPG39lXciNmYO3Lnj8q+cziu4tKXU9/J8JFq6PpzU/E1tcKSqbT0wOO3evPZdYjuWlsZIP3iZYMOhFeQ/8LUt4JWz+9J+6ppuk+K2lM9w7+WJcsST8qivFp1ot2PoZYXljc4b4kfEu3+G2sWmotYw3unamxhuM8NaspwsgPvWb4g8W+H9U06C90ydJ1lXJ2Nkg9elcj4m8Pj4g+G/FN9NGJbLBWBhySynqK+efhLo2rW3iC38O7yEuOArc+wr2oYWM0mtzyp19Lo+tfh18UbXR3u9Nmnc71cJz91mXgfjXsGnAnw7ZTrw5U7sdzmvl7x78AfGWiahc3MDrarDGJt/QkbScfjX0n4SlaT4d6PJL8ziPaSxwSw61w5pHkhaxeBqczdzndQm1CWUG0/1uRj2xzk/SteD4sT2dreWAMmp3WkorXUNuQ8kaMQN5DdVGecHpXzh8dtc8VyQ6bpPguZomlZjdMrBCyA427uteL6XrXjtvEFjrgMeiyabH5B8mEs9zF0KSufvZFe5k0JKKkmeHnFm7SPr741eM5ZPhPrtxJfQxLcCKGGEHmXzOpGCenevyN8Rt5MwVfQCve/iJZeMfC3hGV9Zui2k6jfb7S0Zi/wBnxliFLZIGDjHSvmLUL172cyMepr6bD0ZOSlJ6HZPN8PTy76vTXvtlqzvGi2AdDIjf98mv6DtBguNW8F+HLyxu7eZpLKEktKFIGwcEkjpX89CxDyiemBkV+jng/wAcz+JvhRoWhaxoq6lY7Ps8hEskTOU6DzIyrD867ajstD5nE0ZTjZn6EPp89jZG8vbm0SGMHLeeh6deAc1k2utaXdSiOzvIJ2PAjjbc7fhXxbp03hfR9Hnv/CBm8NazpW1re1+zTajFdEH7jSz+Yo54yT3rotQ8eeJNSltvEvhexFjrEkIW4R4Yo0SRhhnVwvU9h0rheKictLLvdu2fcNnZvcQNLtZdvbHSs/WornS2/eqxAXeSPTtXz94R+Os3gyy0nTvEUGpXd/cuzXTpF56iPs/yqOf9jr3q/wDEnxvodxpV54q0i7kmtryURG0kR4JRGR8zEdVHcCn9aXQzWFa3PatNvIL9WWOQApw2/wCXrW3daNqmVNmFvFK7v3Lg/LXyLoFz4f0rQ7DxC3i60nsZ2eZLRpS00UaDDc7uST0U817R4H/sf4raDcaV/wAJKuiR2MZks5BvjnLP0JUY3J69amOKSeoTos9HvdD122tI763hZ1RgTs54NR3Md4FMxjbYOAewrwTW/FXxj8Hac/g/xE+nXgRR9nurGWTd5a/dOSer+la914w8KePL+0lkhuPD95ZBBNF9qlAcBRvdEVtpOfUVrDGxfRmCwM3seuWkV6ZwJQAr5wQRXRG0kSJ33B9v8K9TXzF498XfB6C+0m28H69qVhdW8g+d2mitZWIHySZPBZqt+HfjP8R7C+ks7jwLLqbwRn/RkMgLLniYyv2x0ojjYvuJ4KSV2e1PfxC+Fg8hW5kB2K3fPf8ACorWx1e0vALq6ZkxzuGB+ArlbrxN+0p4ruLO38A/APUbKfUFzBqN1OJ7THRpFYfJxnv9DzXllp4u/aH8GfEabwh8QtI1ye/nBSGyk0+2jjn2gEvDIsQDIPUnpV+2T6E/VZd0fS/2qSO5SFPmQ9TW85khKkHOe3rXzt4m8beJNN1nUrTVjHbSx2yPCIgJGaUuAVbGFGBxWLovxVto7LUrj4gayY55ZUFjDbxNI2wn5s7MHI+tQ8QuzLWFkz6Wub3y2WWeVIQ4GAzZJ/Ac1LZXkF6pEMgPb3P54NfM9r8W/CWhOmpT2up61clwkMVtYtjZ/fd5chSamf41atd2r6lJ4SbTrJiy7Sxublge4WAgKcdMgc1M8TG3UbwcnsfTwsbiTJ+UZ464qvPELaQxzSxoQueWAwPrXxjf694l1/WUm8NeMobWFIWWeyuYZLeSFWHG52JUNVWbwl4z8YSad4Vt/Dmpa3bxxO1zcpqDGC7kYnYzzKwVEiHOPSnDExSF9RkfbqRQvEZku4XRRk7WBzn0I61JbyWjpvSVR1wSTjivhd4vi34NtEPiXwjqGmWOnM1us9sJruyZBwJPM5XAHXnmvfNH1fUdYhsdP0rXdL0u/uXVl+3eX5M8R5chjjy5Af4WJJPar+txG8DJK9z2C71DSlYRT3sSkg8ZNcebrSY2O3UYEUHux/pmuR8a+FJtHtLvX/E2tR3un6e4+0xLasZlPZk8rYWU+wrwrQvGng+712XT9ZsdQ/szVpNtjeJA4EOPvCWM/Oq/3ST9aPap62Mfq77n0JquseGV8vzdTRgpyfLbJrL1PxD4PubZZYtWYD7oBHIPYn2rynxBbWs13eS+FYpptFtNqSSzRFcyt8pRWPUA9689tdI8R3V0NNW1e33sctPCRHs9pc4x/Sj2sSoUHe9z6b03U/C2mpDHd6mjTuN2WXAKn0rsj4l8PS2kxsdUtn2LnbvAx+deFeH/AALrOnaxLYeK7i31PQY7bzY1Rw43AZ+SReQO2M1X1j4E6D41gt9f8IazLadZHsZDmAgcFAR83HfNZzxEUdHsJSPUNP8AiH4J1K8OnweIbWW7jGXhVssMfTirmleI/wDhIJJ49FdZhASBnq7A4wO+a8o+H37Knj/4i+K5/DWkaLJ4e06aNfO1e2iQQR47s0gLH6CvQtZ+Ees/CbW9SsNK8RG3tNFeO1u5BafaDdNt3bogMHc+cZxxURxcSfq0luaWm+I31TX38MWi41SLIkhfgLjrk8c1t6g93pEJudYuILONSeTlmIHYL1rz4eG9V1TWzoukrN4W1W4tmdUvbZxJJISCD53C5I960JvC/jrww81xrepv4mnEaQrJNgCBuhwVxj61X1mLdhPDs2tN8UeHL6wm1oaiILe2JDbkKkfp0rm9Q8baZ9vtY9FlW7jus7ZeQuR2z2PYZqK+TxfYmYa74dt7vRpXVC4uVhAXHO4SAls+teeeObgnxLZ2kdhdzeH7uOPzLfTfKkaONeroQoO5e1NVew1TZ9AaNrXh6W7Ntf3jx3B8tRGoDbWl6DcMg81tyx6DBrcekzatbR6gX2C2k3eaM852jsa+eLe6ufskll8P/COsrpUMyKz6mQHjRRw+MBiSfSvSNR0f4feNfB1jLr0Oo+HtctJvLbVHLW155/YYbBeM9jULEPmLlho21PSrjSI9P1sxR3iK8qMfIYnJRRkvtGTtFcZdeIPD8l1JDBqyTOjBWVEfO70wB2ry+08NfFfw9r9vqOj+IUv72yheGF5p0mlWKTqHL56g9+lej6Pq3jPSrmbXU8OQ3erkBH82aPyNwJ+dGRRnpyCa0lXSIWHib3hzxH4c1mZrHS9Vgu57Y5kRMq0bNxhsiuqudJu7mDzLfgLnLMu4cf569q+d9Y8F/F74ha9qd5FYaf4c1W+aNo7mwlWMPt/5ZSLnJPvXpfhT4NftI2xi08/EOfw3buSD9n08ajGjEYywdW601iUEqKRtT6ZObZp/EsUOnQBvkMkqRpj+9vfGSfTrVzSrK1jg8/Tpo5bbBPmpOjJx2+U5rkNf/Yz8Q3tjqNz8VPjQ+rau0TnTEvdLaO0yMn5kfAGe2B9K88+H3wi8QeEtK+wat4lsY9NcSKkNnaiMmUggPubOF5JqnVRl7M9ql1KNW4ljAPo//wBeov7TT/nsn/fdeV2uhy6TbR6Za3lq8dsNgkYMxk5yWJz1OasfY73/AJ+rT/vhv8aftF2DkZ//19tNPjtpPNI3Z+VpPJ+eqb2mns8jtbpNg5DPtDbh29vpmvoOfxD4QtvE8VrqdreT2Gmt50xEIRZXjbIj3HselVdKvY9Z1DW9Y8Rxtcefc+dYxrY5MFtjiEFdoPvxXiWNL9zxbT4rBrh21K1jVnGPmAdcV6DoS6Fc6Xe+HZY4bnTL1Qs8MbrFKccgM5xx+vvUhtpdX1gqbm0ttHYh44rxBYHvnJIct7DNbeoeFpfDWt6NNc32l3On3LNJeSrJ5skcJ4UxqiAcUroadjKtPhV8FbO3bWdHsoRqLKRcL5sm5x/dYICrgdPevN9U8IeDLVZbq0hEG9iwUMyIM+g46V73oujfD+PxRceDv7fsDd3Q+0W7ySFXmEnRFBUbiPTNcX8VfCuleDvFEWmXGr2jmSAShpHWJY/9kjJGfSpaREpNLQ8zl8Oz6c0duzp5TqsiJM3IVuQQD69q19JTTrLW44p0VZpYyx4JjwvfCjk/WhRoWpM0v26O+kADM0EgmZVHGMDAAFd+fC1no/hU+LtW8ZadoEKQfaiLkELFbtyN8vIVv9nBNONNPYzdZs2JLzwVdaSseo6ncfa26LDaFVjHYcYJ+tZ7eLLvSrfytG1O4u8cMs0O0FO2C3JxXM2mpDX7MaroOsx61ZzIBHe2ynZMp6Fd4HX1xWf/AGZcqAouJGPXLnLfTNS4LqP6xPuaV94o1vUbtJ9RmUyRH5ZGiAYD0z3rDe91UyuPttwPMO4fvcL/AMBXPH+eKtvaysCJiZB/tVa05oLCWR/skN/HLH5Zt51LIDnO8YPB/GqSSGq8nuYNyk91dG+nup7qdowgaZzlR9ORTGtbqE5LT7MnHzHbz3rR1F2EiPbxtbszDKRLthQD/ZYsTSu3hpMmRLuOTu4ddhb/AHe30ppj9qc3PZwzL8yNI2cglz/I1Tn0tblNki5GMY4xW8v2Ay8tvU9z1rbtbOGZxHCm4Ed+mKTQnVbMXQNL0S3dI9Uk8q1AAdEA+Ye1ezWEfwQe3jS2juY5V+XEg2qT9RziuGPhWyfliysewXNV38KpBiSEyFhyO1L2YuZm3qmlfDuG+a5srrZcyjIiwxX5fQnv9a5YS6PLIwltScnOcf4Vk6kJbLLSfM4Odueea42612zkkMMsUhKjkK4//XR7MOdnU6hplvMkkdowRHOdpHWuMPhCWYGGaBUt24Ljngc8CoR4v0G2AjmuVt+371j+nvVhdZ0fVYz5d2Zoxj5Ucqcj3o5EaqUkZ9x8ONES9/tm7hWe6cAjzYwXGOOCR+lbcvhFI0Vo44kD8spAzz1FblrfmaIBLj7oxhuT7cmm3ExZkYTqzA9COx60nBFe0mcu9hrWny209pr2rW8VsCsMMF04hVW7FOh/SuV1nwrY6uZ5Zg0kly25hIPlJ6dPU98V380txLdtbJJiBQCGZT19KzpZ9sZM0nzAnBA4NJUkHPM8ll8KalpckZ0zS7RIYhkyAfOMDt71na5qtnFbw2jyqt5Iu51J+Zfr6V6qbyRX37yAQR8or5K+JHgl9W8aTav4WuZLe0nQJOGOQJvRR6dea+bzjDRerdj6rIsTJuyMrWPF1tFdvBBlz0Zx/Dim2njHUPKc2LPjaw5+6cjFeI+Llt/CuovZTXr6pdoAXWNT5a+xPrXofw0fUfHd/b+H9DhkmvpVJW1gj3sQvU4ry6OWS0na6Z9Hi8W4ppn1RpN7DH4BtNE0WMK23zLot90FuTitPwD8N/C/iC8sWOvL4f8AEFvP5kDOMJIq8nLehqLwt8P9cu2OiNBc2t3ghraaPynO3uMkDHGeKtN4D1efURCrRhYWIaWWQIsWODubPAHevp6OEcUnY+dli42tc9Ts/D/jT42+Ip/Dr6xDFYaaxE92WHz7eABjse1Z9ij6ZoGoaLKfMbTLqWFGXowQjDV5t4c+Pnwb+Dut3unHxFJd6wkTRmOzg862eRugaQNjr7V0fhbVE8VeELnUQ25dQluJXl5BXdg4xk9BXjZ/BqCudeT1FKTscj4f+Enir4s2Wq+LPDiJe2OmXIguVEu2deuSF7rXED4ZXCXdzZpqeI434AIcLg+vrU/w7+JvxD+HdreWPgDSma9uLpka4Mv7p4D94sD3xxzXrF1PqeqSi8TS47MTsrOiMM7yRvzx3r18nj+6TPCziTlVsz4X/auea1m8OeEpRGXto3uGdR8xEgG3dj2r43ntjGdxORX0H8dNbab4r6+mp7i1rIIUVudqKBgZrwW/uFnJaIfKOtfS0HK6Vi6uCw1Oh7RTTk+hseFdEu/FOu6b4Z03YLvVJ0toi/CqZDgEnsATX6F/AbwJ8QdG0fxb4OtdXgtrrwxqbWjIlvDexyTZIO0yYIHXmvmf9m74Y+JPFb+MPiFocBnX4b6Z/bUqgZL+W64jA9WGcYr7w+GN7axfH3xnaWFwkWleM9PtNdhOApEsihmHPRiSc+maeIi9keZCq3E6mDwnq8JZdZuI70yjJdbCKMq3fCp1FdUfA+g3Gki8sr6P7TnbJBtkWQv3IUAqPXrXuFra2UltHl+SDySKjn0i0t1uZ44RdzSgeWuf4q8uVJ32M5VZLQ8as/CWn2SxsFZZIz/rFyJPzrUg+HWi6xHM8rSyPKwEiSOWLNgYr2mPw/Clh9ru4kiJUYQzhSG9ACDxXLvaz35aJbOQyRg4SJjKGHruVRU+zZHtZGVefBTwx4pOl2+hCLwxf2g8gvbh1uJmP/LT7u0fhXTD9lTxVo88eoXniu9vdX01T9i1MWW+6UP/AMs3dhhhVNL/AMRWFp/Z1s1xaeblWLREMB7Fl/rXrnhO6+L15BZ2+gXEt8lqu6P7SjsoPuM0OAe1kfM998EfiL4aujqV9q8VxNcuzS+bHvEmfTP8Xv8AyrN1b4dNeq10m6zuQMfulwNvevue68EfGG+t3mvIGdm5fEBLFu+2uPn+Gni++Tyf7EmicckzoYwfU96SiJTa2PlvSPhr4Vv7aWPxnJAVjQCL9y7CT3cqCQR9K9g0rxBd/DZNM8LaT4eg8T2Th2W2vYpZ4zCR3nmVUQe3Nd3Y/DX4o6XNNNa6GslqMMzOQ3frjmutfxHq8R+w69GAIiDJbZVEZfQ8Z/I1SpsHUb3G+A/jFaeCrJb+x8PT+HQsrPcaVaymSxKP/FaxFgoJ6sR+FcV8XfiJ8M/jfC2i/FW01C88P+es1nHZRpa3dlKoI3pco28qc4I4r0O6T4SX1pi/guLBV+9HC2V+brjrxmvMLnw18M7m9nSzsr3RrSFZDHd3EoczyfwYiAzt/HpVpzSsK6OI0jwb8AofDknhTwZc63pkOSQ92Yb51z/F5krg9e3Wqeo+FPhDplnb2lzbaprmr2q4lugRapKM/KfKXK/XbUuqaFa6dKzWuvrPMqhwy2wTJHbniuZJ1aWOYTavJLDK24oVXI+hxScZdifaK9jIk07wRv8AMt/DOpISf+eo8v8AHca2tI+H+n6xFcSWCR2qykBUeVRtx33HIqokWnWN1HPrGpXVvp+3MjBDM248ABFAyK2LS00qDcLTVFv5QdyCGJ441XsWLE/N61EoMqNTzPV9A+HWvtBb6LpUFijR8eaIkPlq3JaR++ccGub8XWGqabPFpOuape6HfQzLNbtasI0lVDwcZAZSO1c7qNja63CLa5u5DK6bWcXDQ8HsdpAJrGl0gyYsppWvXhXyke4kMjxqBxtY89acabvqX7a3U7CTxdY+Ibya48Yaxe6zcW6tGkEqFLYsc7SYyduR6jrXFTaB4N1G+tNS1vw2kLW7KyzwNEgkZG4PJHOOpxzWJf6Jfx3KQXfyRSLhmaTOSBxhQMj860xotzp8UL2qvG2CA8oMgUf7K5xSqUZc3u7G8cXDl5Wjf17xHZXAlC6NeXQV/uRzwIdvYkM4DCuAlvbBp7fU7DSHjFzuDq8kKDK9shjj6ivRdN0W4vAP7Z1GG9CAGBG8uByzcDaD976GtGHQtQtIXubzRtsanDIUX5vpnufbiupU5HE2jB0jVrm3EpsbC0hlVSfKdxOQo6cjcK53VdRuhrETyeHo7t5vmMltPiRj3XYwAxiuqt7TU0uEltLN7a2LESIsYMm3v0rWuJLJ7k26Wl0FyCJWgUKh7H72evWk6bBSSd7nBTv5Fig07S/sz304EkcyM7ImcNlgpXn0Fen6Z4S8OxXdvqaaZLE0LqY54mCiF15DEHqvqKjtvtcimKazhiuWyDKjmRHXsdn8JNWpLS8sY47y8t55kZtp2EERqOrMoPSsp02auu+51Gq2vjvUbq4urPxHqM9ndOrSwRubeHcmMAKh5B71iT2fifV7u5F1aW1vflcK7Pt8zAwBlsfNXoGmWkl8oH9uNFAibomSPKkemak1TSfNt1jOoSX4f06g+orL2QvbM8E1jwj440y3ivtQ22VxI2zb5qyzKD3cKxKj0zjNYMUnirTpbhoHi1CVh9+4jBUH2APPrXpWr+GxpV5NfXGm3krSruaffy4B4Bye3asWa0imkKBZlUjgMwyue3FXGGtjOdUwoNK8Q+JFijnhtHMSbZJEcAyyHoSGIAxXYj4Z2ujaUNe8d6nH4dsTdCBvs0BunVGHEn7kMSM9c7QKy7TR9PMhg8xo1PJ5zyK6m0AsmE9rcuSOquMqfw5rfkZHtD0nw18K/CaW8erWfjOHULU4cOR8+zs23qPoea0Z7vQPD97G3h67ivGcP5jXtuW3E4wUHPTt2ryxZbjzGkeNyJB0QBVB/ACrkEl+kiuZcxg/dJwcUlSZXtTN8ceJLG7uJXfTQBIFRpUiJyQfvDAGM1g2mnysqStHOqEk72UgKp9jx+de/wChfGLSbJ20q20+znNuq+c6Hcw/3tykV6D/AMLW+BsOjXM3itPs/lruMUijBLEfLHjGcms5x1BO584aVNqmnyq2mWCXW37swkwyn6CumvPjB4/0h4Y7fTTaXEPy+elxuWX/AH0NfXOneJ/gra2CTQW9tbRsgfaYvmCkZH4mvNPGHxL+C1/YS2FrZmdhnmOEKM/Wn7Ow9T4v1D4geNL3UbmfxNPFqZlb92LqJGaIdcKw5HPSuPh1K8vGuSdVuW2oWdVgCqqg8rGB1OM4Gea7/VdR+GFtJ9svUg8hXLNDJdCIuB0BYBio+gz6VFouu+D9a0tboeBUs7Vpsie01MzIzLnaTuRWyPQUKKE3Y4iyk8FX9utxBqdyoJIIk0m9Vww4IPlxFc+44q39m8I/9BSb/wAFd/8A/Gq7JtUliO2z8Q63aRnnyra4jSJSf7oIzTf7Z1D/AKGrxF/4FRf4VRif/9D6H8UfFiVb/wAu70Wa+eXkLbQAxgDjBOOtZOm678RNb1KS9h/tHRbXyyUjkhjdOOwAGa7TStLF3OsmmXN5YJnhYQGRvqCK7jTNB8QBHUXVxqc7Z+afESr/AMBXHavEuaHh15fai37y/WKeSRsl7iAMWI9u34V1GjaXZ68S9/rcNhsADRIixgqewLdPpXT618OvFl2BLcomAcj5sYryvWfDtxa74rvCueNw5qOVi5j0c/BvwJqEyy3GqRTNF80TuFZo29UdcEGuT8RfBfwS5jivLuK/kvHO1pkNz8wHVuflH41zNpbXEcaxySE4HBBI4/Cu70TxFqGjgkRxSg9tvX60crFJHn1t8P08Nlo9L06NLXOXa1tzGMDpu68Y681oah8NNd8T6ONIudAXVNJkYXEcEkqfZpDxgkMc5/2a9YHxE10AiCGGLcMfczx71zt/e2us3IvtZnaaVlb92oKxxluwCkdKcZWOeSSZyreBtd02K3sL+CLSnYDyra3ZNqIOgAj6Yq5/wgfjq4TGl2T37Lx8h/rXQ6dqOg6TMZ7Ky/eHHzgHoO2XJIr6D0f43eG/Dmj/AGmW0KuhHCDcB65AGTUuVy4U7nz7pHwh+KF0AW8Pzuy8FZH2KP6mthfhH43sdy3+jeRk7v3G6U4HqeK+g9P/AGt/B0+1bi0u8JnMi27YbgngYyOw5rrfBn7RXhvxmIWsbS8jldjFJbyQMksb5wCc8FSOc02otaM1VE+TINK8O6dP9m8Q2k0JQEgeU7l29CwGKsTp4bcbdN+H891uAx8jFWOPvc859a/Rm/k0yKFprqJG28jKqcn9a81k8eSQySR/Y4o4lPyMDyD3NZrRlexPgO60LxPfMbaz8IJpK5yGkjIIH41hnwh49spRNDaxttBwyrkDNfpFBqkHijFteaisUIB3DaAxz6EiudPwl8DyyO39rXSscnibaDn8Oap1Q9kj8/bZvGyHypEDyJ1VU6mpZf8AhJrpvs17thDdFYbTx74r7b1D4eeDtEkDyXd1Eh4Vw6kE9+1cVd+FvBmrzm10hJ9RnPRyxA/E460Kr5ESjY+TpvBDXshea5CMw7HP+Nc1e/Ca13GeKQGQ9SpHNfX4+Bmq3dyJHkXTbXIJDMHLY7DHNRav8FrmzeSSHzXRz8pUgAD8a0jUuZ6nw3d/B7Rr7A1Bi6odwDBSM/jViP4VaPCQvnMc84ACjj6e1fYNz8OFsLRXZD5p7n5uPfmuVs/DtjdTSJE/mPGcNgEAe1dUIoz9o2eCxeELGJRFExIHHpV4eG4F4K5H0r3qTwYTwseBn8azW8ObG2Om0Cq5QlN2PCLvwXZXnWWZPo2P5Vi3PgqezgIt52ZOwdQ39a+gbjQ1QcAn8a5afw8okzIpf/Zz0pcpn7Vnz3qnh3VJ42gib5dp+ZQBg4r5g8V/DLxXY3yatp94kjRvu8tn27vYiv0NvvCzyKZLdzGQOF9a4m48IXU8rSzRLz1LLmuLF5fTrK0j0cHj6lB3gfmP8QfC3jPVLeXU4NDYyxgF0tgDvx1x3JNff37Evgzwp4O8CQ/FYXFtB411FXjtbVWVpLe3RgJ1uozzGWwCCeg5ravvCsyyBDbxoWPDgbRV218H6LbTPd29nDb3c8TRTSxuU8xXGGDbcE59TWWGymjTiorodVfPK9TSTPoX46y/Dfx78Itc0f8A4SG1026uLUyWt+s6x3GnX3/LNQ+Rvjl6cetfhxa+APEWs2zjU/EOoyjJimUSsA5UkNj1UnOD3FfovN8FfAkJikGmpK0YG1ZHeRDzlQQxIIB6VWvPDXlRjyrdTt4CqoGAOg+lehUe1jkpzbuz84JPg5oNmoktUmDDOQCSSR0JNfc/wht10n4axaXDDuVWJZnbGCfU1BqHhm+MrTvaBeD8oGd2P611/wAMfCXhLXYr3SPHuqz6dp8A8sWNr+6uZ5JshJA542oT8w7/AFrwM5wjrQsj3cmxipO0mefalokk1kviLwnHJdWsMrR3UlmplihkB/jIGB75qKDVdSKwmNg6FgRzknB61+q3wzufDfgfwKvg/Q59P06bTpEhmtIQpjv3bIVZCR80kiEHHXP418UftFaR4U0L4ipqHhGxGnW2oxJLPYJ/CSOZEA6AHIx0rvy7BKjBI8zMa/PNs/E742anLrPxS8RX92w3vNg4XA+UAfhXnkWli1urQayWt7S5IbzFG75O5A717r+0NYa1oHxL1e5t222V46unyof4RweOK4Pwj4c8ceOGea1nFvp1kMz311tjtLZB97cxXGR6LyfSvoI7Hno+5v2VP2n/AIRfBv4V+Mvhlqumm3uvEMuG1UBi93CDhI3TB2qAea9Q+GPx2+A8vxRl8ReNdIn1qx0tb7TLZNJhZpjYBWa3mIGMt93JzX5veLPBXxA8O29vqiTjWNFujtttRs1WW1lJ4KhiAVIIxhgM9q2/AkXifRtc0GO+vbvSbTVLyO2mlEIUQ+awTJIxwR29KiaOhVIo/d68tfCM2k6d4o8LXZbwxrUayWkbNmeHPVJB1BHfNJ5+hwuhgvtgUYwOa89+G3gdvCHgyw8Py3T6zFFmVbpk271f7uAPQ16NaeE5bxv3GnuwPXivPqrUx9pdlKTU7aWfy0ljuNvQOoYiuq0o6/NaONLu5tPzkg27JF+HNa+l/DeJcXV1Zyog6lEJOfeu807whoEQ2i4kjc/wurZ/IisSzxKKX4s6XapDf6Z/bcUTs6TNdB5gD2ya9E8J/Gf4i+HIQVRIp/umCdFJQ/7y9a6q88EWCiSRbVJvNHLHd0HsCK5C5sNX052W1skkgj+4qKVA+pOTWfN0A9p039pbxfKy293p1v5rcAqD94+lRal8XPjw+p3ken+HobzSZwginwA8R/jBU43DFfNes2/jr7dp+s+FdVTQLiyZprjzLUXKXEJ/5ZMpPDe4596mk0/xBPqi+ONW8U6hLbspaKGQskEfc7IkXcF7c5pJu9rgep+LNe+Jmn239sa7ctp6XZCxksyRknsfL+ZfrXnkOtW2vzOl5fQy3cK/M4clSe+CwGfxqyvi7xNcukF1I2oWzDKuTvUq3T5WGB+VQWslvcmcfZ44Y4mAk8yJVJPscdPeuqNMhso3pNoTHKsnlSEYZUMq/mM1o29hGymQqsvcbzg/ka7LQda01RcJ4ehtbh95ZgsrbVbGMbX/AM+lXL+BJy39pfYbdGAO6JiZP++at010MpPU8u1C1YlVjtlJI7YzWU1n5QG6PaenK969Cjl0Czm8pbk3IU43BGHJ6DJ71vjUtHhl2vajYo6sQx3emDWZDZ5t4a02LUdRSx1jUZLC2JxlbcMmPdiK+j9M+HPhexaOW11WyvIiMtlVUnHrivMNQ8U2VvEYVstq9T5Izn/eB6Vyd7rUN7ErQWawB+4JU+nSqjFPcEz6C8VaL8MIdJEupWdkpzkzRxmRgo/2fX3FfP3ie3+Ec80l7oklzaGKH7u0ncF6gdhk1nRWKXgCzu6humGPA/PNMutA02NP3l3LsHXgN+dOUEiuY4y3v7JrPdBbTiO4XKlwQwHbJGRzVYROViWSV4IT1QgyI/1fqtb7QIMi2eQrH/eXAP4Zq3b3t+u0MkYh9SMZP0pU1fUOY8917wf4N8T2n2bV7VWaRdiOszJs2nIZSCCrDsa6yRHv7jRLUXF7qeo6XB9mtUErMghHBaYjH3f7xqxqOq3tk4eHRbe+hY/MyPhvbAxWv4f8TahepPYWOmlFugEudhVZY1/u54JU98Vc5WJZoiCSdJEkvYX+Xa8UDltpHX5h3rk7+DWtPtGt/CdtBdSznDtdysyxgdwOua9atfhz4euYFvLWSLTnQZ8tchm+pBxzUN/8MxexK9vrKW5bjAGSD6E+lR7UaZ43DoniO5iLax4pn4UhobOGOOMZ6/NjcT71J4Y8J6To8sk2gJfzXM25ZJZZZZg+f944A9a3L2xv/C11LbpdJI8JG1lG5HPuPerg+JXiK1KLE1rGEGGiMRHHqCDWcpXNIkel2GuaLPdrbrJcfapd6BQzqExkjHOK9h8PeM9MhvTFdhBNsAKSfJtY9hkc1wFh8bPFkVkNGltopLckypgAMGJ/hbGce1cy3xA1Ga/ea+tle2fgJLGGYN3ywwfyqTTQ+gfE0Vnr6Q2uo3IhSUfuwPlGfTd3rgr3wMLSUhCHZRk/NnOa88m16SUCJZIxFLw8eG2ke2ehH1rsNOvJo7KK2szIsEZ3qFO7gdcscseveqRnORSvdB+xMJWjCbueea1tOtr3UMQafBEoC/ebP68cUkuoalczp9jMbOpyPP6E/wB2t6ctcQrFqelQuOCxtJjGQe4IrqRhKVitN4C1F5Hu5tQnunVMi1t5AoJUZxkDvjvXJ6rp2rhTYPJb6a08W8BnZnx0wzDjOetbl/PYQJM1hZXUso5WBZdqhh/efr0PasUteXloY7vTTYSOC0UZl3Rq394nqfzGfSgZp+EI7K0uIT4wvRqFjEoDWltbLCrnsXlA3Nj3qj498R/BDQ2g1DXPD13e2ocAzbPNECk9ox94D1rGuvDera0IUub5bjChXdX8oH02gY/Wur8PeEtSuQsV7Y2i26MIo28/zZXXu7DPAHf0rnqx11NYvQ5/xh41+GV1d6JYaH4jt5rnWx/oumBDHcCNRkF8fd+hpkmhbF3tdJCpHKn+WR/k1rTfDuIanLfanb6at9C5WG6gVfOMY+7+9xn61vWHw9uL598NwtwytudOawehfS55pY/Dzw5A096/hOx1CZuQ4mHOe+CTz6139xpWlxWZt4NHhiYLgRQA4HHXI4z717LpXwq1y2hX7NpSurkNkKB1+tdnb+DPGNvH9ls9CiUHje7gEH1oiI+ErjSpnmfbYsgU4wc8VD/Y0/8Az5n8jX3w3w3+I0zGWVLAM3oB/hSf8Ky+IX92x/If4VevYXKf/9H9YdI+CjxQY8w2Z/uk5/UVvRfDKBJP7Mi1xortF8xohgsFPG7rnFe67Zj1x+ZqjFoelx6rLri20a6hNGInmA+cxg5Ck9cZryYYZSdgPKLf4LaK82/U9QurxwPm3MQpq5J8DvAUvMloWx6nP8xXr+G5IqvH9sLnzkRV7FXJP5bRXT9XpLTlA8Nb9nT4d7maK3dN2SfnJ60v/DOnw8x/qZf++zXvQGKWq+pwA+ab79nLws4Is4zyeMuRgfhXh/i/4H6rol2PI824tR1ZEyFHpxX6CgAciqF/YLfxiJ5HRc87DjP1rOrgo290lxR+Zl74V0W0j87VDICB1KlcY9q5KCwnnnI0MSTAHjaSrD8Bjmv0/n8B+FryTzL2wjnb/bGc/Wp7fwT4VtDuttLgib1VcGsfqUyORn5/6B4X8QGEyXEN8Hk5+ZmKiuzjtvEVqm0ecgA65I/wr7fbRLEoI0TYq9lJFA0HS9uJLdZP97n+dP6lMpRZ8Kf8V486yQXjwRIeFY53fXmvU9Gn8RmFlvrGF3XlZD82fpnP6V9Qw6Zp8C7YraNfoo/wqO60u2uRygBHA46UpYOSRSR8q602qP5ccibJZ87DEuCMepGMCqWj/wDCUC5W2Pmy7j6Z5+tfTM3hQO37qVVTBBUr1z71ag0i8sYfLskgBX7pbPT8q4vYyvsbHOad4LtLq3ik1QNIwHKvg4rXtvAnh61bzLaEwk9dh2g1tRf28qrvjts/xYd/0+StAfayPmCfgT/hXoUoQtqjN7mDJ4e00Os+05jGADyK5nVLO2UGJpFXvz2r0J4ZXyCQMisiTRPOctKsbg+uf8KrkvsgseKXOhRzXRKSeah6Bapy+HYLQsv2cITk5A6n1Ne9x6HbxKDEiI4PUCo7rQluAchWJ9c/4VpCGgnE+WtT0bUYXRLSEOhXO5h3yayRoV45zcxDP+zzX1Hc+EXmUrGyJxgcn/Csk+CNSK7WmhJ+rf8AxNVyMzlE+Y7zw+VG8Rn6YrlJdG1R5j5tnGIf4TnmvrqX4e6lIpXzYOf9pv8A4msS7+FmuTAiK5t1BGMFn/nspqJHKfK9xo4VGVoQhHcE1yt3o6j7vT3r6ll+CHiuQnN7aEH/AKayj/2kaozfATxVMpDXVifQGSX/AONVjZmnKfJOpaD9piKqqlh05Fcs3hV0Hzrj8jX2v/wz34jbG+ewyPR5f/jVWY/gBr4xunsRj0kk/wDjVPlY7Hw2/h+4wBg4HTiqn/CP3Qf5B+lffJ+AeslMefZ57fPJj/0XWY37PfiVut3Yj6PJ/wDGqXIwSZ8N/wDCN3R4MY/ECsvUvBtncKDdWMMnqxX5vwNfen/DO3iMZxd2Wf8Afk/+N1Sl/Zw8VS8Nd6eR1/1kv/xqhQb6Fxdtz4Ah8GaOJIYHLII50u1QuwXz4zlWx0yPXrVvWfDd7P8Aab6znZdZlgeKO9kQSvGG7LvDcD0zivul/wBmXxO/W60/jnO+XP5+VSn9mXxMRj7ZYH1zJL/8ap8jRfNofhb4r/ZAk1rxBe3/AIj8Rahqc0kgMpCqoLY6AdMfSvWvBvwc8J+CNAh0208LSazdRyl4F1ImSxhcciZoCSskgPQEYr9YLj9lLxJO5ZrnTm3EkkyS5yf+2VMi/ZK1tF5n0/PtLN/8arSNzFR7n5vX3g/TtZ04wXXh9ba5mmQ3Bs1+z2VwRwJHt14VxxgAcV09p8LdN1c2dlqWnrNbxyIyxso27kYYP1r78t/2UPEEUwdpdM25GSJZt2P+/NdPF+zRq9vta3msFYY6tIRx/wBs6Um2zRwR474U8PWVh4f02xjhAjijVQOuAM9DXseg6VbptMaqg4zmumtPgl4ntokh+1WSrGMAK8gGB7eXTbz4M+PZj/o2rWkA6YDSdP8Av3XNUTvsRyHp3hy202VBCjo7d8MOK7RNE04RkmGGaQg4Z0HXtXzxo3wX+IGmakZ5NVsmt2AyEeVXz/37xXsmleGvElkiwzXkRTuVLM34ZWik3HdF8pe0jR2uNOH/AAk9jaLfZO77OvyFVOFPtx1FQaj4C8K6jEwntzEr9TGxT+VdnDBIkYWRt7DvVC5067uCwFzsjP8ADtH86qab+ygSPFbz4W+AJWLLqclvIMfMZQen+9XI6r4EvGUp4Z8UpJ5QZQkhUnHpwRxXtWpfDbRNXy19Fuc9w5H6YrzDXf2d7DUtqabdmwTJLeW7AnPviub2cuxR88al4Y8VaQ7299bluoVowCrA89jXOfZLkMYnhbKjo3/16+sbT4DT2sa26a5ceUgwB5jH+Yqncfs9zsxkg1yYsR/y0Yn+ldEbroYNM+UzaWsTbnt44WPUhAD+gq/AECb4rcSFejghWGPcivoqX9n7xGin7NrEDn0kVv57TT9P+CnjW1fF1LpcyDvvlz+XlYq0n2I9mz5nvtQhaQnULWeOEDIdT5gPrkeo9axtKu7SbU3gguDJYXGDBI0TlreZfvrI2Puv+nQV9yp8KtUECqWs1kHUDcy5/FK4zV/gNrl5HI9kdPjuH/iLyqp+qiMg1SjpsJxPlOSW3a9urOK5glktmHmGAnYPbJFUbqJH3BpMn/ZYHH44r6Sf9nHxo5crd6ZEJBysbyqpP0ENRx/s1+MIxgXungf9dJf/AI1SlB9AsfMaLtOIZN7fmamaC4ZvL2sjOOCU4P8AOvpqP9m7xYGO+608DqCkswOff9zWofgF40MPkrdacM4yfMmz+flVMqcmrBY+Rfs07Ebok2KTxnhiOMcV0s0ekXl008lkLZZPvIjEqMDrivoe5/Z08XyRosE+moy9T5s3Pv8A6mqf/DN/jkZP23Tcnr+8mH/tGsoU5ILHzikfhiXV4tJhkaGeUExhvlVj9SQM1RvdHgsNZRLn7JbSuPlmkkRXLehGcn0r6Qvv2Y/GOoQfZryXSZ4ic4eSb/4zXHXn7Dtle3S39xpeiy3QIPmNNc5XH90eXitZRbQWPL10bxJMDFZyQyRHjKzAHjrgZ6Ul7pXiHTbRpFjmn3kBUjcHPv1xX0vp/wCzNr1hCIY7yzUdtskuEHoP3fStZP2d/EaNv/tWH/dDyAH/AMcrL2TCx8nNcwxusc2lmOdlCyNKchie/pXL6hFZ2F1K8Fi0twqbtkUhJZR6DNfcF7+zxqk0KLDc2zsQA6ySybevVT5ZNc3e/sxeIRP9p028st23GJZJePxER6UeyY0mfFPh7xDp3iO6kS3ttR0q7txhhfQSRow/6ZluG59K6KO2mRJbu4sjcwJ3Tli3XpX1An7MHjzYol1LTWKnIzJMQD7Zhq9b/s2+P4SQ2qaeynkZlmPI9vJ/WqdBisz5Qtjo86C9SzuYXXllKE4FdVf2enyaStlZG5VLkoJ5gNjBByQo9zjNfRv/AAzp49UbU1DTgCct+8m5/wDINaVn+z/42STN/e6dMq424eXI/wDIVNUZDaZ83aSl/dpv0zSQsifKJZS2MDgHB71txxXiI63KruHXCjn6V9X2nwi8RW8QjNxZj1wzn/2mKzdT+Dniy4bFnJp2PV5JVP5CI04xaBQufMQWQtlAyn6YpHsrt2zIBJngDrX0DD8BPGspH2rVLKED/nmXf/0KNa0V/Z2upk23+qq/P/LPKH9BTba6C9izwC18IateMqiNEDcK0jjCn6V6l4b8DeBdNt0m8S6rA8gP75In8uIe3B613w/Z+8uJYYdUkCryMyuf6VUtf2btOs9T/tCO6Lq/MiPIxVj6421jN36GlODW50+nXfwTjjW306OynA4AUeY365r1DSYvD0cQGm2aQRv/AHYgAfyFcxp3wr8O2IVvsqFlOeDj9cCuwh0WSBDHbymBQRtCsW4H1qUpdEbWNJbi3ZvKjbDY4GKy9B0q60e0e2vNQl1J5JZJTJNgFQ5yEAA6L0FbixMAATk4xmsDU9K1O4ybOZEz2YkfyBraFWa3QWNlpLdTguo9sik863/vr+Yry+XwJ4hlfzGuodx6/vZOv/fNRf8ACAeIP+fqH/v7J/8AEVX1ip/KHKj/2Q==;" vertex="1" parent="1">
          <mxGeometry x="320" y="-840" width="239.63" height="160" as="geometry" />
        </mxCell>
        <mxCell id="ttTQe-31etXcoxlEIEXn-2" value="" style="shape=image;verticalLabelPosition=bottom;labelBackgroundColor=default;verticalAlign=top;aspect=fixed;imageAspect=0;image=data:image/png,iVBORw0KGgoAAAANSUhEUgAAAkoAAAJKCAYAAADTI2qZAAAAAXNSR0IArs4c6QAAAIRlWElmTU0AKgAAAAgABQESAAMAAAABAAEAAAEaAAUAAAABAAAASgEbAAUAAAABAAAAUgEoAAMAAAABAAIAAIdpAAQAAAABAAAAWgAAAAAAAACQAAAAAQAAAJAAAAABAAOgAQADAAAAAQABAACgAgAEAAAAAQAAAkqgAwAEAAAAAQAAAkoAAAAAZOmuVQAAAAlwSFlzAAAWJQAAFiUBSVIk8AAAHx5JREFUeAHt2jFOZFkQRFFq6E2w/8VhsgLEVI3d3RnSmPc8s344cdIJCd7ePAIECBAgQIAAgd8KPF6//jzfb7/6kQABAgQIECAQFXg83z/R7moTIECAAAECBE4BQ+kkEiBAgAABAgSqAoZS9fJ6EyBAgAABAqeAoXQSCRAgQIAAAQJVAUOpenm9CRAgQIAAgVPAUDqJBAgQIECAAIGqgKFUvbzeBAgQIECAwClgKJ1EAgQIECBAgEBVwFCqXl5vAgQIECBA4BQwlE4iAQIECBAgQKAqYChVL683AQIECBAgcAoYSieRAAECBAgQIFAVMJSql9ebAAECBAgQOAUMpZNIgAABAgQIEKgKGErVy+tNgAABAgQInAKG0kkkQIAAAQIECFQFDKXq5fUmQIAAAQIETgFD6SQSIECAAAECBKoChlL18noTIECAAAECp4ChdBIJECBAgAABAlUBQ6l6eb0JECBAgACBU8BQOokECBAgQIAAgaqAoVS9vN4ECBAgQIDAKWAonUQCBAgQIECAQFXAUKpeXm8CBAgQIEDgFDCUTiIBAgQIECBAoCpgKFUvrzcBAgQIECBwChhKJ5EAAQIECBAgUBUwlKqX15sAAQIECBA4BQylk0iAAAECBAgQqAoYStXL602AAAECBAicAobSSSRAgAABAgQIVAUMperl9SZAgAABAgROAUPpJBIgQIAAAQIEqgKGUvXyehMgQIAAAQKngKF0EgkQIECAAAECVQFDqXp5vQkQIECAAIFTwFA6iQQIECBAgACBqoChVL283gQIECBAgMApYCidRAIECBAgQIBAVcBQql5ebwIECBAgQOAUMJROIgECBAgQIECgKmAoVS+vNwECBAgQIHAKGEonkQABAgQIECBQFTCUqpfXmwABAgQIEDgFDKWTSIAAAQIECBCoChhK1cvrTYAAAQIECJwChtJJJECAAAECBAhUBQyl6uX1JkCAAAECBE4BQ+kkEiBAgAABAgSqAoZS9fJ6EyBAgAABAqeAoXQSCRAgQIAAAQJVAUOpenm9CRAgQIAAgVPAUDqJBAgQIECAAIGqgKFUvbzeBAgQIECAwClgKJ1EAgQIECBAgEBVwFCqXl5vAgQIECBA4BQwlE4iAQIECBAgQKAqYChVL683AQIECBAgcAoYSieRAAECBAgQIFAVMJSql9ebAAECBAgQOAUMpZNIgAABAgQIEKgKGErVy+tNgAABAgQInAKG0kkkQIAAAQIECFQFDKXq5fUmQIAAAQIETgFD6SQSIECAAAECBKoChlL18noTIECAAAECp4ChdBIJECBAgAABAlUBQ6l6eb0JECBAgACBU8BQOokECBAgQIAAgaqAoVS9vN4ECBAgQIDAKWAonUQCBAgQIECAQFXAUKpeXm8CBAgQIEDgFDCUTiIBAgQIECBAoCpgKFUvrzcBAgQIECBwChhKJ5EAAQIECBAgUBUwlKqX15sAAQIECBA4BQylk0iAAAECBAgQqAoYStXL602AAAECBAicAobSSSRAgAABAgQIVAUMperl9SZAgAABAgROAUPpJBIgQIAAAQIEqgKGUvXyehMgQIAAAQKngKF0EgkQIECAAAECVQFDqXp5vQkQIECAAIFTwFA6iQQIECBAgACBqoChVL283gQIECBAgMApYCidRAIECBAgQIBAVcBQql5ebwIECBAgQOAUMJROIgECBAgQIECgKmAoVS+vNwECBAgQIHAKGEonkQABAgQIECBQFTCUqpfXmwABAgQIEDgFDKWTSIAAAQIECBCoChhK1cvrTYAAAQIECJwCv16Jr6+vMyhAgAABAgQIEKgJPF6F39/ff2rF9SVAgAABAgQI/E3g+/v78d9QeoYMpb9J+UaAAAECBAgUBR7+R6l4dp0JECBAgACBScBQmpiECBAgQIAAgaKAoVS8us4ECBAgQIDAJGAoTUxCBAgQIECAQFHAUCpeXWcCBAgQIEBgEjCUJiYhAgQIECBAoChgKBWvrjMBAgQIECAwCRhKE5MQAQIECBAgUBQwlIpX15kAAQIECBCYBAyliUmIAAECBAgQKAoYSsWr60yAAAECBAhMAobSxCREgAABAgQIFAUMpeLVdSZAgAABAgQmAUNpYhIiQIAAAQIEigKGUvHqOhMgQIAAAQKTgKE0MQkRIECAAAECRQFDqXh1nQkQIECAAIFJwFCamIQIECBAgACBooChVLy6zgQIECBAgMAkYChNTEIECBAgQIBAUcBQKl5dZwIECBAgQGASMJQmJiECBAgQIECgKGAoFa+uMwECBAgQIDAJGEoTkxABAgQIECBQFDCUilfXmQABAgQIEJgEDKWJSYgAAQIECBAoChhKxavrTIAAAQIECEwChtLEJESAAAECBAgUBQyl4tV1JkCAAAECBCYBQ2liEiJAgAABAgSKAoZS8eo6EyBAgAABApOAoTQxCREgQIAAAQJFAUOpeHWdCRAgQIAAgUnAUJqYhAgQIECAAIGigKFUvLrOBAgQIECAwCRgKE1MQgQIECBAgEBRwFAqXl1nAgQIECBAYBIwlCYmIQIECBAgQKAoYCgVr64zAQIECBAgMAkYShOTEAECBAgQIFAUMJSKV9eZAAECBAgQmAQMpYlJiAABAgQIECgKGErFq+tMgAABAgQITAKG0sQkRIAAAQIECBQFDKXi1XUmQIAAAQIEJgFDaWISIkCAAAECBIoChlLx6joTIECAAAECk4ChNDEJESBAgAABAkUBQ6l4dZ0JECBAgACBScBQmpiECBAgQIAAgaKAoVS8us4ECBAgQIDAJGAoTUxCBAgQIECAQFHAUCpeXWcCBAgQIEBgEjCUJiYhAgQIECBAoChgKBWvrjMBAgQIECAwCRhKE5MQAQIECBAgUBQwlIpX15kAAQIECBCYBAyliUmIAAECBAgQKAoYSsWr60yAAAECBAhMAobSxCREgAABAgQIFAUMpeLVdSZAgAABAgQmAUNpYhIiQIAAAQIEigKGUvHqOhMgQIAAAQKTgKE0MQkRIECAAAECRQFDqXh1nQkQIECAAIFJwFCamIQIECBAgACBooChVLy6zgQIECBAgMAkYChNTEIECBAgQIBAUcBQKl5dZwIECBAgQGASMJQmJiECBAgQIECgKGAoFa+uMwECBAgQIDAJGEoTkxABAgQIECBQFDCUilfXmQABAgQIEJgEDKWJSYgAAQIECBAoChhKxavrTIAAAQIECEwChtLEJESAAAECBAgUBQyl4tV1JkCAAAECBCYBQ2liEiJAgAABAgSKAoZS8eo6EyBAgAABApOAoTQxCREgQIAAAQJFAUOpeHWdCRAgQIAAgUnAUJqYhAgQIECAAIGigKFUvLrOBAgQIECAwCRgKE1MQgQIECBAgEBRwFAqXl1nAgQIECBAYBIwlCYmIQIECBAgQKAoYCgVr64zAQIECBAgMAkYShOTEAECBAgQIFAUMJSKV9eZAAECBAgQmAQMpYlJiAABAgQIECgKGErFq+tMgAABAgQITAKG0sQkRIAAAQIECBQFDKXi1XUmQIAAAQIEJgFDaWISIkCAAAECBIoChlLx6joTIECAAAECk4ChNDEJESBAgAABAkUBQ6l4dZ0JECBAgACBScBQmpiECBAgQIAAgaKAoVS8us4ECBAgQIDAJGAoTUxCBAgQIECAQFHAUCpeXWcCBAgQIEBgEjCUJiYhAgQIECBAoChgKBWvrjMBAgQIECAwCRhKE5MQAQIECBAgUBQwlIpX15kAAQIECBCYBAyliUmIAAECBAgQKAoYSsWr60yAAAECBAhMAobSxCREgAABAgQIFAUMpeLVdSZAgAABAgQmAUNpYhIiQIAAAQIEigKGUvHqOhMgQIAAAQKTgKE0MQkRIECAAAECRQFDqXh1nQkQIECAAIFJwFCamIQIECBAgACBooChVLy6zgQIECBAgMAkYChNTEIECBAgQIBAUcBQKl5dZwIECBAgQGASMJQmJiECBAgQIECgKGAoFa+uMwECBAgQIDAJGEoTkxABAgQIECBQFDCUilfXmQABAgQIEJgEDKWJSYgAAQIECBAoChhKxavrTIAAAQIECEwChtLEJESAAAECBAgUBQyl4tV1JkCAAAECBCYBQ2liEiJAgAABAgSKAoZS8eo6EyBAgAABApOAoTQxCREgQIAAAQJFAUOpeHWdCRAgQIAAgUnAUJqYhAgQIECAAIGigKFUvLrOBAgQIECAwCRgKE1MQgQIECBAgEBRwFAqXl1nAgQIECBAYBIwlCYmIQIECBAgQKAoYCgVr64zAQIECBAgMAkYShOTEAECBAgQIFAUMJSKV9eZAAECBAgQmAQMpYlJiAABAgQIECgKGErFq+tMgAABAgQITAKG0sQkRIAAAQIECBQFDKXi1XUmQIAAAQIEJgFDaWISIkCAAAECBIoChlLx6joTIECAAAECk4ChNDEJESBAgAABAkUBQ6l4dZ0JECBAgACBScBQmpiECBAgQIAAgaKAoVS8us4ECBAgQIDAJGAoTUxCBAgQIECAQFHAUCpeXWcCBAgQIEBgEjCUJiYhAgQIECBAoChgKBWvrjMBAgQIECAwCRhKE5MQAQIECBAgUBQwlIpX15kAAQIECBCYBAyliUmIAAECBAgQKAoYSsWr60yAAAECBAhMAobSxCREgAABAgQIFAUMpeLVdSZAgAABAgQmAUNpYhIiQIAAAQIEigKGUvHqOhMgQIAAAQKTgKE0MQkRIECAAAECRQFDqXh1nQkQIECAAIFJwFCamIQIECBAgACBooChVLy6zgQIECBAgMAkYChNTEIECBAgQIBAUcBQKl5dZwIECBAgQGASMJQmJiECBAgQIECgKGAoFa+uMwECBAgQIDAJGEoTkxABAgQIECBQFDCUilfXmQABAgQIEJgEDKWJSYgAAQIECBAoChhKxavrTIAAAQIECEwChtLEJESAAAECBAgUBQyl4tV1JkCAAAECBCYBQ2liEiJAgAABAgSKAoZS8eo6EyBAgAABApOAoTQxCREgQIAAAQJFAUOpeHWdCRAgQIAAgUnAUJqYhAgQIECAAIGigKFUvLrOBAgQIECAwCRgKE1MQgQIECBAgEBRwFAqXl1nAgQIECBAYBIwlCYmIQIECBAgQKAoYCgVr64zAQIECBAgMAkYShOTEAECBAgQIFAUMJSKV9eZAAECBAgQmAQMpYlJiAABAgQIECgKGErFq+tMgAABAgQITAKG0sQkRIAAAQIECBQFDKXi1XUmQIAAAQIEJgFDaWISIkCAAAECBIoChlLx6joTIECAAAECk4ChNDEJESBAgAABAkUBQ6l4dZ0JECBAgACBScBQmpiECBAgQIAAgaKAoVS8us4ECBAgQIDAJGAoTUxCBAgQIECAQFHAUCpeXWcCBAgQIEBgEjCUJiYhAgQIECBAoChgKBWvrjMBAgQIECAwCRhKE5MQAQIECBAgUBQwlIpX15kAAQIECBCYBAyliUmIAAECBAgQKAoYSsWr60yAAAECBAhMAobSxCREgAABAgQIFAUMpeLVdSZAgAABAgQmAUNpYhIiQIAAAQIEigKGUvHqOhMgQIAAAQKTgKE0MQkRIECAAAECRQFDqXh1nQkQIECAAIFJwFCamIQIECBAgACBooChVLy6zgQIECBAgMAkYChNTEIECBAgQIBAUcBQKl5dZwIECBAgQGASMJQmJiECBAgQIECgKGAoFa+uMwECBAgQIDAJGEoTkxABAgQIECBQFDCUilfXmQABAgQIEJgEDKWJSYgAAQIECBAoChhKxavrTIAAAQIECEwChtLEJESAAAECBAgUBQyl4tV1JkCAAAECBCYBQ2liEiJAgAABAgSKAoZS8eo6EyBAgAABApOAoTQxCREgQIAAAQJFAUOpeHWdCRAgQIAAgUnAUJqYhAgQIECAAIGigKFUvLrOBAgQIECAwCRgKE1MQgQIECBAgEBRwFAqXl1nAgQIECBAYBIwlCYmIQIECBAgQKAoYCgVr64zAQIECBAgMAkYShOTEAECBAgQIFAUMJSKV9eZAAECBAgQmAQMpYlJiAABAgQIECgKGErFq+tMgAABAgQITAKG0sQkRIAAAQIECBQFDKXi1XUmQIAAAQIEJgFDaWISIkCAAAECBIoChlLx6joTIECAAAECk4ChNDEJESBAgAABAkUBQ6l4dZ0JECBAgACBScBQmpiECBAgQIAAgaKAoVS8us4ECBAgQIDAJGAoTUxCBAgQIECAQFHAUCpeXWcCBAgQIEBgEjCUJiYhAgQIECBAoChgKBWvrjMBAgQIECAwCRhKE5MQAQIECBAgUBQwlIpX15kAAQIECBCYBAyliUmIAAECBAgQKAoYSsWr60yAAAECBAhMAobSxCREgAABAgQIFAUMpeLVdSZAgAABAgQmAUNpYhIiQIAAAQIEigKGUvHqOhMgQIAAAQKTgKE0MQkRIECAAAECRQFDqXh1nQkQIECAAIFJwFCamIQIECBAgACBooChVLy6zgQIECBAgMAkYChNTEIECBAgQIBAUcBQKl5dZwIECBAgQGASMJQmJiECBAgQIECgKGAoFa+uMwECBAgQIDAJGEoTkxABAgQIECBQFDCUilfXmQABAgQIEJgEDKWJSYgAAQIECBAoChhKxavrTIAAAQIECEwChtLEJESAAAECBAgUBQyl4tV1JkCAAAECBCYBQ2liEiJAgAABAgSKAoZS8eo6EyBAgAABApOAoTQxCREgQIAAAQJFAUOpeHWdCRAgQIAAgUnAUJqYhAgQIECAAIGigKFUvLrOBAgQIECAwCRgKE1MQgQIECBAgEBRwFAqXl1nAgQIECBAYBIwlCYmIQIECBAgQKAoYCgVr64zAQIECBAgMAkYShOTEAECBAgQIFAUMJSKV9eZAAECBAgQmAQMpYlJiAABAgQIECgKGErFq+tMgAABAgQITAKG0sQkRIAAAQIECBQFDKXi1XUmQIAAAQIEJgFDaWISIkCAAAECBIoChlLx6joTIECAAAECk4ChNDEJESBAgAABAkUBQ6l4dZ0JECBAgACBScBQmpiECBAgQIAAgaKAoVS8us4ECBAgQIDAJGAoTUxCBAgQIECAQFHAUCpeXWcCBAgQIEBgEjCUJiYhAgQIECBAoChgKBWvrjMBAgQIECAwCRhKE5MQAQIECBAgUBQwlIpX15kAAQIECBCYBAyliUmIAAECBAgQKAoYSsWr60yAAAECBAhMAobSxCREgAABAgQIFAUMpeLVdSZAgAABAgQmAUNpYhIiQIAAAQIEigKGUvHqOhMgQIAAAQKTgKE0MQkRIECAAAECRQFDqXh1nQkQIECAAIFJwFCamIQIECBAgACBooChVLy6zgQIECBAgMAkYChNTEIECBAgQIBAUcBQKl5dZwIECBAgQGASMJQmJiECBAgQIECgKGAoFa+uMwECBAgQIDAJGEoTkxABAgQIECBQFDCUilfXmQABAgQIEJgEDKWJSYgAAQIECBAoChhKxavrTIAAAQIECEwChtLEJESAAAECBAgUBQyl4tV1JkCAAAECBCYBQ2liEiJAgAABAgSKAoZS8eo6EyBAgAABApOAoTQxCREgQIAAAQJFAUOpeHWdCRAgQIAAgUnAUJqYhAgQIECAAIGigKFUvLrOBAgQIECAwCRgKE1MQgQIECBAgEBRwFAqXl1nAgQIECBAYBIwlCYmIQIECBAgQKAoYCgVr64zAQIECBAgMAkYShOTEAECBAgQIFAUMJSKV9eZAAECBAgQmAQMpYlJiAABAgQIECgKGErFq+tMgAABAgQITAKG0sQkRIAAAQIECBQFDKXi1XUmQIAAAQIEJgFDaWISIkCAAAECBIoChlLx6joTIECAAAECk4ChNDEJESBAgAABAkUBQ6l4dZ0JECBAgACBScBQmpiECBAgQIAAgaKAoVS8us4ECBAgQIDAJGAoTUxCBAgQIECAQFHAUCpeXWcCBAgQIEBgEjCUJiYhAgQIECBAoChgKBWvrjMBAgQIECAwCRhKE5MQAQIECBAgUBQwlIpX15kAAQIECBCYBAyliUmIAAECBAgQKAoYSsWr60yAAAECBAhMAobSxCREgAABAgQIFAUMpeLVdSZAgAABAgQmAUNpYhIiQIAAAQIEigKGUvHqOhMgQIAAAQKTgKE0MQkRIECAAAECRQFDqXh1nQkQIECAAIFJwFCamIQIECBAgACBooChVLy6zgQIECBAgMAkYChNTEIECBAgQIBAUcBQKl5dZwIECBAgQGASMJQmJiECBAgQIECgKGAoFa+uMwECBAgQIDAJGEoTkxABAgQIECBQFDCUilfXmQABAgQIEJgEDKWJSYgAAQIECBAoChhKxavrTIAAAQIECEwChtLEJESAAAECBAgUBQyl4tV1JkCAAAECBCYBQ2liEiJAgAABAgSKAoZS8eo6EyBAgAABApOAoTQxCREgQIAAAQJFAUOpeHWdCRAgQIAAgUnAUJqYhAgQIECAAIGigKFUvLrOBAgQIECAwCRgKE1MQgQIECBAgEBRwFAqXl1nAgQIECBAYBIwlCYmIQIECBAgQKAoYCgVr64zAQIECBAgMAkYShOTEAECBAgQIFAUMJSKV9eZAAECBAgQmAQMpYlJiAABAgQIECgKGErFq+tMgAABAgQITAKG0sQkRIAAAQIECBQFDKXi1XUmQIAAAQIEJgFDaWISIkCAAAECBIoChlLx6joTIECAAAECk4ChNDEJESBAgAABAkUBQ6l4dZ0JECBAgACBScBQmpiECBAgQIAAgaLAr1fpj4+PYnedCRAgQIAAAQJ/FPj8/Hx7vL7+PN8fUz4QIECAAAECBIICj+fzp7fg4VUmQIAAAQIENgFDaXOSIkCAAAECBIIChlLw6CoTIECAAAECm4ChtDlJESBAgAABAkEBQyl4dJUJECBAgACBTcBQ2pykCBAgQIAAgaCAoRQ8usoECBAgQIDAJmAobU5SBAgQIECAQFDAUAoeXWUCBAgQIEBgEzCUNicpAgQIECBAIChgKAWPrjIBAgQIECCwCRhKm5MUAQIECBAgEBQwlIJHV5kAAQIECBDYBAylzUmKAAECBAgQCAoYSsGjq0yAAAECBAhsAobS5iRFgAABAgQIBAUMpeDRVSZAgAABAgQ2AUNpc5IiQIAAAQIEggKGUvDoKhMgQIAAAQKbgKG0OUkRIECAAAECQQFDKXh0lQkQIECAAIFNwFDanKQIECBAgACBoIChFDy6ygQIECBAgMAmYChtTlIECBAgQIBAUMBQCh5dZQIECBAgQGATMJQ2JykCBAgQIEAgKGAoBY+uMgECBAgQILAJGEqbkxQBAgQIECAQFDCUgkdXmQABAgQIENgEDKXNSYoAAQIECBAIChhKwaOrTIAAAQIECGwChtLmJEWAAAECBAgEBQyl4NFVJkCAAAECBDYBQ2lzkiJAgAABAgSCAoZS8OgqEyBAgAABApuAobQ5SREgQIAAAQJBAUMpeHSVCRAgQIAAgU3AUNqcpAgQIECAAIGggKEUPLrKBAgQIECAwCZgKG1OUgQIECBAgEBQwFAKHl1lAgQIECBAYBMwlDYnKQIECBAgQCAoYCgFj64yAQIECBAgsAkYSpuTFAECBAgQIBAUMJSCR1eZAAECBAgQ2AQMpc1JigABAgQIEAgKGErBo6tMgAABAgQIbAKG0uYkRYAAAQIECAQFDKXg0VUmQIAAAQIENgFDaXOSIkCAAAECBIIChlLw6CoTIECAAAECm4ChtDlJESBAgAABAkEBQyl4dJUJECBAgACBTcBQ2pykCBAgQIAAgaCAoRQ8usoECBAgQIDAJmAobU5SBAgQIECAQFDAUAoeXWUCBAgQIEBgEzCUNicpAgQIECBAIChgKAWPrjIBAgQIECCwCRhKm5MUAQIECBAgEBQwlIJHV5kAAQIECBDYBAylzUmKAAECBAgQCAoYSsGjq0yAAAECBAhsAobS5iRFgAABAgQIBAUMpeDRVSZAgAABAgQ2AUNpc5IiQIAAAQIEggKGUvDoKhMgQIAAAQKbgKG0OUkRIECAAAECQQFDKXh0lQkQIECAAIFNwFDanKQIECBAgACBoIChFDy6ygQIECBAgMAmYChtTlIECBAgQIBAUMBQCh5dZQIECBAgQGATMJQ2JykCBAgQIEAgKGAoBY+uMgECBAgQILAJGEqbkxQBAgQIECAQFDCUgkdXmQABAgQIENgEDKXNSYoAAQIECBAIChhKwaOrTIAAAQIECGwChtLmJEWAAAECBAgEBQyl4NFVJkCAAAECBDYBQ2lzkiJAgAABAgSCAoZS8OgqEyBAgAABApuAobQ5SREgQIAAAQJBAUMpeHSVCRAgQIAAgU3AUNqcpAgQIECAAIGggKEUPLrKBAgQIECAwCZgKG1OUgQIECBAgEBQwFAKHl1lAgQIECBAYBMwlDYnKQIECBAgQCAoYCgFj64yAQIECBAgsAkYSpuTFAECBAgQIBAUMJSCR1eZAAECBAgQ2AQMpc1JigABAgQIEAgKGErBo6tMgAABAgQIbAKG0uYkRYAAAQIECAQFDKXg0VUmQIAAAQIECBAgQIAAAQIECPwvgX8BEoQXXvtFEdYAAAAASUVORK5CYII=;" vertex="1" parent="1">
          <mxGeometry x="561.13" y="-630" width="241.5" height="241.5" as="geometry" />
        </mxCell>
      </root>
    </mxGraphModel>
  </diagram>
</mxfile>
